<svg xmlns="http://www.w3.org/2000/svg" xmlns:xlink="http://www.w3.org/1999/xlink" width="96" height="96" viewBox="0 0 96 96">
  <defs>
    <clipPath id="clip-path">
      <rect id="Rectángulo_455533" data-name="Rectángulo 455533" width="95.999" height="92.163" fill="#19538d"/>
    </clipPath>
  </defs>
  <g id="Grupo_1185637" data-name="Grupo 1185637" transform="translate(7920 7328)">
    <g id="Grupo_1185629" data-name="Grupo 1185629" transform="translate(-8303.746 -15727)">
      <circle id="Elipse_13674" data-name="Elipse 13674" cx="41.5" cy="41.5" r="41.5" transform="translate(389.746 8406)" fill="#19538d"/>
      <g id="Grupo_1179062" data-name="Grupo 1179062" transform="translate(383.745 8399)">
        <rect id="Rectángulo_455531" data-name="Rectángulo 455531" width="96" height="96" transform="translate(0 0)" fill="none"/>
        <g id="Grupo_1179061" data-name="Grupo 1179061" transform="translate(0 2.203)">
          <path id="Trazado_998445" data-name="Trazado 998445" d="M114.467,95.838H96.727l2.4-4.484h17.739Z" transform="translate(-23.693 -22.7)" fill="#19538d"/>
          <path id="Trazado_998446" data-name="Trazado 998446" d="M1.458,86.893,0,89.861H19.558l1.458-2.968Z" transform="translate(0 -21.618)" fill="#19538d"/>
          <path id="Trazado_998447" data-name="Trazado 998447" d="M117.539,31.293H98.809l1.469-3.326h18.73Z" transform="translate(-24.246 -6.956)" fill="#19538d"/>
          <path id="Trazado_998448" data-name="Trazado 998448" d="M28.088,11.547H3.483L4.952,8.221H29.557Z" transform="translate(-0.925 -2.184)" fill="#19538d"/>
          <g id="Grupo_1179060" data-name="Grupo 1179060" transform="translate(0)">
            <g id="Grupo_1179059" data-name="Grupo 1179059" clip-path="url(#clip-path)">
              <path id="Trazado_998449" data-name="Trazado 998449" d="M48.653,99.141a40.772,40.772,0,0,1-39.711-49.9H3.518A46.036,46.036,0,0,0,84.512,87.248h-7.1A40.6,40.6,0,0,1,48.653,99.141" transform="translate(-0.653 -12.277)" fill="#19538d"/>
              <path id="Trazado_998450" data-name="Trazado 998450" d="M110.835,87.933h6.025c.484-.964.923-1.952,1.34-2.953h-5.792c-.487,1.007-1.008,1.994-1.573,2.953" transform="translate(-27.709 -21.189)" fill="#19538d"/>
              <path id="Trazado_998451" data-name="Trazado 998451" d="M95.384,46.081a46.043,46.043,0,0,0-90.011-13.7h5.589A40.752,40.752,0,1,1,87.147,61.291h5.644a45.915,45.915,0,0,0,2.592-15.209" transform="translate(-1.343)" fill="#19538d"/>
              <path id="Trazado_998452" data-name="Trazado 998452" d="M108.562,81.649v2.5h3.277q.594-1.228,1.106-2.5Z" transform="translate(-27.141 -20.358)" fill="#19538d"/>
              <path id="Trazado_998453" data-name="Trazado 998453" d="M126.164,81.649h-4.551q-.444,1.268-.958,2.5h5.509Z" transform="translate(-30.164 -20.358)" fill="#19538d"/>
            </g>
          </g>
          <path id="Trazado_998444" data-name="Trazado 998444" d="M2.2,37.025,0,41.509H13.317l2.2-4.484Z" transform="translate(0 -9.2)" fill="#19538d"/>
        </g>
      </g>
    </g>
    <g id="operador" transform="translate(-7895.794 -7304)">
      <g id="Grupo_1184658" data-name="Grupo 1184658" transform="translate(30.497)">
        <g id="Grupo_1184657" data-name="Grupo 1184657">
          <path id="Trazado_1030365" data-name="Trazado 1030365" d="M329.083,0a7.083,7.083,0,1,0,7.083,7.083A7.091,7.091,0,0,0,329.083,0Z" transform="translate(-322 0)" fill="#fff"/>
        </g>
      </g>
      <g id="Grupo_1184660" data-name="Grupo 1184660" transform="translate(26.719 14.166)">
        <g id="Grupo_1184659" data-name="Grupo 1184659">
          <path id="Trazado_1030366" data-name="Trazado 1030366" d="M297.583,150h-9.444A6.146,6.146,0,0,0,282,156.139v9.539h21.721v-9.539A6.146,6.146,0,0,0,297.583,150Z" transform="translate(-282 -150)" fill="#fff"/>
        </g>
      </g>
      <g id="Grupo_1184662" data-name="Grupo 1184662" transform="translate(-0.206 26.739)">
        <g id="Grupo_1184661" data-name="Grupo 1184661" transform="translate(0 0)">
          <rect id="Rectángulo_458307" data-name="Rectángulo 458307" width="24.186" height="5.691" fill="#fff"/>
        </g>
      </g>
      <g id="Grupo_1184664" data-name="Grupo 1184664" transform="translate(4.062 35.274)">
        <g id="Grupo_1184663" data-name="Grupo 1184663" transform="translate(0 0)">
          <rect id="Rectángulo_458308" data-name="Rectángulo 458308" width="8.536" height="12.804" fill="#fff"/>
        </g>
      </g>
      <g id="Grupo_1184666" data-name="Grupo 1184666" transform="translate(15.481 8.5)">
        <g id="Grupo_1184665" data-name="Grupo 1184665">
          <path id="Trazado_1030367" data-name="Trazado 1030367" d="M175.284,90H164.059L163,91.059v7.893l1.059,1.059h7.527a9,9,0,0,1,5.006-6.338A9.849,9.849,0,0,1,175.284,90Z" transform="translate(-163 -90)" fill="#fff"/>
        </g>
      </g>
      <g id="Grupo_1184668" data-name="Grupo 1184668" transform="translate(6.698)">
        <g id="Grupo_1184667" data-name="Grupo 1184667">
          <path id="Trazado_1030368" data-name="Trazado 1030368" d="M78.668,5.666h12.4A9.9,9.9,0,0,1,93.95,0H70V24.177H87.188V21.344h-8.52L75.95,18.625V8.385Z" transform="translate(-70)" fill="#fff"/>
        </g>
      </g>
      <g id="Grupo_1184670" data-name="Grupo 1184670" transform="translate(30.185 32.677)">
        <g id="Grupo_1184669" data-name="Grupo 1184669">
          <path id="Trazado_1030369" data-name="Trazado 1030369" d="M318.7,346l1.889,15.677H331.6L333.489,346Z" transform="translate(-318.699 -346)" fill="#fff"/>
        </g>
      </g>
    </g>
  </g>
</svg>
