<svg xmlns="http://www.w3.org/2000/svg" xmlns:xlink="http://www.w3.org/1999/xlink" width="96" height="96" viewBox="0 0 96 96">
  <defs>
    <clipPath id="clip-path">
      <rect id="Rectángulo_455533" data-name="Rectángulo 455533" width="95.999" height="92.163" fill="#19538d"/>
    </clipPath>
  </defs>
  <g id="Grupo_1185633" data-name="Grupo 1185633" transform="translate(-1193 -4372)">
    <g id="Grupo_1185628" data-name="Grupo 1185628" transform="translate(809.255 -4027)">
      <circle id="Elipse_13674" data-name="Elipse 13674" cx="41.5" cy="41.5" r="41.5" transform="translate(389.746 8406)" fill="#19538d"/>
      <g id="Grupo_1179062" data-name="Grupo 1179062" transform="translate(383.745 8399)">
        <rect id="Rectángulo_455531" data-name="Rectángulo 455531" width="96" height="96" transform="translate(0 0)" fill="none"/>
        <g id="Grupo_1179061" data-name="Grupo 1179061" transform="translate(0 2.203)">
          <path id="Trazado_998445" data-name="Trazado 998445" d="M114.467,95.838H96.727l2.4-4.484h17.739Z" transform="translate(-23.693 -22.7)" fill="#19538d"/>
          <path id="Trazado_998446" data-name="Trazado 998446" d="M1.458,86.893,0,89.861H19.558l1.458-2.968Z" transform="translate(0 -21.618)" fill="#19538d"/>
          <path id="Trazado_998447" data-name="Trazado 998447" d="M117.539,31.293H98.809l1.469-3.326h18.73Z" transform="translate(-24.246 -6.956)" fill="#19538d"/>
          <path id="Trazado_998448" data-name="Trazado 998448" d="M28.088,11.547H3.483L4.952,8.221H29.557Z" transform="translate(-0.925 -2.184)" fill="#19538d"/>
          <g id="Grupo_1179060" data-name="Grupo 1179060" transform="translate(0)">
            <g id="Grupo_1179059" data-name="Grupo 1179059" clip-path="url(#clip-path)">
              <path id="Trazado_998449" data-name="Trazado 998449" d="M48.653,99.141a40.772,40.772,0,0,1-39.711-49.9H3.518A46.036,46.036,0,0,0,84.512,87.248h-7.1A40.6,40.6,0,0,1,48.653,99.141" transform="translate(-0.653 -12.277)" fill="#19538d"/>
              <path id="Trazado_998450" data-name="Trazado 998450" d="M110.835,87.933h6.025c.484-.964.923-1.952,1.34-2.953h-5.792c-.487,1.007-1.008,1.994-1.573,2.953" transform="translate(-27.709 -21.189)" fill="#19538d"/>
              <path id="Trazado_998451" data-name="Trazado 998451" d="M95.384,46.081a46.043,46.043,0,0,0-90.011-13.7h5.589A40.752,40.752,0,1,1,87.147,61.291h5.644a45.915,45.915,0,0,0,2.592-15.209" transform="translate(-1.343)" fill="#19538d"/>
              <path id="Trazado_998452" data-name="Trazado 998452" d="M108.562,81.649v2.5h3.277q.594-1.228,1.106-2.5Z" transform="translate(-27.141 -20.358)" fill="#19538d"/>
              <path id="Trazado_998453" data-name="Trazado 998453" d="M126.164,81.649h-4.551q-.444,1.268-.958,2.5h5.509Z" transform="translate(-30.164 -20.358)" fill="#19538d"/>
            </g>
          </g>
          <path id="Trazado_998444" data-name="Trazado 998444" d="M2.2,37.025,0,41.509H13.317l2.2-4.484Z" transform="translate(0 -9.2)" fill="#19538d"/>
        </g>
      </g>
    </g>
    <g id="_x30_3" transform="translate(1215 4394)">
      <path id="Trazado_1030358" data-name="Trazado 1030358" d="M16.214,17v5.214H11Z" transform="translate(6.643 11.072)" fill="#fff"/>
      <path id="Trazado_1030359" data-name="Trazado 1030359" d="M7.214,2,2,7.214H7.214Z" fill="#fff"/>
      <path id="Trazado_1030360" data-name="Trazado 1030360" d="M14.167,2H8.952V7.214A1.738,1.738,0,0,1,7.214,8.952H2V19.381a1.738,1.738,0,0,0,1.738,1.738H7.214V36.762A1.738,1.738,0,0,0,8.952,38.5H15.9V35.024H10.691v-13.9h3.476A1.738,1.738,0,0,0,15.9,19.381V3.738A1.738,1.738,0,0,0,14.167,2ZM13.3,19.381H4.607a.869.869,0,0,1,0-1.738H13.3a.869.869,0,1,1,0,1.738Zm0-3.476H4.607a.869.869,0,1,1,0-1.738H13.3a.869.869,0,1,1,0,1.738Zm0-3.476H4.607a.869.869,0,0,1,0-1.738H13.3a.869.869,0,1,1,0,1.738Z" fill="#fff"/>
      <path id="Trazado_1030361" data-name="Trazado 1030361" d="M27,2V7.214h5.214Z" transform="translate(18.453)" fill="#fff"/>
      <path id="Trazado_1030362" data-name="Trazado 1030362" d="M28.952,7.214V2H23.738A1.738,1.738,0,0,0,22,3.738V19.381a1.738,1.738,0,0,0,1.738,1.738h3.476v13.9H22V38.5h6.952a1.738,1.738,0,0,0,1.738-1.738V21.119h3.476A1.738,1.738,0,0,0,35.9,19.381V8.952H30.691A1.738,1.738,0,0,1,28.952,7.214ZM33.3,19.381H24.607a.869.869,0,1,1,0-1.738H33.3a.869.869,0,1,1,0,1.738Zm0-3.476H24.607a.869.869,0,1,1,0-1.738H33.3a.869.869,0,1,1,0,1.738Zm.869-4.345a.869.869,0,0,1-.869.869H24.607a.869.869,0,0,1,0-1.738H33.3A.869.869,0,0,1,34.167,11.56Z" transform="translate(14.762)" fill="#fff"/>
      <path id="Trazado_1030363" data-name="Trazado 1030363" d="M24.167,2H13.738A1.738,1.738,0,0,0,12,3.738V19.381a1.738,1.738,0,0,0,1.738,1.738h3.476v5.214h3.476V21.119h3.476A1.738,1.738,0,0,0,25.9,19.381V3.738A1.738,1.738,0,0,0,24.167,2ZM23.3,15.9H14.607a.869.869,0,1,1,0-1.738H23.3a.869.869,0,1,1,0,1.738Zm0-3.476H14.607a.869.869,0,0,1,0-1.738H23.3a.869.869,0,1,1,0,1.738Zm0-3.476H14.607a.869.869,0,0,1,0-1.738H23.3a.869.869,0,1,1,0,1.738Z" transform="translate(7.381)" fill="#fff"/>
      <path id="Trazado_1030364" data-name="Trazado 1030364" d="M26.643,17H17.952v5.214a1.738,1.738,0,0,1-1.738,1.738H11v13.9A1.738,1.738,0,0,0,12.738,39.6h13.9a1.738,1.738,0,0,0,1.738-1.738V18.738A1.738,1.738,0,0,0,26.643,17Zm-1.863,8.267-5.214,8.691a.868.868,0,0,1-.638.415.9.9,0,0,1-.107.007.869.869,0,0,1-.614-.255L14.73,30.649a.869.869,0,0,1,1.229-1.229l2.69,2.69,4.642-7.737a.869.869,0,0,1,1.49.895Z" transform="translate(6.643 11.072)" fill="#fff"/>
    </g>
  </g>
</svg>
