<svg xmlns="http://www.w3.org/2000/svg" xmlns:xlink="http://www.w3.org/1999/xlink" width="96" height="96" viewBox="0 0 96 96">
  <defs>
    <clipPath id="clip-path">
      <rect id="Rectángulo_455533" data-name="Rectángulo 455533" width="95.999" height="92.163" fill="#19538d"/>
    </clipPath>
  </defs>
  <g id="Grupo_1185636" data-name="Grupo 1185636" transform="translate(7692 7328)">
    <g id="Grupo_1185630" data-name="Grupo 1185630" transform="translate(-8075.746 -15727)">
      <circle id="Elipse_13674" data-name="Elipse 13674" cx="41.5" cy="41.5" r="41.5" transform="translate(389.746 8406)" fill="#19538d"/>
      <g id="Grupo_1179062" data-name="Grupo 1179062" transform="translate(383.745 8399)">
        <rect id="Rectángulo_455531" data-name="Rectángulo 455531" width="96" height="96" transform="translate(0 0)" fill="none"/>
        <g id="Grupo_1179061" data-name="Grupo 1179061" transform="translate(0 2.203)">
          <path id="Trazado_998445" data-name="Trazado 998445" d="M114.467,95.838H96.727l2.4-4.484h17.739Z" transform="translate(-23.693 -22.7)" fill="#19538d"/>
          <path id="Trazado_998446" data-name="Trazado 998446" d="M1.458,86.893,0,89.861H19.558l1.458-2.968Z" transform="translate(0 -21.618)" fill="#19538d"/>
          <path id="Trazado_998447" data-name="Trazado 998447" d="M117.539,31.293H98.809l1.469-3.326h18.73Z" transform="translate(-24.246 -6.956)" fill="#19538d"/>
          <path id="Trazado_998448" data-name="Trazado 998448" d="M28.088,11.547H3.483L4.952,8.221H29.557Z" transform="translate(-0.925 -2.184)" fill="#19538d"/>
          <g id="Grupo_1179060" data-name="Grupo 1179060" transform="translate(0)">
            <g id="Grupo_1179059" data-name="Grupo 1179059" clip-path="url(#clip-path)">
              <path id="Trazado_998449" data-name="Trazado 998449" d="M48.653,99.141a40.772,40.772,0,0,1-39.711-49.9H3.518A46.036,46.036,0,0,0,84.512,87.248h-7.1A40.6,40.6,0,0,1,48.653,99.141" transform="translate(-0.653 -12.277)" fill="#19538d"/>
              <path id="Trazado_998450" data-name="Trazado 998450" d="M110.835,87.933h6.025c.484-.964.923-1.952,1.34-2.953h-5.792c-.487,1.007-1.008,1.994-1.573,2.953" transform="translate(-27.709 -21.189)" fill="#19538d"/>
              <path id="Trazado_998451" data-name="Trazado 998451" d="M95.384,46.081a46.043,46.043,0,0,0-90.011-13.7h5.589A40.752,40.752,0,1,1,87.147,61.291h5.644a45.915,45.915,0,0,0,2.592-15.209" transform="translate(-1.343)" fill="#19538d"/>
              <path id="Trazado_998452" data-name="Trazado 998452" d="M108.562,81.649v2.5h3.277q.594-1.228,1.106-2.5Z" transform="translate(-27.141 -20.358)" fill="#19538d"/>
              <path id="Trazado_998453" data-name="Trazado 998453" d="M126.164,81.649h-4.551q-.444,1.268-.958,2.5h5.509Z" transform="translate(-30.164 -20.358)" fill="#19538d"/>
            </g>
          </g>
          <path id="Trazado_998444" data-name="Trazado 998444" d="M2.2,37.025,0,41.509H13.317l2.2-4.484Z" transform="translate(0 -9.2)" fill="#19538d"/>
        </g>
      </g>
    </g>
    <g id="estructura-jerarquica_1_" data-name="estructura-jerarquica (1)" transform="translate(-7670 -7306)">
      <path id="Trazado_1030370" data-name="Trazado 1030370" d="M151,71.3V81.8l9,4.5V75.8Z" transform="translate(-135.9 -64.17)" fill="#fff"/>
      <path id="Trazado_1030371" data-name="Trazado 1030371" d="M184,4.52,175,0l-9,4.52,9,4.5Z" transform="translate(-149.4)" fill="#fff"/>
      <path id="Trazado_1030372" data-name="Trazado 1030372" d="M280,71.3l-9,4.5V86.3l9-4.5Z" transform="translate(-243.9 -64.17)" fill="#fff"/>
      <path id="Trazado_1030373" data-name="Trazado 1030373" d="M45.2,235.522V226.37H27.1V221.3l-1.5.75-1.5-.75v5.07H6v9.152a7.5,7.5,0,1,0,3,0V229.37H24.1v6.152a7.5,7.5,0,1,0,3,0V229.37H42.2v6.152a7.5,7.5,0,1,0,3,0Z" transform="translate(0 -199.17)" fill="#fff"/>
    </g>
  </g>
</svg>
