<svg xmlns="http://www.w3.org/2000/svg" xmlns:xlink="http://www.w3.org/1999/xlink" width="96" height="96" viewBox="0 0 96 96">
  <defs>
    <clipPath id="clip-path">
      <rect id="Rectángulo_455533" data-name="Rectángulo 455533" width="95.999" height="92.163" fill="#19538d"/>
    </clipPath>
  </defs>
  <g id="Grupo_1185631" data-name="Grupo 1185631" transform="translate(-383.746 -8399)">
    <circle id="Elipse_13674" data-name="Elipse 13674" cx="41.5" cy="41.5" r="41.5" transform="translate(389.746 8406)" fill="#19538d"/>
    <g id="Grupo_1179062" data-name="Grupo 1179062" transform="translate(383.745 8399)">
      <rect id="Rectángulo_455531" data-name="Rectángulo 455531" width="96" height="96" transform="translate(0 0)" fill="none"/>
      <g id="Grupo_1179061" data-name="Grupo 1179061" transform="translate(0 2.203)">
        <path id="Trazado_998445" data-name="Trazado 998445" d="M114.467,95.838H96.727l2.4-4.484h17.739Z" transform="translate(-23.693 -22.7)" fill="#19538d"/>
        <path id="Trazado_998446" data-name="Trazado 998446" d="M1.458,86.893,0,89.861H19.558l1.458-2.968Z" transform="translate(0 -21.618)" fill="#19538d"/>
        <path id="Trazado_998447" data-name="Trazado 998447" d="M117.539,31.293H98.809l1.469-3.326h18.73Z" transform="translate(-24.246 -6.956)" fill="#19538d"/>
        <path id="Trazado_998448" data-name="Trazado 998448" d="M28.088,11.547H3.483L4.952,8.221H29.557Z" transform="translate(-0.925 -2.184)" fill="#19538d"/>
        <g id="Grupo_1179060" data-name="Grupo 1179060" transform="translate(0)">
          <g id="Grupo_1179059" data-name="Grupo 1179059" clip-path="url(#clip-path)">
            <path id="Trazado_998449" data-name="Trazado 998449" d="M48.653,99.141a40.772,40.772,0,0,1-39.711-49.9H3.518A46.036,46.036,0,0,0,84.512,87.248h-7.1A40.6,40.6,0,0,1,48.653,99.141" transform="translate(-0.653 -12.277)" fill="#19538d"/>
            <path id="Trazado_998450" data-name="Trazado 998450" d="M110.835,87.933h6.025c.484-.964.923-1.952,1.34-2.953h-5.792c-.487,1.007-1.008,1.994-1.573,2.953" transform="translate(-27.709 -21.189)" fill="#19538d"/>
            <path id="Trazado_998451" data-name="Trazado 998451" d="M95.384,46.081a46.043,46.043,0,0,0-90.011-13.7h5.589A40.752,40.752,0,1,1,87.147,61.291h5.644a45.915,45.915,0,0,0,2.592-15.209" transform="translate(-1.343)" fill="#19538d"/>
            <path id="Trazado_998452" data-name="Trazado 998452" d="M108.562,81.649v2.5h3.277q.594-1.228,1.106-2.5Z" transform="translate(-27.141 -20.358)" fill="#19538d"/>
            <path id="Trazado_998453" data-name="Trazado 998453" d="M126.164,81.649h-4.551q-.444,1.268-.958,2.5h5.509Z" transform="translate(-30.164 -20.358)" fill="#19538d"/>
          </g>
        </g>
        <path id="Trazado_998444" data-name="Trazado 998444" d="M2.2,37.025,0,41.509H13.317l2.2-4.484Z" transform="translate(0 -9.2)" fill="#19538d"/>
      </g>
    </g>
    <g id="Grupo_1177669" data-name="Grupo 1177669" transform="translate(403.444 8418.662)">
      <g id="Grupo_1099618" data-name="Grupo 1099618" transform="translate(0 0)">
        <rect id="Rectángulo_401104" data-name="Rectángulo 401104" width="56.349" height="57.028" transform="translate(0)" fill="none"/>
      </g>
      <g id="Grupo_1185632" data-name="Grupo 1185632" transform="translate(7826.609 7408.423)">
        <path id="reutilizar-el-agua" d="M26.448,27.6,22.3,24.629l7.4-10.337,2.562,5.178ZM17.795,48.917l1.841.972-1.2-8.28L10.922,45.29l1.841.972a.3.3,0,0,1,.124.4l-4.911,9.3,3.338,4.6,6.081-11.522A.3.3,0,0,1,17.795,48.917Zm-3.252,6.8-2.7,5.109,12.713-.056-.022-5.1Zm21.477-29.8a.3.3,0,0,1-.149.171L34,27.01l7.414,3.876,1.417-8.245-1.866.923a.3.3,0,0,1-.4-.134L35.908,14l-5.68.013L36,25.69a.3.3,0,0,1,.015.226Zm20.913,27.8L50.948,42.5l-4.5,2.4,4.7,8.818Zm-13.01.592a.3.3,0,0,1-.3-.3V51.931l-6.762,4.927,6.762,4.927V59.7a.3.3,0,0,1,.3-.3H54.443l2.507-5.1Z" transform="translate(-7830.284 -7418.085)" fill="#fff"/>
        <path id="Trazado_1031858" data-name="Trazado 1031858" d="M13.61,32.758a1.82,1.82,0,1,1-2.573,2.574L7.412,31.707a1.812,1.812,0,0,1,0-2.574l3.625-3.625a1.82,1.82,0,0,1,2.573,2.574l-2.356,2.338Zm9.5-7.249L19.482,36.383a1.812,1.812,0,0,1-1.722,1.287,2.266,2.266,0,0,1-.58-.091,1.812,1.812,0,0,1-1.142-2.3L19.664,24.4a1.817,1.817,0,0,1,3.443,1.16Zm8.627,6.144-3.625,3.625A1.82,1.82,0,1,1,25.535,32.7l2.356-2.284-2.356-2.338a1.82,1.82,0,1,1,2.573-2.573l3.625,3.625a1.812,1.812,0,0,1,0,2.574Z" transform="translate(-7817.011 -7407.126)" fill="#fff"/>
      </g>
    </g>
  </g>
</svg>
