<svg xmlns="http://www.w3.org/2000/svg" xmlns:xlink="http://www.w3.org/1999/xlink" width="130" height="130" viewBox="0 0 130 130">
  <defs>
    <clipPath id="clip-path">
      <rect id="Rectángulo_455533" data-name="Rectángulo 455533" width="130" height="124.675" fill="#19538d"/>
    </clipPath>
  </defs>
  <g id="Grupo_1185620" data-name="Grupo 1185620" transform="translate(0.295 -0.228)">
    <ellipse id="Elipse_13674" data-name="Elipse 13674" cx="55.433" cy="55.433" rx="55.433" ry="55.433" transform="translate(9.272 9.794)" fill="#fff"/>
    <g id="Grupo_1179062" data-name="Grupo 1179062" transform="translate(-0.295 0.228)">
      <rect id="Rectángulo_455531" data-name="Rectángulo 455531" width="130" height="130" transform="translate(0 0)" fill="none"/>
      <g id="Grupo_1179061" data-name="Grupo 1179061" transform="translate(0 3.059)">
        <path id="Trazado_998445" data-name="Trazado 998445" d="M121.348,97.577H96.727l3.337-6.223h24.621Z" transform="translate(1.399 1.395)" fill="#62249e"/>
        <path id="Trazado_998446" data-name="Trazado 998446" d="M2.024,86.893,0,91.012H27.145l2.024-4.119Z" transform="translate(0 1.333)" fill="#19538d"/>
        <path id="Trazado_998447" data-name="Trazado 998447" d="M124.8,32.583h-26l2.038-4.616h26Z" transform="translate(1.439 0.429)" fill="#19538d"/>
        <path id="Trazado_998448" data-name="Trazado 998448" d="M37.632,12.837H3.483L5.521,8.221H39.671Z" transform="translate(0.067 0.158)" fill="#19538d"/>
        <g id="Grupo_1179060" data-name="Grupo 1179060" transform="translate(0)">
          <g id="Grupo_1179059" data-name="Grupo 1179059" clip-path="url(#clip-path)">
            <path id="Trazado_998449" data-name="Trazado 998449" d="M64.959,116.745A55.15,55.15,0,0,1,11.184,49.237H3.839a62.343,62.343,0,0,0,109.679,51.42H103.9a55,55,0,0,1-38.942,16.088" transform="translate(0.041 0.762)" fill="#19538d"/>
            <path id="Trazado_998450" data-name="Trazado 998450" d="M110.835,88.975h8.158c.655-1.3,1.25-2.641,1.815-3.995h-7.844c-.659,1.363-1.365,2.7-2.13,3.995" transform="translate(1.732 1.314)" fill="#19538d"/>
            <path id="Trazado_998451" data-name="Trazado 998451" d="M127.263,62.338A62.358,62.358,0,0,0,5.373,43.8h7.568A55.178,55.178,0,1,1,116.109,82.912h7.644a62.054,62.054,0,0,0,3.51-20.574" transform="translate(0.084)" fill="#19538d"/>
            <path id="Trazado_998452" data-name="Trazado 998452" d="M108.562,81.649v3.383H113q.8-1.662,1.5-3.383Z" transform="translate(1.696 1.263)" fill="#19538d"/>
            <path id="Trazado_998453" data-name="Trazado 998453" d="M128.115,81.649h-6.163q-.6,1.715-1.3,3.383h7.46Z" transform="translate(1.885 1.263)" fill="#19538d"/>
          </g>
        </g>
        <path id="Trazado_998444" data-name="Trazado 998444" d="M3.057,37.025,0,43.248H18.482l3.058-6.223Z" transform="translate(0 0.565)" fill="#62249e"/>
      </g>
    </g>
    <g id="Grupo_1185622" data-name="Grupo 1185622" transform="translate(29.771 31.214)">
      <g id="Grupo_1099618" data-name="Grupo 1099618" transform="translate(0 0)">
        <rect id="Rectángulo_401104" data-name="Rectángulo 401104" width="66.998" height="67.806" transform="translate(0)" fill="none"/>
      </g>
      <g id="Layer_4" data-name="Layer 4" transform="translate(8.742 3.467)">
        <path id="Trazado_1030343" data-name="Trazado 1030343" d="M18.174,15.044h10.87L16,2V12.87A2.174,2.174,0,0,0,18.174,15.044Z" transform="translate(14.436 -2)" fill="#19538d"/>
        <path id="Trazado_1030344" data-name="Trazado 1030344" d="M45.48,19.392H34.61a6.522,6.522,0,0,1-6.522-6.522V2H6.348A4.348,4.348,0,0,0,2,6.348V58.525a4.348,4.348,0,0,0,4.348,4.348H32.306L35.023,52,45.48,41.5ZM16.588,41.763A2.183,2.183,0,1,1,13.5,44.85L9.153,40.5a2.174,2.174,0,0,1,0-3.087L13.5,33.067a2.183,2.183,0,0,1,3.087,3.087l-2.826,2.8Zm11.392-8.7L23.632,46.111a2.174,2.174,0,0,1-2.065,1.544,2.718,2.718,0,0,1-.7-.109,2.174,2.174,0,0,1-1.37-2.761l4.348-13.044a2.179,2.179,0,0,1,4.131,1.391Zm10.348,7.37L33.98,44.785A2.183,2.183,0,1,1,30.893,41.7l2.826-2.739-2.826-2.8a2.183,2.183,0,1,1,3.087-3.087l4.348,4.348a2.174,2.174,0,0,1,0,3.087Z" transform="translate(-2 -2)" fill="#19538d"/>
        <path id="Trazado_1030345" data-name="Trazado 1030345" d="M31.8,18a6.522,6.522,0,0,0-4.609,1.913L25.21,21.891l6.522,6.522,1.978-1.978a6.522,6.522,0,0,0,1.913-4.609A3.826,3.826,0,0,0,31.8,18Z" transform="translate(25.249 16.784)" fill="#19538d"/>
        <path id="Trazado_1030346" data-name="Trazado 1030346" d="M20.174,31.624,18,40.32l8.7-2.174L37.11,27.732,30.588,21.21Z" transform="translate(16.784 20.553)" fill="#19538d"/>
      </g>
    </g>
  </g>
</svg>
