<svg xmlns="http://www.w3.org/2000/svg" xmlns:xlink="http://www.w3.org/1999/xlink" width="160" height="160" viewBox="0 0 160 160">
  <defs>
    <clipPath id="clip-path">
      <rect id="Rectángulo_455533" data-name="Rectángulo 455533" width="159.812" height="153.185" fill="#62249e"/>
    </clipPath>
  </defs>
  <g id="Grupo_1185686" data-name="Grupo 1185686" transform="translate(-383.649 -8398.903)">
    <circle id="Elipse_13674" data-name="Elipse 13674" cx="69" cy="69" r="69" transform="translate(393.649 8410.903)" fill="#62249e"/>
    <g id="Grupo_1179062" data-name="Grupo 1179062" transform="translate(383.649 8398.903)">
      <rect id="Rectángulo_455531" data-name="Rectángulo 455531" width="160" height="160" transform="translate(0 0)" fill="none"/>
      <g id="Grupo_1179061" data-name="Grupo 1179061" transform="translate(0.094 3.9)">
        <path id="Trazado_998445" data-name="Trazado 998445" d="M127.367,99.1H96.727l4.153-7.745h30.64Z" transform="translate(23.418 22.527)" fill="#62249e"/>
        <path id="Trazado_998446" data-name="Trazado 998446" d="M2.518,86.893,0,92.019h33.78L36.3,86.893Z" transform="translate(0 21.46)" fill="#62249e"/>
        <path id="Trazado_998447" data-name="Trazado 998447" d="M131.16,33.711H98.809l2.537-5.745H133.7Z" transform="translate(23.977 6.905)" fill="#62249e"/>
        <path id="Trazado_998448" data-name="Trazado 998448" d="M45.981,13.965H3.483L6.02,8.221h42.5Z" transform="translate(0.935 2.207)" fill="#62249e"/>
        <g id="Grupo_1179060" data-name="Grupo 1179060" transform="translate(0)">
          <g id="Grupo_1179059" data-name="Grupo 1179059" clip-path="url(#clip-path)">
            <path id="Trazado_998449" data-name="Trazado 998449" d="M79.257,132.183A67.757,67.757,0,0,1,13.15,49.237H4.12a76.641,76.641,0,0,0,134.831,63.179H127.129a67.636,67.636,0,0,1-47.872,19.767" transform="translate(0.649 12.195)" fill="#62249e"/>
            <path id="Trazado_998450" data-name="Trazado 998450" d="M110.835,89.888h10.029c.805-1.6,1.537-3.245,2.231-4.908h-9.642c-.81,1.674-1.678,3.314-2.618,4.908" transform="translate(27.546 21.048)" fill="#62249e"/>
            <path id="Trazado_998451" data-name="Trazado 998451" d="M155.215,76.593A76.663,76.663,0,0,0,5.373,53.814h9.3A67.827,67.827,0,1,1,141.5,101.872h9.4a76.209,76.209,0,0,0,4.315-25.279" transform="translate(1.335)" fill="#62249e"/>
            <path id="Trazado_998452" data-name="Trazado 998452" d="M108.562,81.649v4.156h5.456q.989-2.042,1.842-4.156Z" transform="translate(26.981 20.223)" fill="#62249e"/>
            <path id="Trazado_998453" data-name="Trazado 998453" d="M129.825,81.649h-7.576q-.74,2.107-1.594,4.156h9.17Z" transform="translate(29.986 20.223)" fill="#62249e"/>
          </g>
        </g>
        <path id="Trazado_998444" data-name="Trazado 998444" d="M3.8,37.025,0,44.77H23l3.805-7.745Z" transform="translate(0 9.13)" fill="#62249e"/>
      </g>
    </g>
    <g id="Grupo_1177669" data-name="Grupo 1177669" transform="translate(416.649 8431.903)">
      <g id="Grupo_1099618" data-name="Grupo 1099618" transform="translate(0 0)">
        <rect id="Rectángulo_401104" data-name="Rectángulo 401104" width="93.646" height="94.775" transform="translate(0)" fill="none"/>
      </g>
      <g id="Grupo_1185688" data-name="Grupo 1185688" transform="translate(-1051.059 -9463)">
        <g id="User_Experience" data-name="User Experience" transform="translate(1052.984 9463.604)">
          <path id="Trazado_1030754" data-name="Trazado 1030754" d="M29.878,4.439a1.439,1.439,0,1,0-1.439,1.439A1.439,1.439,0,0,0,29.878,4.439Z" transform="translate(11.852 1.317)" fill="#fff"/>
          <path id="Trazado_1030755" data-name="Trazado 1030755" d="M37.878,4.439a1.439,1.439,0,1,0-1.439,1.439A1.439,1.439,0,0,0,37.878,4.439Z" transform="translate(15.363 1.317)" fill="#fff"/>
          <path id="Trazado_1030756" data-name="Trazado 1030756" d="M90.654,17.267H74.825V7.195A7.2,7.2,0,0,0,67.631,0H24.462a7.2,7.2,0,0,0-7.195,7.195V17.267H5.756a1.439,1.439,0,0,0-1.439,1.439v25.9a1.439,1.439,0,0,0,1.439,1.439H17.267V57.558H1.439A1.439,1.439,0,0,0,0,59V76.264A1.439,1.439,0,0,0,1.439,77.7H17.267V84.9a7.2,7.2,0,0,0,7.195,7.195H67.631A7.2,7.2,0,0,0,74.825,84.9V78.552c15.354-4.389,15.224-26.131,0-30.448V40.291H90.654a1.439,1.439,0,0,0,1.439-1.439V18.706A1.439,1.439,0,0,0,90.654,17.267ZM20.145,7.195a4.317,4.317,0,0,1,4.317-4.317H67.631a4.317,4.317,0,0,1,4.317,4.317V17.267H69.07V7.195a1.439,1.439,0,0,0-1.439-1.439H57.558a1.439,1.439,0,0,0-1.439,1.439A1.439,1.439,0,0,1,54.68,8.634H37.413a1.439,1.439,0,0,1-1.439-1.439,1.439,1.439,0,0,0-1.439-1.439H24.462a1.439,1.439,0,0,0-1.439,1.439V17.267H20.145ZM50.363,17.267a1.439,1.439,0,0,0-1.439,1.439V38.852a1.439,1.439,0,0,0,1.439,1.439H66.192V48.1c-15.167,4.317-15.325,25.743-.317,30.347.446.13.317-.532.317,5.008H25.9V77.7H44.607a1.439,1.439,0,0,0,1.439-1.439V59a1.439,1.439,0,0,0-1.439-1.439H25.9V46.046H37.413a1.439,1.439,0,0,0,1.439-1.439v-25.9a1.439,1.439,0,0,0-1.439-1.439H25.9V8.634H33.34a4.317,4.317,0,0,0,4.072,2.878H54.68a4.317,4.317,0,0,0,4.072-2.878h7.439v8.634ZM74.307,60.695a3.8,3.8,0,1,1-7.6,0V59.385a3.8,3.8,0,0,1,7.6,0Zm3.4,11.9.389,1.151a12.85,12.85,0,0,1-15.267,0l.4-1.166a7.641,7.641,0,0,1,14.476.014ZM7.195,20.145H35.974V43.168H7.195Zm12.951,25.9h2.878V57.558H20.145ZM2.878,60.436H43.168V74.825H2.878ZM67.631,89.215H24.462A4.317,4.317,0,0,1,20.145,84.9V77.7h2.878V84.9a1.439,1.439,0,0,0,1.439,1.439H67.631A1.439,1.439,0,0,0,69.07,84.9V79.142a13.741,13.741,0,0,0,2.878,0V84.9A4.317,4.317,0,0,1,67.631,89.215ZM80.452,71.6a10.4,10.4,0,0,0-5.367-6.072,7.324,7.324,0,0,0,2.1-6.144,6.677,6.677,0,0,0-13.353,0c0,2.1,0,4.115,2.1,6.144A10.36,10.36,0,0,0,60.565,71.6a12.951,12.951,0,1,1,19.886,0Zm-8.5-24.045a13.742,13.742,0,0,0-2.878,0V40.291h2.878ZM89.215,37.485H51.8V20.145H89.215Z" transform="translate(0)" fill="#fff"/>
          <path id="Trazado_1030757" data-name="Trazado 1030757" d="M29.462,48H6.439a1.439,1.439,0,1,0,0,2.878H29.462a1.439,1.439,0,1,0,0-2.878Z" transform="translate(2.195 21.07)" fill="#fff"/>
          <path id="Trazado_1030758" data-name="Trazado 1030758" d="M6.439,46.878H35.218a1.439,1.439,0,0,0,0-2.878H6.439a1.439,1.439,0,1,0,0,2.878Z" transform="translate(2.195 19.314)" fill="#fff"/>
          <path id="Trazado_1030759" data-name="Trazado 1030759" d="M14.878,30.073V21.439a1.439,1.439,0,1,0-2.878,0v8.634a1.439,1.439,0,1,0,2.878,0Z" transform="translate(5.267 8.779)" fill="#fff"/>
          <path id="Trazado_1030760" data-name="Trazado 1030760" d="M8,25.439v2.878a1.439,1.439,0,1,0,2.878,0V25.439a1.439,1.439,0,0,0-2.878,0Z" transform="translate(3.512 10.535)" fill="#fff"/>
          <path id="Trazado_1030761" data-name="Trazado 1030761" d="M18.878,29.634V22.439a1.439,1.439,0,1,0-2.878,0v7.195a1.439,1.439,0,1,0,2.878,0Z" transform="translate(7.023 9.218)" fill="#fff"/>
          <path id="Trazado_1030762" data-name="Trazado 1030762" d="M22.878,31.828V17.439a1.439,1.439,0,0,0-2.878,0V31.828a1.439,1.439,0,1,0,2.878,0Z" transform="translate(8.779 7.023)" fill="#fff"/>
          <path id="Trazado_1030763" data-name="Trazado 1030763" d="M43.737,16.419,39.42,20.736a1.439,1.439,0,0,0,0,2.043L43.737,27.1a1.445,1.445,0,1,0,2.043-2.043l-3.31-3.3,3.31-3.3a1.445,1.445,0,1,0-2.043-2.043Z" transform="translate(17.116 7.021)" fill="#fff"/>
          <path id="Trazado_1030764" data-name="Trazado 1030764" d="M56.462,27.1l4.317-4.317a1.439,1.439,0,0,0,0-2.043l-4.317-4.317a1.445,1.445,0,0,0-2.043,2.043l3.31,3.3-3.31,3.3A1.445,1.445,0,0,0,56.462,27.1Z" transform="translate(23.701 7.021)" fill="#fff"/>
          <path id="Trazado_1030765" data-name="Trazado 1030765" d="M46.242,25.247a1.439,1.439,0,0,0,1.194,2.23c1.05,0,.662.173,6.95-9.281A1.439,1.439,0,0,0,52,16.614Z" transform="translate(20.194 7.057)" fill="#fff"/>
        </g>
      </g>
    </g>
  </g>
</svg>
