<svg xmlns="http://www.w3.org/2000/svg" xmlns:xlink="http://www.w3.org/1999/xlink" width="128" height="128" viewBox="0 0 128 128">
  <defs>
    <clipPath id="clip-path">
      <rect id="Rectángulo_455533" data-name="Rectángulo 455533" width="128" height="122.776" fill="#19538d"/>
    </clipPath>
  </defs>
  <g id="Grupo_1185676" data-name="Grupo 1185676" transform="translate(-383 -3526)">
    <g id="Grupo_1185670" data-name="Grupo 1185670" transform="translate(-0.746 -4873)">
      <circle id="Elipse_13674" data-name="Elipse 13674" cx="54.5" cy="54.5" r="54.5" transform="translate(392.746 8409)" fill="#fff"/>
      <g id="Grupo_1179062" data-name="Grupo 1179062" transform="translate(272)">
        <rect id="Rectángulo_455531" data-name="Rectángulo 455531" width="128" height="128" transform="translate(111.746 8399)" fill="none"/>
        <g id="Grupo_1179061" data-name="Grupo 1179061" transform="translate(111.746 8402)">
          <path id="Trazado_998445" data-name="Trazado 998445" d="M120.883,97.46H96.727L100,91.354h24.156Z" fill="#62249e"/>
          <path id="Trazado_998446" data-name="Trazado 998446" d="M1.985,86.893,0,90.934H26.632l1.986-4.041Z" fill="#19538d"/>
          <path id="Trazado_998447" data-name="Trazado 998447" d="M124.314,32.5H98.809l2-4.529h25.505Z" fill="#19538d"/>
          <path id="Trazado_998448" data-name="Trazado 998448" d="M36.988,12.75H3.483l2-4.529h33.5Z" fill="#19538d"/>
          <g id="Grupo_1179060" data-name="Grupo 1179060">
            <g id="Grupo_1179059" data-name="Grupo 1179059" clip-path="url(#clip-path)">
              <path id="Trazado_998449" data-name="Trazado 998449" d="M64,115.717a54.31,54.31,0,0,1-52.948-66.48H3.82A61.384,61.384,0,0,0,111.812,99.874h-9.469A54.154,54.154,0,0,1,64,115.717" fill="#19538d"/>
              <path id="Trazado_998450" data-name="Trazado 998450" d="M110.835,88.914h8.033c.645-1.284,1.231-2.6,1.787-3.934h-7.723c-.649,1.342-1.344,2.656-2.1,3.934" fill="#19538d"/>
              <path id="Trazado_998451" data-name="Trazado 998451" d="M125.388,61.388A61.4,61.4,0,0,0,5.373,43.131h7.452A54.33,54.33,0,1,1,114.406,81.649h7.526a61.118,61.118,0,0,0,3.456-20.261" fill="#19538d"/>
              <path id="Trazado_998452" data-name="Trazado 998452" d="M108.562,81.649V84.98h4.37q.792-1.637,1.475-3.331Z" fill="#19538d"/>
              <path id="Trazado_998453" data-name="Trazado 998453" d="M128,81.649h-6.068q-.592,1.689-1.277,3.331H128Z" fill="#19538d"/>
            </g>
          </g>
          <path id="Trazado_998444" data-name="Trazado 998444" d="M3,37.025,0,43.131H18.134l3-6.106Z" fill="#62249e"/>
        </g>
      </g>
    </g>
    <g id="Grupo_1185671" data-name="Grupo 1185671" transform="translate(413 3555)">
      <g id="Grupo_1099618" data-name="Grupo 1099618" transform="translate(0 0)">
        <rect id="Rectángulo_401104" data-name="Rectángulo 401104" width="68.18" height="69.001" transform="translate(0)" fill="none"/>
      </g>
      <path id="Trazado_1031881" data-name="Trazado 1031881" d="M137.511,34.38v-.663a46.119,46.119,0,0,1,1.342-11.549,37.847,37.847,0,0,1,3.558-9.121,29.384,29.384,0,0,1,4.84-6.528,17.837,17.837,0,0,1,5.216-3.739l1.658,4.583a16.719,16.719,0,0,0-3.377,3.483,25.361,25.361,0,0,0-3,5.428,37.724,37.724,0,0,0-2.156,7.538,53.591,53.591,0,0,0-.814,9.845v.784a53.591,53.591,0,0,0,.814,9.845,38.446,38.446,0,0,0,2.156,7.568,25.525,25.525,0,0,0,3,5.473,17.3,17.3,0,0,0,3.377,3.528l-1.658,4.463a17.953,17.953,0,0,1-5.216-3.724,29.042,29.042,0,0,1-4.84-6.513,37.805,37.805,0,0,1-3.558-9.136A46.3,46.3,0,0,1,137.511,34.38Zm51.78-.663v.663A43.626,43.626,0,0,1,187.9,45.7a38.7,38.7,0,0,1-3.664,9.166,30.264,30.264,0,0,1-4.975,6.649,17.82,17.82,0,0,1-5.382,3.8l-1.689-4.463a16.3,16.3,0,0,0,3.362-3.5,26.434,26.434,0,0,0,3-5.473,37.09,37.09,0,0,0,2.156-7.583,54.828,54.828,0,0,0,.8-9.86v-.784a53.836,53.836,0,0,0-.814-9.86,37.021,37.021,0,0,0-2.186-7.583,26.5,26.5,0,0,0-3.015-5.458,17.329,17.329,0,0,0-3.3-3.483l1.689-4.493a17.713,17.713,0,0,1,5.382,3.814,30.75,30.75,0,0,1,4.975,6.649,38.4,38.4,0,0,1,3.664,9.151A43.626,43.626,0,0,1,189.29,33.716Z" transform="translate(-129.587 -0.075)" fill="#19538d"/>
    </g>
  </g>
</svg>
