<svg xmlns="http://www.w3.org/2000/svg" width="98" height="98" viewBox="0 0 98 98">
  <g id="Grupo_1185710" data-name="Grupo 1185710" transform="translate(-8883 5160)">
    <g id="Grupo_1185702" data-name="Grupo 1185702" transform="translate(8593.391 -16771.898)">
      <g id="Grupo_1177473" data-name="Grupo 1177473" transform="translate(289.609 11611.898)">
        <ellipse id="Elipse_13609" data-name="Elipse 13609" cx="49" cy="49" rx="49" ry="49" transform="translate(0)" fill="#7a4f1e"/>
      </g>
    </g>
    <g id="Grupo_1185716" data-name="Grupo 1185716" transform="translate(8289.42 -11671.134)">
      <g id="Grupo_1179969" data-name="Grupo 1179969" transform="translate(612.581 6530.134)">
        <rect id="Rectángulo_456311" data-name="Rectángulo 456311" width="59.051" height="59.477" fill="none"/>
        <g id="error-404" transform="translate(4.384 4.467)">
          <path id="Trazado_1031200" data-name="Trazado 1031200" d="M44.563,26.545l-4.03,5.809h4.03Z" transform="translate(-6.355 -6.722)" fill="#fff"/>
          <path id="Trazado_1031201" data-name="Trazado 1031201" d="M40.13,52.944a2.6,2.6,0,0,1-2.137-2.566v-2.6a2.6,2.6,0,0,1,2.146-2.566,2.6,2.6,0,0,1,.292-3.324l1.844-1.844a2.615,2.615,0,0,1,1.835-.767,2.554,2.554,0,0,1,1.488.475A2.594,2.594,0,0,1,48.157,37.6h2.611a2.453,2.453,0,0,1,.639.082V16.265H2.5V55.611a2.274,2.274,0,0,0,2.274,2.274H42.048l-1.616-1.625a2.58,2.58,0,0,1-.3-3.315ZM34.058,31.422,41.2,21.2h2.21V31.313h2.164v2.164H43.408v2.977h-2.7V33.477H34.058ZM22.644,23.04a4.784,4.784,0,0,1,4.155-2,4.793,4.793,0,0,1,4.146,1.991A9.8,9.8,0,0,1,32.369,28.8a10.045,10.045,0,0,1-1.424,5.835A4.771,4.771,0,0,1,26.8,36.655a4.791,4.791,0,0,1-4.155-2.009A10.018,10.018,0,0,1,21.22,28.8,9.83,9.83,0,0,1,22.644,23.04ZM17.686,36.454h-2.7V33.477H8.336V31.422L15.476,21.2h2.21V31.313H19.85v2.164H17.686Zm17.932,10.6a1.22,1.22,0,0,1-1.226,1.219H19.518a1.22,1.22,0,0,1-1.226-1.219v-3.78a1.226,1.226,0,0,1,1.226-1.226H34.393a1.226,1.226,0,0,1,1.226,1.226Z" transform="translate(-2.5 -5.68)" fill="#fff"/>
          <path id="Trazado_1031202" data-name="Trazado 1031202" d="M29.216,35.269a2.252,2.252,0,0,0,2.154-1.361,10.285,10.285,0,0,0,.675-4.32,10,10,0,0,0-.675-4.256,2.4,2.4,0,0,0-4.309,0,10,10,0,0,0-.675,4.256,10.284,10.284,0,0,0,.675,4.32A2.252,2.252,0,0,0,29.216,35.269Z" transform="translate(-4.921 -6.463)" fill="#fff"/>
          <path id="Trazado_1031203" data-name="Trazado 1031203" d="M15.936,32.355V26.545l-4.03,5.809Z" transform="translate(-3.453 -6.722)" fill="#fff"/>
          <path id="Trazado_1031204" data-name="Trazado 1031204" d="M51.41,6.759a2.277,2.277,0,0,0-2.273-2.273H4.773A2.273,2.273,0,0,0,2.5,6.759V13.24H51.41ZM24.7,10.149H7.462a1.286,1.286,0,0,1,0-2.572H24.7a1.286,1.286,0,0,1,0,2.572ZM38.83,9.776H38.2a.913.913,0,0,1,0-1.826h.63a.913.913,0,0,1,0,1.826Zm4.162,0h-.631a.913.913,0,0,1,0-1.826h.631a.913.913,0,1,1,0,1.826Zm4.162,0h-.631a.913.913,0,1,1,0-1.826h.631a.913.913,0,0,1,0,1.826Z" transform="translate(-2.5 -4.486)" fill="#fff"/>
          <path id="Trazado_1031205" data-name="Trazado 1031205" d="M62.675,49.622l-2.84-.484,1.671-2.356a.777.777,0,0,0-.091-1l-1.844-1.844a.775.775,0,0,0-1-.082l-2.347,1.662-.484-2.84a.783.783,0,0,0-.767-.639H52.366a.773.773,0,0,0-.758.639l-.484,2.84-2.356-1.662a.776.776,0,0,0-1,.082l-1.844,1.844a.776.776,0,0,0-.082,1l1.662,2.356-2.84.484a.776.776,0,0,0-.639.767v2.6a.776.776,0,0,0,.639.767l2.84.484-1.662,2.347a.775.775,0,0,0,.082,1l1.844,1.844a.777.777,0,0,0,1,.091l2.356-1.671.484,2.84a.773.773,0,0,0,.758.648h2.611a.782.782,0,0,0,.767-.648l.484-2.84,2.347,1.671a.776.776,0,0,0,1-.091l1.844-1.844a.776.776,0,0,0,.091-1l-1.671-2.347,2.84-.484a.775.775,0,0,0,.648-.767v-2.6A.775.775,0,0,0,62.675,49.622Zm-9,6.017a3.949,3.949,0,1,1,3.954-3.954A3.948,3.948,0,0,1,53.672,55.64Z" transform="translate(-6.71 -8.293)" fill="#fff"/>
        </g>
      </g>
    </g>
  </g>
</svg>
