<svg xmlns="http://www.w3.org/2000/svg" width="98" height="98" viewBox="0 0 98 98">
  <g id="Grupo_1185711" data-name="Grupo 1185711" transform="translate(-8883 5160)">
    <g id="Grupo_1185702" data-name="Grupo 1185702" transform="translate(8593.391 -16771.898)">
      <g id="Grupo_1177473" data-name="Grupo 1177473" transform="translate(289.609 11611.898)">
        <ellipse id="Elipse_13609" data-name="Elipse 13609" cx="49" cy="49" rx="49" ry="49" transform="translate(0)" fill="#19538d"/>
      </g>
    </g>
    <g id="Grupo_1185712" data-name="Grupo 1185712" transform="translate(8899.904 -5143)">
      <rect id="Rectángulo_456311" data-name="Rectángulo 456311" width="64.131" height="64.594" transform="translate(0.36)" fill="none"/>
      <path id="error-humano" d="M44.5,51.51v2.25a3.751,3.751,0,0,1-3.75,3.75H27.25a3.751,3.751,0,0,1-3.75-3.75V51.51H5.5A1.5,1.5,0,0,0,4,53.01v1.5a7.545,7.545,0,0,0,2.19,5.3,7.456,7.456,0,0,0,5.295,2.19h45.03a7.545,7.545,0,0,0,5.3-2.19A7.456,7.456,0,0,0,64,54.51v-1.5a1.5,1.5,0,0,0-1.5-1.5Zm-3,0v2.25a.743.743,0,0,1-.75.75H27.25a.743.743,0,0,1-.75-.75V51.51Zm4.545-43.5L43.36,12.495H11.5A1.517,1.517,0,0,0,10,14.01v34.5H5.5V14.01a6,6,0,0,1,6-6Zm-4.5,7.5-.99,1.665a3.854,3.854,0,0,0,3.3,5.835h11.16V48.525h-7.47c-.06-2.445-.645-7.05-3.96-10.185a11.5,11.5,0,0,0-4.26-2.535,7.5,7.5,0,1,0-10.62,0,11.3,11.3,0,0,0-4.26,2.535c-3.315,3.135-3.9,7.74-3.96,10.185h-7.47V15.51Zm-18.1,33H26.5V43.995a1.5,1.5,0,1,1,3,0V48.51h9V43.995a1.5,1.5,0,0,1,3,0V48.51h3.06c-.03-1.92-.45-5.55-3.045-8.01-1.575-1.485-3.96-2.505-7.515-2.505s-5.94,1.02-7.515,2.505C23.89,42.96,23.47,46.575,23.44,48.51ZM62.5,22.2V48.51H58V23h2.16A3.866,3.866,0,0,0,62.5,22.2ZM34,25.995a4.5,4.5,0,1,1-4.5,4.5A4.494,4.494,0,0,1,34,25.995ZM21.745,22.11l1.065-1.065a1.512,1.512,0,0,0,0-2.13,1.494,1.494,0,0,0-2.115,0L19.63,19.98l-1.065-1.065a1.506,1.506,0,0,0-2.13,2.13L17.5,22.11l-1.065,1.065a1.494,1.494,0,0,0,0,2.115,1.512,1.512,0,0,0,2.13,0l1.065-1.065,1.065,1.065a1.5,1.5,0,1,0,2.115-2.115ZM60.175,20H43.84a.828.828,0,0,1-.585-.24.793.793,0,0,1-.24-.585.916.916,0,0,1,.12-.45l7.9-13.17A1.113,1.113,0,0,1,52,5.01a1.152,1.152,0,0,1,.975.54L60.88,18.72a.9.9,0,0,1,.12.435.838.838,0,0,1-.24.6.793.793,0,0,1-.585.24Zm-8.16-4.5a1.5,1.5,0,1,1-1.5,1.5A1.5,1.5,0,0,1,52.015,15.495Zm-1.5-6v3a1.5,1.5,0,1,0,3,0v-3a1.5,1.5,0,1,0-3,0Z" transform="translate(-3.904 -2.879)" fill="#fff" fill-rule="evenodd"/>
    </g>
  </g>
</svg>
