<svg xmlns="http://www.w3.org/2000/svg" width="98" height="98" viewBox="0 0 98 98">
  <g id="Grupo_1185708" data-name="Grupo 1185708" transform="translate(-1214 -524)">
    <g id="Grupo_1185695" data-name="Grupo 1185695" transform="translate(924.391 -11087.898)">
      <g id="Grupo_1177473" data-name="Grupo 1177473" transform="translate(289.609 11611.898)">
        <ellipse id="Elipse_13609" data-name="Elipse 13609" cx="49" cy="49" rx="49" ry="49" transform="translate(0)" fill="#786416"/>
      </g>
    </g>
    <g id="Grupo_1179969" data-name="Grupo 1179969" transform="translate(1234 543)">
      <rect id="Rectángulo_456311" data-name="Rectángulo 456311" width="58.996" height="59.423" transform="translate(0 0)" fill="none"/>
      <g id="Grupo_1185493" data-name="Grupo 1185493" transform="translate(2.367 2.871)">
        <g id="Grupo_1185247" data-name="Grupo 1185247">
          <rect id="Rectángulo_458976" data-name="Rectángulo 458976" width="29.023" height="3.958" rx="1.979" transform="translate(17.516 19.788)" fill="#fff"/>
          <g id="Grupo_1185493-2" data-name="Grupo 1185493" transform="translate(0)">
            <g id="Icons">
              <path id="Trazado_1031386" data-name="Trazado 1031386" d="M51.55,0H2.713A2.713,2.713,0,0,0,0,2.713V37.08a2.713,2.713,0,0,0,2.713,2.713H19.9v2.279l-4.1,3.287a.9.9,0,0,0-.421.765v1.809a2.713,2.713,0,0,0,2.713,2.713h6.421a4.53,4.53,0,0,0,4.431,3.618h20.8a4.527,4.527,0,0,0,4.522-4.522V2.713A2.713,2.713,0,0,0,51.55,0ZM1.809,37.08V2.713a.9.9,0,0,1,.9-.9H51.55a.9.9,0,0,1,.9.9V28.059a4.48,4.48,0,0,0-1.809-.837V5.426a1.809,1.809,0,0,0-1.809-1.809H5.426A1.809,1.809,0,0,0,3.618,5.426V30.749a1.809,1.809,0,0,0,1.809,1.809H24.418v5.426H2.713A.9.9,0,0,1,1.809,37.08Zm22.61,2.713V41.6H21.705V39.793Zm-3.3,3.618h3.3v1.809H18.862Zm-3.935,4.522v-.9h7.235v1.809H18.088A.9.9,0,0,1,17.183,47.932Zm7.326-17.183H5.426V5.426H48.837V27.132H28.94a4.53,4.53,0,0,0-4.431,3.618ZM52.454,49.741a2.713,2.713,0,0,1-2.713,2.713H28.94a2.713,2.713,0,0,1-2.713-2.713V31.654A2.713,2.713,0,0,1,28.94,28.94h20.8a2.713,2.713,0,0,1,2.713,2.713Z" transform="translate(0)" fill="#fff"/>
              <path id="Trazado_1031387" data-name="Trazado 1031387" d="M8.9,11.618a.9.9,0,0,0,.639-.265l1.809-1.809a.9.9,0,1,0-1.279-1.279L8.265,10.074A.9.9,0,0,0,8.9,11.618Z" transform="translate(-0.765 -0.765)" fill="#fff"/>
              <path id="Trazado_1031388" data-name="Trazado 1031388" d="M14.6,8.265,8.265,14.6a.9.9,0,1,0,1.279,1.279l6.331-6.331A.9.9,0,1,0,14.6,8.265Z" transform="translate(-0.765 -0.765)" fill="#fff"/>
              <path id="Trazado_1031389" data-name="Trazado 1031389" d="M35.522,34H32.809A1.809,1.809,0,0,0,31,35.809V52.088A1.809,1.809,0,0,0,32.809,53.9h2.713a1.809,1.809,0,0,0,1.809-1.809V35.809A1.809,1.809,0,0,0,35.522,34Zm0,1.809v9.044H32.809V35.809Zm0,10.853V48.47H32.809V46.661Zm-2.713,5.426V50.279h2.713v1.809Z" transform="translate(-2.964 -3.251)" fill="#fff"/>
              <path id="Trazado_1031390" data-name="Trazado 1031390" d="M44.522,34H41.809A1.809,1.809,0,0,0,40,35.809V52.088A1.809,1.809,0,0,0,41.809,53.9h2.713a1.809,1.809,0,0,0,1.809-1.809V35.809A1.809,1.809,0,0,0,44.522,34Zm0,1.809v2.713H41.809V35.809Zm0,4.522v1.809H41.809V40.331ZM41.809,52.088V43.948h2.713v8.139Z" transform="translate(-3.825 -3.251)" fill="#fff"/>
              <path id="Trazado_1031391" data-name="Trazado 1031391" d="M53.522,34H50.809A1.809,1.809,0,0,0,49,35.809V52.088A1.809,1.809,0,0,0,50.809,53.9h2.713a1.809,1.809,0,0,0,1.809-1.809V35.809A1.809,1.809,0,0,0,53.522,34Zm0,1.809v9.044H50.809V35.809Zm0,10.853V48.47H50.809V46.661Zm-2.713,5.426V50.279h2.713v1.809Z" transform="translate(-4.685 -3.251)" fill="#fff"/>
            </g>
            <rect id="Rectángulo_458977" data-name="Rectángulo 458977" width="29.023" height="3.958" rx="1.979" transform="translate(17.516 19.788)" fill="#fff"/>
            <rect id="Rectángulo_458978" data-name="Rectángulo 458978" width="29.023" height="3.958" rx="1.979" transform="translate(17.516 10.554)" fill="#fff"/>
          </g>
        </g>
      </g>
    </g>
  </g>
</svg>
