<svg xmlns="http://www.w3.org/2000/svg" xmlns:xlink="http://www.w3.org/1999/xlink" width="96" height="96" viewBox="0 0 96 96">
  <defs>
    <clipPath id="clip-path">
      <rect id="Rectángulo_455533" data-name="Rectángulo 455533" width="95.999" height="92.163" fill="#19538d"/>
    </clipPath>
  </defs>
  <g id="Grupo_1185639" data-name="Grupo 1185639" transform="translate(-963 -4372)">
    <g id="Grupo_1185627" data-name="Grupo 1185627" transform="translate(579.255 -4027)">
      <circle id="Elipse_13674" data-name="Elipse 13674" cx="41.5" cy="41.5" r="41.5" transform="translate(389.746 8406)" fill="#19538d"/>
      <g id="Grupo_1179062" data-name="Grupo 1179062" transform="translate(383.745 8399)">
        <rect id="Rectángulo_455531" data-name="Rectángulo 455531" width="96" height="96" transform="translate(0 0)" fill="none"/>
        <g id="Grupo_1179061" data-name="Grupo 1179061" transform="translate(0 2.203)">
          <path id="Trazado_998445" data-name="Trazado 998445" d="M114.467,95.838H96.727l2.4-4.484h17.739Z" transform="translate(-23.693 -22.7)" fill="#19538d"/>
          <path id="Trazado_998446" data-name="Trazado 998446" d="M1.458,86.893,0,89.861H19.558l1.458-2.968Z" transform="translate(0 -21.618)" fill="#19538d"/>
          <path id="Trazado_998447" data-name="Trazado 998447" d="M117.539,31.293H98.809l1.469-3.326h18.73Z" transform="translate(-24.246 -6.956)" fill="#19538d"/>
          <path id="Trazado_998448" data-name="Trazado 998448" d="M28.088,11.547H3.483L4.952,8.221H29.557Z" transform="translate(-0.925 -2.184)" fill="#19538d"/>
          <g id="Grupo_1179060" data-name="Grupo 1179060" transform="translate(0)">
            <g id="Grupo_1179059" data-name="Grupo 1179059" clip-path="url(#clip-path)">
              <path id="Trazado_998449" data-name="Trazado 998449" d="M48.653,99.141a40.772,40.772,0,0,1-39.711-49.9H3.518A46.036,46.036,0,0,0,84.512,87.248h-7.1A40.6,40.6,0,0,1,48.653,99.141" transform="translate(-0.653 -12.277)" fill="#19538d"/>
              <path id="Trazado_998450" data-name="Trazado 998450" d="M110.835,87.933h6.025c.484-.964.923-1.952,1.34-2.953h-5.792c-.487,1.007-1.008,1.994-1.573,2.953" transform="translate(-27.709 -21.189)" fill="#19538d"/>
              <path id="Trazado_998451" data-name="Trazado 998451" d="M95.384,46.081a46.043,46.043,0,0,0-90.011-13.7h5.589A40.752,40.752,0,1,1,87.147,61.291h5.644a45.915,45.915,0,0,0,2.592-15.209" transform="translate(-1.343)" fill="#19538d"/>
              <path id="Trazado_998452" data-name="Trazado 998452" d="M108.562,81.649v2.5h3.277q.594-1.228,1.106-2.5Z" transform="translate(-27.141 -20.358)" fill="#19538d"/>
              <path id="Trazado_998453" data-name="Trazado 998453" d="M126.164,81.649h-4.551q-.444,1.268-.958,2.5h5.509Z" transform="translate(-30.164 -20.358)" fill="#19538d"/>
            </g>
          </g>
          <path id="Trazado_998444" data-name="Trazado 998444" d="M2.2,37.025,0,41.509H13.317l2.2-4.484Z" transform="translate(0 -9.2)" fill="#19538d"/>
        </g>
      </g>
    </g>
    <g id="_x35_4" transform="translate(986.719 4395.719)">
      <path id="Trazado_1030416" data-name="Trazado 1030416" d="M1,15.4H47.563V7.791A6.8,6.8,0,0,0,40.773,1H7.791A6.8,6.8,0,0,0,1,7.791ZM21.6,6.277a1.98,1.98,0,0,1,2.115.427,1.921,1.921,0,0,1,0,2.736,1.9,1.9,0,0,1-2.736,0A1.94,1.94,0,0,1,21.6,6.277ZM13.223,6.7a1.933,1.933,0,0,1,2.736,0,1.934,1.934,0,1,1-2.736,0Zm-7.78,0a2.007,2.007,0,0,1,2.736,0,1.934,1.934,0,1,1-2.736,0Z" fill="#fff"/>
      <path id="Trazado_1030417" data-name="Trazado 1030417" d="M1,31.917a6.8,6.8,0,0,0,6.791,6.791H40.773a6.8,6.8,0,0,0,6.791-6.791V10.42H1ZM30.432,20.509a1.617,1.617,0,0,1,0-2.328,1.651,1.651,0,0,1,2.328,0l2.93,2.93a1.651,1.651,0,0,1,0,2.328l-2.93,2.949a1.639,1.639,0,0,1-2.328,0,1.617,1.617,0,0,1,0-2.328L32.2,22.274Zm-9.216,8.847,3.861-13.794a1.65,1.65,0,0,1,3.182.873L24.4,30.248a1.652,1.652,0,0,1-3.182-.893Zm-8.323-6.965,2.93-2.93a1.646,1.646,0,0,1,2.328,2.328l-1.766,1.766,1.766,1.785a1.646,1.646,0,0,1-2.328,2.328l-2.93-2.949a1.617,1.617,0,0,1,0-2.328Z" transform="translate(0 8.856)" fill="#fff"/>
    </g>
  </g>
</svg>
