<svg xmlns="http://www.w3.org/2000/svg" xmlns:xlink="http://www.w3.org/1999/xlink" width="150.021" height="150" viewBox="0 0 150.021 150">
  <defs>
    <clipPath id="clip-path">
      <rect id="Rectángulo_455533" data-name="Rectángulo 455533" width="150.021" height="143.8" fill="#19538d"/>
    </clipPath>
  </defs>
  <g id="Grupo_1185664" data-name="Grupo 1185664" transform="translate(-383.737 -8399.002)">
    <circle id="Elipse_13674" data-name="Elipse 13674" cx="65" cy="65" r="65" transform="translate(392.747 8410.002)" fill="#19538d"/>
    <g id="Grupo_1179062" data-name="Grupo 1179062" transform="translate(383.649 8398.903)">
      <rect id="Rectángulo_455531" data-name="Rectángulo 455531" width="150" height="150" transform="translate(0.098 0.099)" fill="none"/>
      <g id="Grupo_1179061" data-name="Grupo 1179061" transform="translate(0.088 3.661)">
        <path id="Trazado_998445" data-name="Trazado 998445" d="M125.49,98.624H96.727l3.9-7.27h28.763Z" transform="translate(16.057 15.55)" fill="#19538d"/>
        <path id="Trazado_998446" data-name="Trazado 998446" d="M2.364,86.893,0,91.7H31.711l2.365-4.812Z" transform="translate(0 14.822)" fill="#19538d"/>
        <path id="Trazado_998447" data-name="Trazado 998447" d="M129.178,33.359H98.809l2.381-5.393H131.56Z" transform="translate(16.454 4.768)" fill="#19538d"/>
        <path id="Trazado_998448" data-name="Trazado 998448" d="M43.378,13.613H3.483L5.864,8.221H45.759Z" transform="translate(0.665 1.568)" fill="#19538d"/>
        <g id="Grupo_1179060" data-name="Grupo 1179060" transform="translate(0)">
          <g id="Grupo_1179059" data-name="Grupo 1179059" clip-path="url(#clip-path)">
            <path id="Trazado_998449" data-name="Trazado 998449" d="M74.561,127.1A63.606,63.606,0,0,1,12.5,49.237H4.028A71.946,71.946,0,0,0,130.6,108.545H119.5A63.492,63.492,0,0,1,74.561,127.1" transform="translate(0.449 8.431)" fill="#19538d"/>
            <path id="Trazado_998450" data-name="Trazado 998450" d="M110.835,89.588h9.415c.756-1.5,1.443-3.046,2.094-4.608h-9.052c-.761,1.572-1.575,3.111-2.458,4.608" transform="translate(19.068 14.552)" fill="#19538d"/>
            <path id="Trazado_998451" data-name="Trazado 998451" d="M146.035,71.9A71.966,71.966,0,0,0,5.373,50.517h8.734A63.672,63.672,0,1,1,133.164,95.631h8.821a71.54,71.54,0,0,0,4.051-23.73" transform="translate(0.924)" fill="#19538d"/>
            <path id="Trazado_998452" data-name="Trazado 998452" d="M108.562,81.649v3.9h5.122q.928-1.917,1.729-3.9Z" transform="translate(18.677 13.982)" fill="#19538d"/>
            <path id="Trazado_998453" data-name="Trazado 998453" d="M129.264,81.649h-7.112q-.694,1.978-1.5,3.9h8.609Z" transform="translate(20.757 13.982)" fill="#19538d"/>
          </g>
        </g>
        <path id="Trazado_998444" data-name="Trazado 998444" d="M3.572,37.025,0,44.3H21.592l3.572-7.27Z" transform="translate(0 6.302)" fill="#19538d"/>
      </g>
    </g>
    <g id="Grupo_1185666" data-name="Grupo 1185666" transform="translate(413.811 8427.354)">
      <g id="precios" transform="translate(2.939 5.682)">
        <path id="Trazado_1030472" data-name="Trazado 1030472" d="M28.39,257.09a1.4,1.4,0,0,0,1.978,0l6.994-6.994-1.978-1.978-6.005,6.005-26-26,15.8-15.8L17.2,210.347.412,227.134a1.4,1.4,0,0,0,0,1.978Zm0,0" transform="translate(-0.002 -173.566)" fill="#fff"/>
        <path id="Trazado_1030473" data-name="Trazado 1030473" d="M290.493,29.229l-2.8-25.18a1.4,1.4,0,0,0-1.237-1.237l-25.18-2.8a1.414,1.414,0,0,0-1.143.4l-9.792,9.792,1.978,1.978,9.317-9.317,23.408,2.6,2.6,23.4-5.489,5.49L279.5,16.479a4.216,4.216,0,1,0-2.813.107l2.164,14.548L259.316,11.607a1.4,1.4,0,0,0-1.978,0L250.344,18.6l1.978,1.978,6.005-6.005,17.607,17.606-3.208,3.208,1.978,1.978,4.2-4.2a1.358,1.358,0,0,0,.2-.3l.587,3.949-2.764,2.764,1.978,1.978,1.3-1.3.889,5.962a4.726,4.726,0,1,0,9.318-1.532l-2.574-12.063,2.261-2.26a1.4,1.4,0,0,0,.4-1.143ZM277.912,11.2a1.4,1.4,0,1,1-1.4,1.4A1.4,1.4,0,0,1,277.912,11.2Zm9.755,34.066a1.928,1.928,0,1,1-3.808.585L282.668,37.8l2.814-2.813Zm0,0" transform="translate(-206.568 -0.006)" fill="#fff"/>
        <path id="Trazado_1030474" data-name="Trazado 1030474" d="M58.352,268.244l9.092-9.092,1.978,1.978-9.092,9.092Zm0,0" transform="translate(-48.148 -213.837)" fill="#fff"/>
        <path id="Trazado_1030475" data-name="Trazado 1030475" d="M83.137,293.041l9.092-9.092,1.979,1.978-9.093,9.092Zm0,0" transform="translate(-68.599 -234.298)" fill="#fff"/>
        <path id="Trazado_1030476" data-name="Trazado 1030476" d="M107.941,335.659l5.316-5.316,1.979,1.978-5.316,5.316Zm0,0" transform="translate(-89.066 -272.58)" fill="#fff"/>
        <path id="Trazado_1030477" data-name="Trazado 1030477" d="M132.742,367.723l3.778-3.777,1.978,1.978-3.777,3.778Zm0,0" transform="translate(-109.531 -300.306)" fill="#fff"/>
        <path id="Trazado_1030478" data-name="Trazado 1030478" d="M157.543,397.149l2.8-2.8,1.978,1.978-2.8,2.8Zm0,0" transform="translate(-129.995 -325.396)" fill="#fff"/>
        <path id="Trazado_1030479" data-name="Trazado 1030479" d="M182.368,228.976A22.238,22.238,0,0,0,195.6,224.6l10.089,10.089a4.366,4.366,0,1,0,6.175-6.175l-10.322-10.322-.179.179a22.36,22.36,0,1,0-19,10.6Zm27.519,1.519a1.569,1.569,0,1,1-2.219,2.219l-9.912-9.911a22.54,22.54,0,0,0,2.125-2.312Zm-27.519-43.486a19.585,19.585,0,1,1-19.585,19.585A19.585,19.585,0,0,1,182.368,187.009Zm0,0" transform="translate(-132.008 -152.036)" fill="#fff"/>
        <path id="Trazado_1030480" data-name="Trazado 1030480" d="M208.787,249.577A16.787,16.787,0,1,0,192,232.791,16.787,16.787,0,0,0,208.787,249.577Zm0-30.776A13.989,13.989,0,1,1,194.8,232.791,13.989,13.989,0,0,1,208.787,218.8Zm0,0" transform="translate(-158.427 -178.234)" fill="#fff"/>
        <path id="Trazado_1030481" data-name="Trazado 1030481" d="M262.994,264.791h-2.8a1.4,1.4,0,0,1-1.4-1.4H256a4.2,4.2,0,0,0,4.2,4.2v2.8h2.8v-2.8a4.2,4.2,0,0,0,4.2-4.2v-1.4a4.2,4.2,0,0,0-4.2-4.2h-2.8a1.4,1.4,0,0,1-1.4-1.4V255a1.4,1.4,0,0,1,1.4-1.4h2.8a1.4,1.4,0,0,1,1.4,1.4h2.8a4.2,4.2,0,0,0-4.2-4.2V248h-2.8v2.8A4.2,4.2,0,0,0,256,255v1.4a4.2,4.2,0,0,0,4.2,4.2h2.8a1.4,1.4,0,0,1,1.4,1.4v1.4A1.4,1.4,0,0,1,262.994,264.791Zm0,0" transform="translate(-211.235 -204.638)" fill="#fff"/>
        <path id="Trazado_1030482" data-name="Trazado 1030482" d="M6.995,33.577h9.345l9.427,6.733a1.394,1.394,0,0,0,.813.262,1.414,1.414,0,0,0,.76-.224,1.4,1.4,0,0,0,.611-1.455l-1.063-5.316h8.085a7,7,0,0,0,6.994-6.994V7A7,7,0,0,0,34.972,0H6.995A7,7,0,0,0,0,7V26.583a7,7,0,0,0,6.994,6.994ZM2.8,7a4.2,4.2,0,0,1,4.2-4.2H34.972a4.2,4.2,0,0,1,4.2,4.2V26.583a4.2,4.2,0,0,1-4.2,4.2H25.18a1.4,1.4,0,0,0-1.371,1.678l.7,3.527L17.6,31.047a1.389,1.389,0,0,0-.809-.267H6.995a4.2,4.2,0,0,1-4.2-4.2Zm0,0" transform="translate(0 -0.004)" fill="#fff"/>
        <path id="Trazado_1030483" data-name="Trazado 1030483" d="M33.4,60.988H62.776v-2.8H34.8V54.459l2.8-3.729,3.078,4.1a1.488,1.488,0,0,0,1.156.559,1.4,1.4,0,0,0,1.126-.623l4.556-6.835,5.794,6.956a1.408,1.408,0,0,0,1.076.5,1.059,1.059,0,0,0,.132,0,1.4,1.4,0,0,0,1.091-.714L62.6,42.088l-2.445-1.357-6,10.805L48.464,44.71a1.374,1.374,0,0,0-1.152-.509,1.4,1.4,0,0,0-1.088.621l-4.5,6.751-3.011-4.015a1.448,1.448,0,0,0-2.238,0L34.8,49.8V40H32V59.589a1.4,1.4,0,0,0,1.4,1.4Zm0,0" transform="translate(-26.404 -33.01)" fill="#fff"/>
      </g>
    </g>
  </g>
</svg>
