<svg xmlns="http://www.w3.org/2000/svg" xmlns:xlink="http://www.w3.org/1999/xlink" width="96" height="96" viewBox="0 0 96 96">
  <defs>
    <clipPath id="clip-path">
      <rect id="Rectángulo_455533" data-name="Rectángulo 455533" width="95.999" height="92.163" fill="#19538d"/>
    </clipPath>
  </defs>
  <g id="Grupo_1185640" data-name="Grupo 1185640" transform="translate(-963 -4372)">
    <g id="Grupo_1185644" data-name="Grupo 1185644">
      <g id="Grupo_1185627" data-name="Grupo 1185627" transform="translate(579.255 -4027)">
        <circle id="Elipse_13674" data-name="Elipse 13674" cx="41.5" cy="41.5" r="41.5" transform="translate(389.746 8406)" fill="#19538d"/>
        <g id="Grupo_1179062" data-name="Grupo 1179062" transform="translate(383.745 8399)">
          <rect id="Rectángulo_455531" data-name="Rectángulo 455531" width="96" height="96" transform="translate(0 0)" fill="none"/>
          <g id="Grupo_1179061" data-name="Grupo 1179061" transform="translate(0 2.203)">
            <path id="Trazado_998445" data-name="Trazado 998445" d="M114.467,95.838H96.727l2.4-4.484h17.739Z" transform="translate(-23.693 -22.7)" fill="#19538d"/>
            <path id="Trazado_998446" data-name="Trazado 998446" d="M1.458,86.893,0,89.861H19.558l1.458-2.968Z" transform="translate(0 -21.618)" fill="#19538d"/>
            <path id="Trazado_998447" data-name="Trazado 998447" d="M117.539,31.293H98.809l1.469-3.326h18.73Z" transform="translate(-24.246 -6.956)" fill="#19538d"/>
            <path id="Trazado_998448" data-name="Trazado 998448" d="M28.088,11.547H3.483L4.952,8.221H29.557Z" transform="translate(-0.925 -2.184)" fill="#19538d"/>
            <g id="Grupo_1179060" data-name="Grupo 1179060" transform="translate(0)">
              <g id="Grupo_1179059" data-name="Grupo 1179059" clip-path="url(#clip-path)">
                <path id="Trazado_998449" data-name="Trazado 998449" d="M48.653,99.141a40.772,40.772,0,0,1-39.711-49.9H3.518A46.036,46.036,0,0,0,84.512,87.248h-7.1A40.6,40.6,0,0,1,48.653,99.141" transform="translate(-0.653 -12.277)" fill="#19538d"/>
                <path id="Trazado_998450" data-name="Trazado 998450" d="M110.835,87.933h6.025c.484-.964.923-1.952,1.34-2.953h-5.792c-.487,1.007-1.008,1.994-1.573,2.953" transform="translate(-27.709 -21.189)" fill="#19538d"/>
                <path id="Trazado_998451" data-name="Trazado 998451" d="M95.384,46.081a46.043,46.043,0,0,0-90.011-13.7h5.589A40.752,40.752,0,1,1,87.147,61.291h5.644a45.915,45.915,0,0,0,2.592-15.209" transform="translate(-1.343)" fill="#19538d"/>
                <path id="Trazado_998452" data-name="Trazado 998452" d="M108.562,81.649v2.5h3.277q.594-1.228,1.106-2.5Z" transform="translate(-27.141 -20.358)" fill="#19538d"/>
                <path id="Trazado_998453" data-name="Trazado 998453" d="M126.164,81.649h-4.551q-.444,1.268-.958,2.5h5.509Z" transform="translate(-30.164 -20.358)" fill="#19538d"/>
              </g>
            </g>
            <path id="Trazado_998444" data-name="Trazado 998444" d="M2.2,37.025,0,41.509H13.317l2.2-4.484Z" transform="translate(0 -9.2)" fill="#19538d"/>
          </g>
        </g>
      </g>
      <g id="editor-de-texto" transform="translate(982.913 4387.436)">
        <g id="Grupo_1184674" data-name="Grupo 1184674" transform="translate(4.087 43.587)">
          <path id="Trazado_1030419" data-name="Trazado 1030419" d="M70.247,422h-7.4A1.85,1.85,0,0,0,61,423.849v7.4a1.85,1.85,0,0,0,1.849,1.849h7.4a1.85,1.85,0,0,0,1.849-1.849v-7.4A1.85,1.85,0,0,0,70.247,422ZM68.4,429.4H64.7v-3.7h3.7Z" transform="translate(-61 -422)" fill="#fff"/>
        </g>
        <g id="Grupo_1184675" data-name="Grupo 1184675" transform="translate(4.087 10.051)">
          <path id="Trazado_1030420" data-name="Trazado 1030420" d="M70.247,150h-7.4A1.85,1.85,0,0,0,61,151.849v7.4a1.85,1.85,0,0,0,1.849,1.849h7.4a1.85,1.85,0,0,0,1.849-1.849v-7.4A1.85,1.85,0,0,0,70.247,150ZM68.4,157.4H64.7v-3.7h3.7Z" transform="translate(-61 -150)" fill="#fff"/>
        </g>
        <g id="Grupo_1184676" data-name="Grupo 1184676" transform="translate(41.076 10.051)">
          <path id="Trazado_1030421" data-name="Trazado 1030421" d="M370.247,150h-7.4A1.85,1.85,0,0,0,361,151.849v7.4a1.85,1.85,0,0,0,1.849,1.849h7.4a1.85,1.85,0,0,0,1.849-1.849v-7.4A1.85,1.85,0,0,0,370.247,150Zm-1.849,7.4h-3.7v-3.7h3.7Z" transform="translate(-361 -150)" fill="#fff"/>
        </g>
        <g id="Grupo_1184677" data-name="Grupo 1184677" transform="translate(41.076 43.587)">
          <path id="Trazado_1030422" data-name="Trazado 1030422" d="M370.247,422h-7.4A1.85,1.85,0,0,0,361,423.849v7.4a1.85,1.85,0,0,0,1.849,1.849h7.4a1.85,1.85,0,0,0,1.849-1.849v-7.4A1.85,1.85,0,0,0,370.247,422Zm-1.849,7.4h-3.7v-3.7h3.7Z" transform="translate(-361 -422)" fill="#fff"/>
        </g>
        <g id="Grupo_1184678" data-name="Grupo 1184678" transform="translate(11.485 17.448)">
          <path id="Trazado_1030423" data-name="Trazado 1030423" d="M152.44,217.4a5.555,5.555,0,0,1-5.548-5.548V210H128.4v1.849a5.555,5.555,0,0,1-5.548,5.548H121V232.44h1.849a5.555,5.555,0,0,1,5.548,5.548v5.548h18.494v-5.548a5.555,5.555,0,0,1,5.548-5.548h1.849V217.4Zm-5.548,5.548a1.849,1.849,0,1,1-3.7,0V221.1h-3.7V232.44h1.849a1.849,1.849,0,1,1,0,3.7h-7.4a1.849,1.849,0,0,1,0-3.7H135.8V221.1h-3.7v1.849a1.849,1.849,0,1,1-3.7,0v-3.7a1.85,1.85,0,0,1,1.849-1.849h14.8a1.85,1.85,0,0,1,1.849,1.849Z" transform="translate(-121 -210)" fill="#fff"/>
        </g>
      </g>
    </g>
  </g>
</svg>
