<svg xmlns="http://www.w3.org/2000/svg" xmlns:xlink="http://www.w3.org/1999/xlink" width="96" height="96" viewBox="0 0 96 96">
  <defs>
    <clipPath id="clip-path">
      <rect id="Rectángulo_455533" data-name="Rectángulo 455533" width="95.999" height="92.163" fill="#19538d"/>
    </clipPath>
  </defs>
  <g id="Grupo_1185645" data-name="Grupo 1185645" transform="translate(3253 11097)">
    <g id="Grupo_1185643" data-name="Grupo 1185643" transform="translate(-4216 -15469)">
      <g id="Grupo_1185627" data-name="Grupo 1185627" transform="translate(579.255 -4027)">
        <circle id="Elipse_13674" data-name="Elipse 13674" cx="41.5" cy="41.5" r="41.5" transform="translate(389.746 8406)" fill="#19538d"/>
        <g id="Grupo_1179062" data-name="Grupo 1179062" transform="translate(383.745 8399)">
          <rect id="Rectángulo_455531" data-name="Rectángulo 455531" width="96" height="96" transform="translate(0 0)" fill="none"/>
          <g id="Grupo_1179061" data-name="Grupo 1179061" transform="translate(0 2.203)">
            <path id="Trazado_998445" data-name="Trazado 998445" d="M114.467,95.838H96.727l2.4-4.484h17.739Z" transform="translate(-23.693 -22.7)" fill="#19538d"/>
            <path id="Trazado_998446" data-name="Trazado 998446" d="M1.458,86.893,0,89.861H19.558l1.458-2.968Z" transform="translate(0 -21.618)" fill="#19538d"/>
            <path id="Trazado_998447" data-name="Trazado 998447" d="M117.539,31.293H98.809l1.469-3.326h18.73Z" transform="translate(-24.246 -6.956)" fill="#19538d"/>
            <path id="Trazado_998448" data-name="Trazado 998448" d="M28.088,11.547H3.483L4.952,8.221H29.557Z" transform="translate(-0.925 -2.184)" fill="#19538d"/>
            <g id="Grupo_1179060" data-name="Grupo 1179060" transform="translate(0)">
              <g id="Grupo_1179059" data-name="Grupo 1179059" clip-path="url(#clip-path)">
                <path id="Trazado_998449" data-name="Trazado 998449" d="M48.653,99.141a40.772,40.772,0,0,1-39.711-49.9H3.518A46.036,46.036,0,0,0,84.512,87.248h-7.1A40.6,40.6,0,0,1,48.653,99.141" transform="translate(-0.653 -12.277)" fill="#19538d"/>
                <path id="Trazado_998450" data-name="Trazado 998450" d="M110.835,87.933h6.025c.484-.964.923-1.952,1.34-2.953h-5.792c-.487,1.007-1.008,1.994-1.573,2.953" transform="translate(-27.709 -21.189)" fill="#19538d"/>
                <path id="Trazado_998451" data-name="Trazado 998451" d="M95.384,46.081a46.043,46.043,0,0,0-90.011-13.7h5.589A40.752,40.752,0,1,1,87.147,61.291h5.644a45.915,45.915,0,0,0,2.592-15.209" transform="translate(-1.343)" fill="#19538d"/>
                <path id="Trazado_998452" data-name="Trazado 998452" d="M108.562,81.649v2.5h3.277q.594-1.228,1.106-2.5Z" transform="translate(-27.141 -20.358)" fill="#19538d"/>
                <path id="Trazado_998453" data-name="Trazado 998453" d="M126.164,81.649h-4.551q-.444,1.268-.958,2.5h5.509Z" transform="translate(-30.164 -20.358)" fill="#19538d"/>
              </g>
            </g>
            <path id="Trazado_998444" data-name="Trazado 998444" d="M2.2,37.025,0,41.509H13.317l2.2-4.484Z" transform="translate(0 -9.2)" fill="#19538d"/>
          </g>
        </g>
      </g>
    </g>
    <g id="data-analytics" transform="translate(-3239 -11083)">
      <path id="Trazado_1030425" data-name="Trazado 1030425" d="M80,25h5.978v3.985H80Z" transform="translate(-28.154 -6.033)" fill="#fff"/>
      <path id="Trazado_1030426" data-name="Trazado 1030426" d="M83.333,48.333h3.985v3.985H83.333Z" transform="translate(-29.495 -15.418)" fill="#fff"/>
      <path id="Trazado_1030427" data-name="Trazado 1030427" d="M57.243,53.014l-8.453-8.453a32.28,32.28,0,0,0-3.012-2.594l-3.845-2.842A17.865,17.865,0,0,0,43.447,36.9h7.4V32.914h-5.7a17.7,17.7,0,0,0,0-9.963h3.7V18.967H43.447a17.932,17.932,0,1,0-4.321,22.966l2.842,3.843a32.152,32.152,0,0,0,2.6,3.012l8.453,8.456a2,2,0,0,0,2.819,0l1.408-1.411a2,2,0,0,0,0-2.819ZM34.907,18.967h3.7a13.979,13.979,0,0,1,2.343,3.985H34.907Zm-6.974,0h3.985v3.985H27.934Zm-9.963,0h6.974v3.985H17.971Zm0,6.974h3.985v3.985H17.971ZM28.93,36.9H17.971V32.915H28.93Zm9.673,0H31.919V32.915h9.027A13.971,13.971,0,0,1,38.6,36.9Zm3.119-6.974H24.945V25.941H41.722a12.52,12.52,0,0,1,0,3.985Z" transform="translate(0 0)" fill="#fff"/>
      <path id="Trazado_1030428" data-name="Trazado 1030428" d="M75,36.666h8.967v3.985H75Z" transform="translate(-26.143 -10.725)" fill="#fff"/>
    </g>
  </g>
</svg>
