<svg xmlns="http://www.w3.org/2000/svg" width="149.854" height="59.116" viewBox="0 0 149.854 59.116">
  <g id="Grupo_1185717" data-name="Grupo 1185717" transform="translate(-1174.479 -501.384)">
    <path id="Trazado_998133" data-name="Trazado 998133" d="M49.7-29.171h105.16L110.165,18.695H5Z" transform="translate(1169.474 541.806)" fill="#19538d"/>
    <path id="algoritmo_5_" data-name="algoritmo (5)" d="M12.119,9.071A6.071,6.071,0,0,1,18.19,3H42.474a6.071,6.071,0,0,1,6.071,6.071V23.237a6.071,6.071,0,0,1,6.071,6.071V37.4a4.047,4.047,0,0,1,4.047,4.047V45.5a4.047,4.047,0,0,1-4.047,4.047H50.569A4.047,4.047,0,0,1,46.522,45.5V41.451A4.047,4.047,0,0,1,50.569,37.4V29.308a2.024,2.024,0,0,0-2.024-2.024v6.071a6.071,6.071,0,0,1-6.071,6.071H32.356v4.047A4.047,4.047,0,0,1,36.4,47.522v4.047a4.047,4.047,0,0,1-4.047,4.047H28.308a4.047,4.047,0,0,1-4.047-4.047V47.522a4.047,4.047,0,0,1,4.047-4.047V39.427H18.19a6.071,6.071,0,0,1-6.071-6.071V27.285a2.024,2.024,0,0,0-2.024,2.024V37.4a4.047,4.047,0,0,1,4.047,4.047V45.5a4.047,4.047,0,0,1-4.047,4.047H6.047A4.047,4.047,0,0,1,2,45.5V41.451A4.047,4.047,0,0,1,6.047,37.4V29.308a6.071,6.071,0,0,1,6.071-6.071Zm6.071,2.024a2.024,2.024,0,0,1,2.024-2.024h2.024a2.024,2.024,0,0,1,0,4.047H20.213A2.024,2.024,0,0,1,18.19,11.095Zm16.366,6.8a2.024,2.024,0,0,0-3.778-1.453l-4.67,12.142a2.024,2.024,0,0,0,3.778,1.453Zm4.385.063a2.024,2.024,0,0,0-3.208,2.468L37.9,23.237l-2.164,2.814a2.024,2.024,0,0,0,3.208,2.468l3.113-4.047a2.024,2.024,0,0,0,0-2.468Zm-14.01,2.468a2.024,2.024,0,0,0-3.208-2.468L18.609,22a2.023,2.023,0,0,0,0,2.468l3.113,4.047a2.024,2.024,0,0,0,3.208-2.468l-2.164-2.814Z" transform="translate(1219.074 498.384)" fill="#fff" fill-rule="evenodd"/>
  </g>
</svg>
