<svg xmlns="http://www.w3.org/2000/svg" xmlns:xlink="http://www.w3.org/1999/xlink" width="129" height="127" viewBox="0 0 129 127">
  <defs>
    <clipPath id="clip-path">
      <rect id="Rectángulo_454807" data-name="Rectángulo 454807" width="129" height="127" transform="translate(399.059 5904)" fill="#9ecfff"/>
    </clipPath>
  </defs>
  <g id="Grupo_1185656" data-name="Grupo 1185656" transform="translate(-399.059 -4700)">
    <g id="Grupo_1177492" data-name="Grupo 1177492" transform="translate(0 -1204)">
      <g id="Grupo_1185661" data-name="Grupo 1185661">
        <rect id="Rectángulo_454806" data-name="Rectángulo 454806" width="129" height="127" transform="translate(399.059 5904)" fill="#9ecfff"/>
        <path id="Rectángulo_454808" data-name="Rectángulo 454808" d="M0,0H79A12,12,0,0,1,91,12V91a0,0,0,0,1,0,0H12A12,12,0,0,1,0,79V0A0,0,0,0,1,0,0Z" transform="translate(418.059 5922)" fill="#fff"/>
        <g id="Grupo_1185660" data-name="Grupo 1185660" transform="translate(17.672 -2495.148)">
          <g id="Grupo_1099776" data-name="Grupo 1099776" transform="translate(412.387 8428.148)">
            <g id="Grupo_1099618" data-name="Grupo 1099618" transform="translate(0 0.618)">
              <rect id="Rectángulo_401104" data-name="Rectángulo 401104" width="66.379" height="67.179" transform="translate(0)" fill="none"/>
            </g>
            <g id="OUTLINE" transform="translate(1.247 0)">
              <path id="Trazado_1030528" data-name="Trazado 1030528" d="M294.725,96.552l1.8-1.8,7.863-1.573-2.952-2.214A14.915,14.915,0,0,0,292.543,88h-.472L280,100.071v.472a14.916,14.916,0,0,0,2.965,8.894l2.214,2.953,1.573-7.864,2.94-2.94,10.6,10.6a3.559,3.559,0,1,0,5.033-5.033Zm-1.719-6.263a12.648,12.648,0,0,1,5.815,1.678l-3.42.684-2.288,2.288-2.378-2.378ZM284.651,103.4l-.684,3.42a12.649,12.649,0,0,1-1.678-5.815l3.412-3.412,2.378,2.378Zm2.663-7.42,1.808-1.808,2.378,2.378-1.808,1.808Zm16.4,14.587a1.28,1.28,0,0,1-1.808,0l-10.6-10.6,1.808-1.808,10.6,10.6A1.278,1.278,0,0,1,303.709,110.569Z" transform="translate(-249.213 -77.738)" fill="#19538d"/>
              <path id="Trazado_1030529" data-name="Trazado 1030529" d="M122.153,21.7h-3.421V19.421A3.425,3.425,0,0,0,115.311,16H67.421A3.425,3.425,0,0,0,64,19.421V70.928a3.4,3.4,0,0,0,1,2.419L75.068,83.413a3.4,3.4,0,0,0,2.419,1H108.47c1.714,0,10.262-.165,10.262-3.421V65.031c0-3.256-8.549-3.421-10.262-3.421s-10.262.165-10.262,3.421V80.994a1.781,1.781,0,0,0,.418,1.14H77.683V74.153a3.425,3.425,0,0,0-3.421-3.421H66.28V19.421a1.142,1.142,0,0,1,1.14-1.14h47.891a1.142,1.142,0,0,1,1.14,1.14V21.7H92.506a3.425,3.425,0,0,0-3.421,3.421V52.488a3.425,3.425,0,0,0,3.421,3.421h10.93L107.33,59.8l3.893-3.893h5.229v5.7h2.281v-5.7h3.421a3.425,3.425,0,0,0,3.421-3.421V25.122A3.425,3.425,0,0,0,122.153,21.7ZM108.47,63.891c4.039,0,6.688.65,7.671,1.14-.983.49-3.632,1.14-7.671,1.14s-6.688-.65-7.671-1.14C101.781,64.541,104.431,63.891,108.47,63.891Zm-7.982,3.474a29.844,29.844,0,0,0,15.964,0V72.82c-.586.49-3.382,1.333-7.982,1.333s-7.4-.843-7.982-1.333Zm0,7.982a29.844,29.844,0,0,0,15.964,0V80.8c-.59.49-3.387,1.331-7.982,1.331s-7.391-.842-7.982-1.331ZM74.262,73.013a1.142,1.142,0,0,1,1.14,1.14v6.369l-7.509-7.509Zm49.031-20.525a1.142,1.142,0,0,1-1.14,1.14H110.278l-2.949,2.949-2.949-2.949H92.506a1.142,1.142,0,0,1-1.14-1.14V25.122a1.142,1.142,0,0,1,1.14-1.14h29.647a1.142,1.142,0,0,1,1.14,1.14Z" transform="translate(-64 -16)" fill="#19538d"/>
              <rect id="Rectángulo_458332" data-name="Rectángulo 458332" width="23.573" height="1.473" transform="translate(5.893 44.199)" fill="#19538d"/>
              <rect id="Rectángulo_458333" data-name="Rectángulo 458333" width="23.573" height="1.473" transform="translate(5.893 48.619)" fill="#19538d"/>
              <rect id="Rectángulo_458334" data-name="Rectángulo 458334" width="13.26" height="2.947" transform="translate(16.206 54.512)" fill="#19538d"/>
              <path id="Trazado_1030530" data-name="Trazado 1030530" d="M104,171.384h17.1V152h-6.842v17.1h-2.281V157.7H105.14v11.4H104Zm12.543-17.1h2.281V169.1h-2.281Zm-9.122,5.7H109.7V169.1h-2.281Z" transform="translate(-98.299 -132.616)" fill="#19538d"/>
              <path id="Trazado_1030531" data-name="Trazado 1030531" d="M112.851,74.463l2.281,2.281,8.788-8.788-1.613-1.613-7.175,7.176-2.281-2.281-6.508,6.507,1.613,1.613Z" transform="translate(-100.308 -59.168)" fill="#19538d"/>
            </g>
          </g>
        </g>
      </g>
    </g>
    <path id="Trazado_998457" data-name="Trazado 998457" d="M21.193,13.724H3.483l2.43-5.5h17.71Z" transform="translate(406.088 4714.021)" fill="#fff"/>
    <path id="Trazado_998459" data-name="Trazado 998459" d="M21.193,13.724H3.483l2.43-5.5h17.71Z" transform="translate(497.088 4790.021)" fill="#fff"/>
    <path id="Trazado_998458" data-name="Trazado 998458" d="M21.193,13.724H3.483l2.43-5.5h17.71Z" transform="translate(401.088 4719.524)" fill="#9ecfff"/>
    <path id="Trazado_998461" data-name="Trazado 998461" d="M18.607,11.366H3.483L4.872,8.221H20Z" transform="translate(494.518 4795.524)" fill="#9ecfff"/>
    <path id="Trazado_998462" data-name="Trazado 998462" d="M18.607,11.366H3.483L4.872,8.221H20Z" transform="translate(497.088 4734.779)" fill="#9ecfff"/>
    <path id="Trazado_998463" data-name="Trazado 998463" d="M18.607,11.366H3.483L4.872,8.221H20Z" transform="translate(402.902 4780.779)" fill="#9ecfff"/>
  </g>
</svg>
