<svg xmlns="http://www.w3.org/2000/svg" width="98" height="98" viewBox="0 0 98 98">
  <g id="Grupo_1185705" data-name="Grupo 1185705" transform="translate(-276 -524)">
    <g id="Grupo_1185692" data-name="Grupo 1185692" transform="translate(-13.609 -11087.898)">
      <g id="Grupo_1177473" data-name="Grupo 1177473" transform="translate(289.609 11611.898)">
        <ellipse id="Elipse_13609" data-name="Elipse 13609" cx="49" cy="49" rx="49" ry="49" transform="translate(0)" fill="#19538d"/>
      </g>
    </g>
    <g id="Grupo_1179969" data-name="Grupo 1179969" transform="translate(296 543)">
      <rect id="Rectángulo_456311" data-name="Rectángulo 456311" width="58.996" height="59.423" transform="translate(0 0.257)" fill="none"/>
      <g id="calculadora_1_" data-name="calculadora (1)" transform="translate(2.087 0)">
        <path id="Trazado_1031366" data-name="Trazado 1031366" d="M51.973,4.9H45.117V3.918A3.918,3.918,0,0,0,41.2,0H17.692a3.918,3.918,0,0,0-3.918,3.918V4.9H6.918A3.918,3.918,0,0,0,3,8.815v36.24a3.918,3.918,0,0,0,3.918,3.918H19.651v2.938H15.733a2.938,2.938,0,0,0-2.938,2.938v1.959a1.959,1.959,0,0,0,1.959,1.959H44.137A1.959,1.959,0,0,0,46.1,56.809V54.85a2.938,2.938,0,0,0-2.938-2.938H39.24V48.973H51.973a3.918,3.918,0,0,0,3.918-3.918V8.815A3.918,3.918,0,0,0,51.973,4.9Zm-6.856,5.877h4.9V35.261H44.572a3.878,3.878,0,0,0,.545-1.959ZM15.733,3.918a1.959,1.959,0,0,1,1.959-1.959H41.2a1.959,1.959,0,0,1,1.959,1.959V33.3A1.959,1.959,0,0,1,41.2,35.261H17.692A1.959,1.959,0,0,1,15.733,33.3ZM14.319,35.261H8.877V10.774h4.9V33.3a3.878,3.878,0,0,0,.545,1.959Zm-7.4-28.4h6.856V8.815h-4.9a1.959,1.959,0,0,0-1.959,1.959V35.261A1.959,1.959,0,0,0,8.877,37.22H50.014a1.959,1.959,0,0,0,1.959-1.959V10.774a1.959,1.959,0,0,0-1.959-1.959h-4.9V6.856h6.856a1.959,1.959,0,0,1,1.959,1.959V39.178H4.959V8.815A1.959,1.959,0,0,1,6.918,6.856ZM44.137,54.85v1.959H14.754V54.85a.979.979,0,0,1,.979-.979H43.158A.979.979,0,0,1,44.137,54.85Zm-6.856-2.938H21.61V48.973H37.281Zm14.692-4.9H6.918a1.959,1.959,0,0,1-1.959-1.959V41.137H53.932v3.918A1.959,1.959,0,0,1,51.973,47.014Z" transform="translate(-3)" fill="#fff"/>
        <path id="Trazado_1031367" data-name="Trazado 1031367" d="M19.959,13.795H39.548a1.959,1.959,0,0,0,1.959-1.959V5.959A1.959,1.959,0,0,0,39.548,4H19.959A1.959,1.959,0,0,0,18,5.959v5.877A1.959,1.959,0,0,0,19.959,13.795ZM34.651,5.959l-4.408,5.877H24.856l4.408-5.877Zm4.9,5.877H32.692L37.1,5.959h2.449ZM19.959,5.959h6.856l-4.408,5.877H19.959Z" transform="translate(-3.308 -0.082)" fill="#fff"/>
        <path id="Trazado_1031368" data-name="Trazado 1031368" d="M30.938,44H28.979a.979.979,0,1,0,0,1.959h1.959a.979.979,0,1,0,0-1.959Z" transform="translate(-3.513 -0.904)" fill="#fff"/>
        <path id="Trazado_1031369" data-name="Trazado 1031369" d="M-8.358-11.449V-1.389H-9.629V-9.862l-2.563.934v-1.147l3.635-1.374ZM1.963-2.434v1.044H-4.585V-2.3l3.278-3.649A13.291,13.291,0,0,0-.37-7.1,3.632,3.632,0,0,0,.1-7.941a2.258,2.258,0,0,0,.134-.766,1.963,1.963,0,0,0-.2-.9,1.573,1.573,0,0,0-.594-.642,1.778,1.778,0,0,0-.948-.24,2.18,2.18,0,0,0-1.11.258,1.621,1.621,0,0,0-.663.718,2.427,2.427,0,0,0-.22,1.058H-4.778A3.252,3.252,0,0,1-4.406-10a2.756,2.756,0,0,1,1.1-1.117,3.569,3.569,0,0,1,1.793-.416A3.624,3.624,0,0,1,.108-11.2a2.428,2.428,0,0,1,1.034.934A2.679,2.679,0,0,1,1.5-8.858a2.841,2.841,0,0,1-.148.89,4.777,4.777,0,0,1-.405.9,7.455,7.455,0,0,1-.6.88q-.34.433-.725.852l-2.68,2.906ZM5.207-7.017h.907a2.411,2.411,0,0,0,1.1-.223,1.511,1.511,0,0,0,.653-.612,1.768,1.768,0,0,0,.216-.876A2.186,2.186,0,0,0,7.894-9.7a1.288,1.288,0,0,0-.577-.591,2.113,2.113,0,0,0-.976-.2,2.043,2.043,0,0,0-.945.21,1.555,1.555,0,0,0-.639.594,1.733,1.733,0,0,0-.23.907H3.256a2.6,2.6,0,0,1,.385-1.388,2.762,2.762,0,0,1,1.082-1,3.394,3.394,0,0,1,1.618-.371,3.7,3.7,0,0,1,1.587.32,2.39,2.39,0,0,1,1.058.948A2.988,2.988,0,0,1,9.364-8.7a2.143,2.143,0,0,1-.175.807,2.458,2.458,0,0,1-.543.8,2.8,2.8,0,0,1-.952.608,3.723,3.723,0,0,1-1.4.237H5.207Zm0,1.044v-.763H6.293a4.692,4.692,0,0,1,1.58.227,2.527,2.527,0,0,1,.986.6,2.179,2.179,0,0,1,.508.828,2.861,2.861,0,0,1,.148.9,3.081,3.081,0,0,1-.237,1.244,2.589,2.589,0,0,1-.667.921,2.886,2.886,0,0,1-1.007.57,3.954,3.954,0,0,1-1.257.192,3.963,3.963,0,0,1-1.227-.186,3.141,3.141,0,0,1-1.013-.539,2.468,2.468,0,0,1-.687-.873,2.722,2.722,0,0,1-.247-1.185H4.444a1.77,1.77,0,0,0,.23.914,1.558,1.558,0,0,0,.66.608A2.226,2.226,0,0,0,6.348-2.3a2.308,2.308,0,0,0,1.007-.2,1.449,1.449,0,0,0,.653-.615,2.108,2.108,0,0,0,.23-1.038,1.853,1.853,0,0,0-.261-1.027,1.56,1.56,0,0,0-.739-.6,2.949,2.949,0,0,0-1.123-.2Z" transform="translate(27.439 29.304)" fill="#fff"/>
      </g>
    </g>
  </g>
</svg>
