<svg xmlns="http://www.w3.org/2000/svg" xmlns:xlink="http://www.w3.org/1999/xlink" width="128" height="128" viewBox="0 0 128 128">
  <defs>
    <clipPath id="clip-path">
      <rect id="Rectángulo_455533" data-name="Rectángulo 455533" width="128" height="122.776" fill="#19538d"/>
    </clipPath>
  </defs>
  <g id="Grupo_1185678" data-name="Grupo 1185678" transform="translate(-383 -3526)">
    <g id="Grupo_1185670" data-name="Grupo 1185670" transform="translate(-0.746 -4873)">
      <circle id="Elipse_13674" data-name="Elipse 13674" cx="54.5" cy="54.5" r="54.5" transform="translate(392.746 8409)" fill="#fff"/>
      <g id="Grupo_1179062" data-name="Grupo 1179062" transform="translate(272)">
        <rect id="Rectángulo_455531" data-name="Rectángulo 455531" width="128" height="128" transform="translate(111.746 8399)" fill="none"/>
        <g id="Grupo_1179061" data-name="Grupo 1179061" transform="translate(111.746 8402)">
          <path id="Trazado_998445" data-name="Trazado 998445" d="M120.883,97.46H96.727L100,91.354h24.156Z" fill="#62249e"/>
          <path id="Trazado_998446" data-name="Trazado 998446" d="M1.985,86.893,0,90.934H26.632l1.986-4.041Z" fill="#19538d"/>
          <path id="Trazado_998447" data-name="Trazado 998447" d="M124.314,32.5H98.809l2-4.529h25.505Z" fill="#19538d"/>
          <path id="Trazado_998448" data-name="Trazado 998448" d="M36.988,12.75H3.483l2-4.529h33.5Z" fill="#19538d"/>
          <g id="Grupo_1179060" data-name="Grupo 1179060">
            <g id="Grupo_1179059" data-name="Grupo 1179059" clip-path="url(#clip-path)">
              <path id="Trazado_998449" data-name="Trazado 998449" d="M64,115.717a54.31,54.31,0,0,1-52.948-66.48H3.82A61.384,61.384,0,0,0,111.812,99.874h-9.469A54.154,54.154,0,0,1,64,115.717" fill="#19538d"/>
              <path id="Trazado_998450" data-name="Trazado 998450" d="M110.835,88.914h8.033c.645-1.284,1.231-2.6,1.787-3.934h-7.723c-.649,1.342-1.344,2.656-2.1,3.934" fill="#19538d"/>
              <path id="Trazado_998451" data-name="Trazado 998451" d="M125.388,61.388A61.4,61.4,0,0,0,5.373,43.131h7.452A54.33,54.33,0,1,1,114.406,81.649h7.526a61.118,61.118,0,0,0,3.456-20.261" fill="#19538d"/>
              <path id="Trazado_998452" data-name="Trazado 998452" d="M108.562,81.649V84.98h4.37q.792-1.637,1.475-3.331Z" fill="#19538d"/>
              <path id="Trazado_998453" data-name="Trazado 998453" d="M128,81.649h-6.068q-.592,1.689-1.277,3.331H128Z" fill="#19538d"/>
            </g>
          </g>
          <path id="Trazado_998444" data-name="Trazado 998444" d="M3,37.025,0,43.131H18.134l3-6.106Z" fill="#62249e"/>
        </g>
      </g>
    </g>
    <path id="Trazado_1032436" data-name="Trazado 1032436" d="M149.175,8.87l-7.717,12.8-7.05-.032v-.413L143.3,8.87Zm-7.717,12.512,7.717,12.83H143.3l-8.892-12.385v-.413ZM161.466,8.87l-7.717,12.8-7.05-.032v-.413L155.59,8.87Zm-7.717,12.512,7.717,12.83H155.59L146.7,21.827v-.413ZM176.9,30.529l-.032,6.129a16.034,16.034,0,0,1-1.763,7.114,17.919,17.919,0,0,1-4.462,5.875L165.884,47.2q.794-1.461,1.556-2.922a17.462,17.462,0,0,0,1.27-3.208,14.221,14.221,0,0,0,.508-3.97V30.529Zm6.673,3.684,7.717-12.83,7.082.032v.413l-8.892,12.385Zm0-25.343h5.907l8.892,12.354v.413l-7.082.032Zm12.449,25.343,7.717-12.83,7.082.032v.413l-8.892,12.385Zm0-25.343h5.907l8.892,12.354v.413l-7.082.032Z" transform="translate(274.592 3567.13)" fill="#19538d"/>
  </g>
</svg>
