<svg xmlns="http://www.w3.org/2000/svg" xmlns:xlink="http://www.w3.org/1999/xlink" width="128" height="128" viewBox="0 0 128 128">
  <defs>
    <clipPath id="clip-path">
      <rect id="Rectángulo_455533" data-name="Rectángulo 455533" width="128" height="122.776" fill="#19538d"/>
    </clipPath>
  </defs>
  <g id="Grupo_1185675" data-name="Grupo 1185675" transform="translate(-737 -3526)">
    <g id="Grupo_1185670" data-name="Grupo 1185670" transform="translate(353.254 -4873)">
      <circle id="Elipse_13674" data-name="Elipse 13674" cx="54.5" cy="54.5" r="54.5" transform="translate(392.746 8409)" fill="#fff"/>
      <g id="Grupo_1179062" data-name="Grupo 1179062" transform="translate(272)">
        <rect id="Rectángulo_455531" data-name="Rectángulo 455531" width="128" height="128" transform="translate(111.746 8399)" fill="none"/>
        <g id="Grupo_1179061" data-name="Grupo 1179061" transform="translate(111.746 8402)">
          <path id="Trazado_998445" data-name="Trazado 998445" d="M120.883,97.46H96.727L100,91.354h24.156Z" fill="#62249e"/>
          <path id="Trazado_998446" data-name="Trazado 998446" d="M1.985,86.893,0,90.934H26.632l1.986-4.041Z" fill="#19538d"/>
          <path id="Trazado_998447" data-name="Trazado 998447" d="M124.314,32.5H98.809l2-4.529h25.505Z" fill="#19538d"/>
          <path id="Trazado_998448" data-name="Trazado 998448" d="M36.988,12.75H3.483l2-4.529h33.5Z" fill="#19538d"/>
          <g id="Grupo_1179060" data-name="Grupo 1179060">
            <g id="Grupo_1179059" data-name="Grupo 1179059" clip-path="url(#clip-path)">
              <path id="Trazado_998449" data-name="Trazado 998449" d="M64,115.717a54.31,54.31,0,0,1-52.948-66.48H3.82A61.384,61.384,0,0,0,111.812,99.874h-9.469A54.154,54.154,0,0,1,64,115.717" fill="#19538d"/>
              <path id="Trazado_998450" data-name="Trazado 998450" d="M110.835,88.914h8.033c.645-1.284,1.231-2.6,1.787-3.934h-7.723c-.649,1.342-1.344,2.656-2.1,3.934" fill="#19538d"/>
              <path id="Trazado_998451" data-name="Trazado 998451" d="M125.388,61.388A61.4,61.4,0,0,0,5.373,43.131h7.452A54.33,54.33,0,1,1,114.406,81.649h7.526a61.118,61.118,0,0,0,3.456-20.261" fill="#19538d"/>
              <path id="Trazado_998452" data-name="Trazado 998452" d="M108.562,81.649V84.98h4.37q.792-1.637,1.475-3.331Z" fill="#19538d"/>
              <path id="Trazado_998453" data-name="Trazado 998453" d="M128,81.649h-6.068q-.592,1.689-1.277,3.331H128Z" fill="#19538d"/>
            </g>
          </g>
          <path id="Trazado_998444" data-name="Trazado 998444" d="M3,37.025,0,43.131H18.134l3-6.106Z" fill="#62249e"/>
        </g>
      </g>
    </g>
    <g id="Grupo_1185672" data-name="Grupo 1185672" transform="translate(767 3555)">
      <g id="Grupo_1099618" data-name="Grupo 1099618" transform="translate(0 0)">
        <rect id="Rectángulo_401104" data-name="Rectángulo 401104" width="68.18" height="69.001" transform="translate(0)" fill="none"/>
      </g>
      <path id="Trazado_1031882" data-name="Trazado 1031882" d="M154.35,2.964l1.788,4.98a6.341,6.341,0,0,0-3.958,3.719,16.637,16.637,0,0,0-1.053,6.145V24.32a12.047,12.047,0,0,1-1.421,5.842,10.072,10.072,0,0,1-4.485,4.166,17.814,17.814,0,0,1-8.013,1.548V31.024a5.026,5.026,0,0,0,4.357-1.82,8.127,8.127,0,0,0,1.325-4.884V17.808a18.607,18.607,0,0,1,1.037-6.273,12.317,12.317,0,0,1,3.543-5.14A17.16,17.16,0,0,1,154.35,2.964Zm1.788,57.525L154.35,65.5a17.457,17.457,0,0,1-6.879-3.464,12.317,12.317,0,0,1-3.543-5.14,18.607,18.607,0,0,1-1.037-6.273V44.112a9.655,9.655,0,0,0-.591-3.543,4.761,4.761,0,0,0-1.836-2.314,5.859,5.859,0,0,0-3.256-.814V32.556A17.814,17.814,0,0,1,145.22,34.1a10.072,10.072,0,0,1,4.485,4.166,12.047,12.047,0,0,1,1.421,5.842v6.512a18.914,18.914,0,0,0,.463,4.31,9.124,9.124,0,0,0,1.532,3.416A6.308,6.308,0,0,0,156.138,60.489ZM174.884,7.944l1.788-4.98a17.022,17.022,0,0,1,6.9,3.432,12.377,12.377,0,0,1,3.527,5.14,18.607,18.607,0,0,1,1.037,6.273V24.32a9.9,9.9,0,0,0,.575,3.543,4.73,4.73,0,0,0,1.836,2.33,5.852,5.852,0,0,0,3.272.83v4.725a18.3,18.3,0,0,1-8.013-1.5,9.931,9.931,0,0,1-4.5-4.1,11.849,11.849,0,0,1-1.437-5.826V17.808a20.258,20.258,0,0,0-.431-4.31,8.628,8.628,0,0,0-1.516-3.416A6.407,6.407,0,0,0,174.884,7.944ZM176.672,65.5l-1.788-5.012a6.407,6.407,0,0,0,3.033-2.139,8.628,8.628,0,0,0,1.516-3.416,20.258,20.258,0,0,0,.431-4.31V44.112A11.759,11.759,0,0,1,181.3,38.3a10.048,10.048,0,0,1,4.5-4.1,18.137,18.137,0,0,1,8.013-1.516v4.757a5.033,5.033,0,0,0-4.341,1.82,8,8,0,0,0-1.341,4.852v6.512a18.607,18.607,0,0,1-1.037,6.273,12.377,12.377,0,0,1-3.527,5.14A17.313,17.313,0,0,1,176.672,65.5Z" transform="translate(-131.333 -0.26)" fill="#19538d"/>
    </g>
  </g>
</svg>
