<svg xmlns="http://www.w3.org/2000/svg" xmlns:xlink="http://www.w3.org/1999/xlink" width="130" height="130" viewBox="0 0 130 130">
  <defs>
    <clipPath id="clip-path">
      <rect id="Rectángulo_455533" data-name="Rectángulo 455533" width="130" height="124.675" fill="#19538d"/>
    </clipPath>
  </defs>
  <g id="Grupo_1185699" data-name="Grupo 1185699" transform="translate(0.295 -0.228)">
    <ellipse id="Elipse_13674" data-name="Elipse 13674" cx="55.433" cy="55.433" rx="55.433" ry="55.433" transform="translate(9.272 9.794)" fill="#fff"/>
    <g id="Grupo_1179062" data-name="Grupo 1179062" transform="translate(-0.295 0.228)">
      <rect id="Rectángulo_455531" data-name="Rectángulo 455531" width="130" height="130" transform="translate(0 0)" fill="none"/>
      <g id="Grupo_1179061" data-name="Grupo 1179061" transform="translate(0 3.059)">
        <path id="Trazado_998445" data-name="Trazado 998445" d="M121.348,97.577H96.727l3.337-6.223h24.621Z" transform="translate(1.399 1.395)" fill="#62249e"/>
        <path id="Trazado_998446" data-name="Trazado 998446" d="M2.024,86.893,0,91.012H27.145l2.024-4.119Z" transform="translate(0 1.333)" fill="#19538d"/>
        <path id="Trazado_998447" data-name="Trazado 998447" d="M124.8,32.583h-26l2.038-4.616h26Z" transform="translate(1.439 0.429)" fill="#19538d"/>
        <path id="Trazado_998448" data-name="Trazado 998448" d="M37.632,12.837H3.483L5.521,8.221H39.671Z" transform="translate(0.067 0.158)" fill="#19538d"/>
        <g id="Grupo_1179060" data-name="Grupo 1179060" transform="translate(0)">
          <g id="Grupo_1179059" data-name="Grupo 1179059" clip-path="url(#clip-path)">
            <path id="Trazado_998449" data-name="Trazado 998449" d="M64.959,116.745A55.15,55.15,0,0,1,11.184,49.237H3.839a62.343,62.343,0,0,0,109.679,51.42H103.9a55,55,0,0,1-38.942,16.088" transform="translate(0.041 0.762)" fill="#19538d"/>
            <path id="Trazado_998450" data-name="Trazado 998450" d="M110.835,88.975h8.158c.655-1.3,1.25-2.641,1.815-3.995h-7.844c-.659,1.363-1.365,2.7-2.13,3.995" transform="translate(1.732 1.314)" fill="#19538d"/>
            <path id="Trazado_998451" data-name="Trazado 998451" d="M127.263,62.338A62.358,62.358,0,0,0,5.373,43.8h7.568A55.178,55.178,0,1,1,116.109,82.912h7.644a62.054,62.054,0,0,0,3.51-20.574" transform="translate(0.084)" fill="#19538d"/>
            <path id="Trazado_998452" data-name="Trazado 998452" d="M108.562,81.649v3.383H113q.8-1.662,1.5-3.383Z" transform="translate(1.696 1.263)" fill="#19538d"/>
            <path id="Trazado_998453" data-name="Trazado 998453" d="M128.115,81.649h-6.163q-.6,1.715-1.3,3.383h7.46Z" transform="translate(1.885 1.263)" fill="#19538d"/>
          </g>
        </g>
        <path id="Trazado_998444" data-name="Trazado 998444" d="M3.057,37.025,0,43.248H18.482l3.058-6.223Z" transform="translate(0 0.565)" fill="#62249e"/>
      </g>
    </g>
    <g id="Grupo_1177669" data-name="Grupo 1177669" transform="translate(29.914 29.57)">
      <g id="Grupo_1099618" data-name="Grupo 1099618" transform="translate(0 0)">
        <rect id="Rectángulo_401104" data-name="Rectángulo 401104" width="69.491" height="70.328" transform="translate(0)" fill="none"/>
      </g>
      <g id="Grupo_1185701" data-name="Grupo 1185701" transform="translate(3.547 2.012)">
        <g id="Grupo_1099618-2" data-name="Grupo 1099618" transform="translate(-0.254 -0.352)">
          <rect id="Rectángulo_401104-2" data-name="Rectángulo 401104" width="62.518" height="63.271" transform="translate(0)" fill="none"/>
        </g>
        <g id="algoritmos" transform="translate(-0.254 -0.501)">
          <path id="Trazado_1031363" data-name="Trazado 1031363" d="M58.935,270.153V258.659H36.8v-3.668H33.135V249H29.467v5.991H25.8v3.668H3.668v11.493H0v11H11v-11H7.336v-7.825H25.8V266h11v-3.668H55.267v7.825H51.6v3.668H36.488a5.5,5.5,0,1,0,0,3.668H51.6v3.668h11v-11Z" transform="translate(0 -218.555)" fill="#19538d"/>
          <path id="Trazado_1031364" data-name="Trazado 1031364" d="M152.937,11.59a10.876,10.876,0,0,0,.015,3.685l.223,1.264-2.437,1.407,2.515,4.357,2.461-1.422.983.814a10.723,10.723,0,0,0,3.194,1.829l1.208.438v2.815h5.031V23.939l1.195-.445a10.724,10.724,0,0,0,3.178-1.856l.984-.828,2.441,1.409,2.515-4.357-2.459-1.42a17.485,17.485,0,0,0,.362-3.054,17.129,17.129,0,0,0-.388-3.151L176.4,8.83,173.88,4.474,171.419,5.9l-.983-.814a10.724,10.724,0,0,0-3.194-1.829l-1.208-.438V0H161V2.838l-1.195.445a10.724,10.724,0,0,0-3.178,1.856l-.984.828-2.441-1.409L150.69,8.915l2.459,1.42Zm8.795-.035H165.4v3.668h-3.668Z" transform="translate(-132.265 0)" fill="#19538d"/>
        </g>
      </g>
    </g>
  </g>
</svg>
