<svg xmlns="http://www.w3.org/2000/svg" xmlns:xlink="http://www.w3.org/1999/xlink" width="128" height="128" viewBox="0 0 128 128">
  <defs>
    <clipPath id="clip-path">
      <rect id="Rectángulo_455533" data-name="Rectángulo 455533" width="128" height="122.776" fill="#19538d"/>
    </clipPath>
  </defs>
  <g id="Grupo_1185679" data-name="Grupo 1185679" transform="translate(-383 -3526)">
    <g id="Grupo_1185670" data-name="Grupo 1185670" transform="translate(-0.746 -4873)">
      <circle id="Elipse_13674" data-name="Elipse 13674" cx="54.5" cy="54.5" r="54.5" transform="translate(392.746 8409)" fill="#fff"/>
      <g id="Grupo_1179062" data-name="Grupo 1179062" transform="translate(272)">
        <rect id="Rectángulo_455531" data-name="Rectángulo 455531" width="128" height="128" transform="translate(111.746 8399)" fill="none"/>
        <g id="Grupo_1179061" data-name="Grupo 1179061" transform="translate(111.746 8402)">
          <path id="Trazado_998445" data-name="Trazado 998445" d="M120.883,97.46H96.727L100,91.354h24.156Z" fill="#62249e"/>
          <path id="Trazado_998446" data-name="Trazado 998446" d="M1.985,86.893,0,90.934H26.632l1.986-4.041Z" fill="#19538d"/>
          <path id="Trazado_998447" data-name="Trazado 998447" d="M124.314,32.5H98.809l2-4.529h25.505Z" fill="#19538d"/>
          <path id="Trazado_998448" data-name="Trazado 998448" d="M36.988,12.75H3.483l2-4.529h33.5Z" fill="#19538d"/>
          <g id="Grupo_1179060" data-name="Grupo 1179060">
            <g id="Grupo_1179059" data-name="Grupo 1179059" clip-path="url(#clip-path)">
              <path id="Trazado_998449" data-name="Trazado 998449" d="M64,115.717a54.31,54.31,0,0,1-52.948-66.48H3.82A61.384,61.384,0,0,0,111.812,99.874h-9.469A54.154,54.154,0,0,1,64,115.717" fill="#19538d"/>
              <path id="Trazado_998450" data-name="Trazado 998450" d="M110.835,88.914h8.033c.645-1.284,1.231-2.6,1.787-3.934h-7.723c-.649,1.342-1.344,2.656-2.1,3.934" fill="#19538d"/>
              <path id="Trazado_998451" data-name="Trazado 998451" d="M125.388,61.388A61.4,61.4,0,0,0,5.373,43.131h7.452A54.33,54.33,0,1,1,114.406,81.649h7.526a61.118,61.118,0,0,0,3.456-20.261" fill="#19538d"/>
              <path id="Trazado_998452" data-name="Trazado 998452" d="M108.562,81.649V84.98h4.37q.792-1.637,1.475-3.331Z" fill="#19538d"/>
              <path id="Trazado_998453" data-name="Trazado 998453" d="M128,81.649h-6.068q-.592,1.689-1.277,3.331H128Z" fill="#19538d"/>
            </g>
          </g>
          <path id="Trazado_998444" data-name="Trazado 998444" d="M3,37.025,0,43.131H18.134l3-6.106Z" fill="#62249e"/>
        </g>
      </g>
    </g>
    <path id="Trazado_1032437" data-name="Trazado 1032437" d="M150.742,8.87,143.18,21.411l-6.908-.031v-.4L144.985,8.87ZM143.18,21.131,150.742,33.7h-5.757l-8.713-12.136v-.4ZM162.785,8.87l-7.562,12.541-6.908-.031v-.4L157.028,8.87Zm-7.562,12.261L162.785,33.7h-5.757l-8.713-12.136v-.4Zm14.63,12.2A4.442,4.442,0,0,1,171.238,30a5.75,5.75,0,0,1,7.375,0,4.7,4.7,0,0,1,0,6.659,5.75,5.75,0,0,1-7.375,0A4.442,4.442,0,0,1,169.853,33.33Zm17.4.373,7.562-12.572,6.94.031v.4L193.041,33.7Zm0-24.833h5.788l8.713,12.105v.4l-6.94.031Zm12.2,24.833,7.562-12.572,6.94.031v.4L205.239,33.7Zm0-24.833h5.788l8.713,12.105v.4l-6.94.031Z" transform="translate(271.728 3566.566)" fill="#19538d"/>
  </g>
</svg>
