<svg xmlns="http://www.w3.org/2000/svg" width="98" height="98" viewBox="0 0 98 98">
  <g id="Grupo_1185709" data-name="Grupo 1185709" transform="translate(-8883 5160)">
    <g id="Grupo_1185702" data-name="Grupo 1185702" transform="translate(8593.391 -16771.898)">
      <g id="Grupo_1177473" data-name="Grupo 1177473" transform="translate(289.609 11611.898)">
        <ellipse id="Elipse_13609" data-name="Elipse 13609" cx="49" cy="49" rx="49" ry="49" transform="translate(0)" fill="#62249e"/>
      </g>
    </g>
    <g id="Grupo_1185715" data-name="Grupo 1185715" transform="translate(8901.312 -5141.316)">
      <rect id="Rectángulo_456311" data-name="Rectángulo 456311" width="60" height="60.433" transform="translate(0.36)" fill="none"/>
      <g id="mensaje" transform="translate(1.951 1.876)">
        <path id="Trazado_1031206" data-name="Trazado 1031206" d="M29.765,2a3.935,3.935,0,0,0-3.356,1.882l-13.774,22.1a4.159,4.159,0,0,0-.141,4.153,3.981,3.981,0,0,0,3.492,2.127H43.542a3.981,3.981,0,0,0,3.5-2.125,4.159,4.159,0,0,0-.14-4.155L33.12,3.882A3.935,3.935,0,0,0,29.765,2Zm0,28.247a3.027,3.027,0,1,1,2.961-3.026A2.994,2.994,0,0,1,29.765,30.247ZM33.712,10.07c0,.121-.855,12.106-3.948,12.106S25.817,10.191,25.817,10.07a3.949,3.949,0,1,1,7.9,0Z" transform="translate(-1.912 -2)" fill="#fff"/>
        <path id="Trazado_1031207" data-name="Trazado 1031207" d="M28,10.018c0,1.747,1.06,8.093,2.018,9.81.957-1.715,2.018-8.062,2.018-9.81a2.018,2.018,0,1,0-4.035,0Z" transform="translate(-2.165 -1.947)" fill="#fff"/>
        <circle id="Elipse_13736" data-name="Elipse 13736" cx="1.009" cy="1.009" r="1.009" transform="translate(26.844 23.859)" fill="#fff"/>
        <path id="Trazado_1031208" data-name="Trazado 1031208" d="M52.732,13H41.38L48.8,24.6a5.993,5.993,0,0,1-5.057,9.218H15.966A5.993,5.993,0,0,1,10.909,24.6L18.326,13H6.974A4.971,4.971,0,0,0,2,17.956V45.709a4.971,4.971,0,0,0,4.974,4.956h14.1a2.975,2.975,0,0,1,2.116.875L29.143,57.3a.985.985,0,0,0,1.4.015l5.984-5.784a2.966,2.966,0,0,1,2.1-.864h14.1a4.971,4.971,0,0,0,4.974-4.956V17.956A4.971,4.971,0,0,0,52.732,13ZM43.779,47.691H15.926a.991.991,0,1,1,0-1.982H43.779a.991.991,0,1,1,0,1.982ZM14.932,41.744a.993.993,0,0,1,.995-.991h9.947a.991.991,0,1,1,0,1.982H15.926A.993.993,0,0,1,14.932,41.744Zm28.848.991H29.853a.991.991,0,1,1,0-1.982H43.779a.991.991,0,1,1,0,1.982Zm0-4.956H15.926a.991.991,0,1,1,0-1.982H43.779a.991.991,0,1,1,0,1.982Z" transform="translate(-2 -1.903)" fill="#fff"/>
      </g>
    </g>
  </g>
</svg>
