<svg xmlns="http://www.w3.org/2000/svg" xmlns:xlink="http://www.w3.org/1999/xlink" width="150" height="150" viewBox="0 0 150 150">
  <defs>
    <clipPath id="clip-path">
      <rect id="Rectángulo_455533" data-name="Rectángulo 455533" width="149.812" height="143.185" fill="#19538d"/>
    </clipPath>
    <clipPath id="clip-path-2">
      <path id="path3234" d="M0-682.665H80.71v80.71H0Z" transform="translate(0 682.665)" fill="#fff"/>
    </clipPath>
  </defs>
  <g id="Grupo_1185613" data-name="Grupo 1185613" transform="translate(-305.059 -10093)">
    <g id="Grupo_1179079" data-name="Grupo 1179079" transform="translate(-78.59 1694.097)">
      <circle id="Elipse_13674" data-name="Elipse 13674" cx="65.5" cy="65.5" r="65.5" transform="translate(393.649 8407.903)" fill="#19538d"/>
      <g id="Grupo_1179062" data-name="Grupo 1179062" transform="translate(383.649 8398.903)">
        <rect id="Rectángulo_455531" data-name="Rectángulo 455531" width="150" height="150" transform="translate(0 0)" fill="none"/>
        <g id="Grupo_1179061" data-name="Grupo 1179061" transform="translate(0.094 3.9)">
          <path id="Trazado_998445" data-name="Trazado 998445" d="M127.367,99.1H96.727l4.153-7.745h30.64Z" transform="translate(13.418 14.697)" fill="#19538d"/>
          <path id="Trazado_998446" data-name="Trazado 998446" d="M2.518,86.893,0,92.019h33.78L36.3,86.893Z" transform="translate(0 14.142)" fill="#19538d"/>
          <path id="Trazado_998447" data-name="Trazado 998447" d="M131.16,33.711H98.809l2.537-5.745H133.7Z" transform="translate(13.977 4.539)" fill="#19538d"/>
          <path id="Trazado_998448" data-name="Trazado 998448" d="M45.981,13.965H3.483L6.02,8.221h42.5Z" transform="translate(0.935 2.207)" fill="#19538d"/>
          <g id="Grupo_1179060" data-name="Grupo 1179060" transform="translate(0)">
            <g id="Grupo_1179059" data-name="Grupo 1179059" clip-path="url(#clip-path)">
              <path id="Trazado_998449" data-name="Trazado 998449" d="M74.461,126.768A63.317,63.317,0,0,1,12.49,49.237H4.026A71.853,71.853,0,0,0,130.42,108.291H119.338a63.5,63.5,0,0,1-44.877,18.477" transform="translate(0.445 8.185)" fill="#19538d"/>
              <path id="Trazado_998450" data-name="Trazado 998450" d="M110.835,89.568h9.4c.755-1.5,1.441-3.033,2.091-4.588h-9.039c-.76,1.565-1.573,3.1-2.454,4.588" transform="translate(18.887 14.126)" fill="#19538d"/>
              <path id="Trazado_998451" data-name="Trazado 998451" d="M145.839,71.593A71.893,71.893,0,0,0,5.373,50.3h8.722A63.623,63.623,0,0,1,137.577,71.593a62.852,62.852,0,0,1-4.591,23.629h8.808a71.048,71.048,0,0,0,4.045-23.629" transform="translate(0.916)" fill="#19538d"/>
              <path id="Trazado_998452" data-name="Trazado 998452" d="M108.562,81.649v3.885h5.115q.927-1.909,1.726-3.885Z" transform="translate(18.499 13.573)" fill="#19538d"/>
              <path id="Trazado_998453" data-name="Trazado 998453" d="M129.252,81.649h-7.1q-.693,1.97-1.495,3.885h8.6Z" transform="translate(20.56 13.573)" fill="#19538d"/>
            </g>
          </g>
          <path id="Trazado_998444" data-name="Trazado 998444" d="M3.8,37.025,0,44.77H23l3.805-7.745Z" transform="translate(0 5.957)" fill="#19538d"/>
        </g>
      </g>
    </g>
    <g id="Grupo_1179080" data-name="Grupo 1179080" transform="translate(336.059 10124)">
      <g id="Grupo_1099618" data-name="Grupo 1099618" transform="translate(0 0)">
        <rect id="Rectángulo_401104" data-name="Rectángulo 401104" width="87.065" height="88.114" transform="translate(0)" fill="none"/>
      </g>
      <g id="Grupo_1185616" data-name="Grupo 1185616" transform="translate(1.001 -0.217)">
        <g id="g3228" transform="translate(3.548 3.765)">
          <g id="g3230" transform="translate(0 0)">
            <g id="g3232" clip-path="url(#clip-path-2)">
              <g id="g3238" transform="translate(18.713 4.61)">
                <path id="path3240" d="M-282.545-139.87h-32.483a5.407,5.407,0,0,1-5.4-5.4v-9.74a5.407,5.407,0,0,1,5.4-5.4h32.483a5.407,5.407,0,0,1,5.4,5.4v9.74A5.407,5.407,0,0,1-282.545-139.87Zm-32.483-17.389a2.251,2.251,0,0,0-2.248,2.248v9.74a2.251,2.251,0,0,0,2.248,2.248h32.483a2.251,2.251,0,0,0,2.248-2.248v-9.74a2.251,2.251,0,0,0-2.248-2.248Z" transform="translate(320.429 160.412)" fill="#fff"/>
              </g>
              <g id="g3242" transform="translate(18.713 30.084)">
                <path id="path3244" d="M-282.545-139.87h-32.483a5.407,5.407,0,0,1-5.4-5.4v-9.74a5.407,5.407,0,0,1,5.4-5.4h32.483a5.407,5.407,0,0,1,5.4,5.4v9.74A5.407,5.407,0,0,1-282.545-139.87Zm-32.483-17.389a2.251,2.251,0,0,0-2.248,2.248v9.74a2.251,2.251,0,0,0,2.248,2.248h32.483a2.251,2.251,0,0,0,2.248-2.248v-9.74a2.251,2.251,0,0,0-2.248-2.248Z" transform="translate(320.429 160.412)" fill="#fff"/>
              </g>
              <g id="g3246" transform="translate(18.713 55.559)">
                <path id="path3248" d="M-201.664-139.87h-9.562a1.576,1.576,0,0,1-1.576-1.576,1.576,1.576,0,0,1,1.576-1.576h9.562a2.251,2.251,0,0,0,2.248-2.248v-9.74a2.251,2.251,0,0,0-2.248-2.248h-32.483a2.251,2.251,0,0,0-2.248,2.248v9.74a2.251,2.251,0,0,0,2.248,2.248h9.051a1.576,1.576,0,0,1,1.576,1.576,1.576,1.576,0,0,1-1.576,1.576h-9.051a5.407,5.407,0,0,1-5.4-5.4v-9.74a5.407,5.407,0,0,1,5.4-5.4h32.483a5.407,5.407,0,0,1,5.4,5.4v9.74A5.407,5.407,0,0,1-201.664-139.87Z" transform="translate(239.547 160.412)" fill="#fff"/>
              </g>
              <g id="g3250" transform="translate(58.845 13.479)">
                <path id="path3252" d="M2.419,15.119h-7.74A1.576,1.576,0,0,1-6.9,13.543a1.576,1.576,0,0,1,1.576-1.576h7.74A2.964,2.964,0,0,0,5.38,9.006V-7.22a2.964,2.964,0,0,0-2.961-2.961H-11.757a1.576,1.576,0,0,1-1.576-1.576,1.576,1.576,0,0,1,1.576-1.576H2.419A6.12,6.12,0,0,1,8.532-7.22V9.006A6.12,6.12,0,0,1,2.419,15.119Z" transform="translate(13.333 13.333)" fill="#fff"/>
              </g>
              <g id="g3254" transform="translate(65.096 34.33)">
                <path id="path3256" d="M-44.937-76.538A1.571,1.571,0,0,1-46.052-77L-50.5-81.448a1.576,1.576,0,0,1-.462-1.115,1.576,1.576,0,0,1,.462-1.115l4.449-4.449a1.576,1.576,0,0,1,2.229,0,1.576,1.576,0,0,1,0,2.229l-3.334,3.334,3.334,3.334a1.576,1.576,0,0,1,0,2.229A1.571,1.571,0,0,1-44.937-76.538Z" transform="translate(50.963 88.588)" fill="#fff"/>
              </g>
              <g id="g3258" transform="translate(0 38.917)">
                <path id="path3260" d="M-157.757,15.119h-7.74a6.12,6.12,0,0,1-6.113-6.113V-7.22a6.12,6.12,0,0,1,6.113-6.113h14.176a1.576,1.576,0,0,1,1.576,1.576,1.576,1.576,0,0,1-1.576,1.576H-165.5a2.964,2.964,0,0,0-2.961,2.961V9.006a2.964,2.964,0,0,0,2.961,2.96h7.74a1.576,1.576,0,0,1,1.576,1.576A1.576,1.576,0,0,1-157.757,15.119Z" transform="translate(171.61 13.333)" fill="#fff"/>
              </g>
              <g id="g3262" transform="translate(8.013 59.768)">
                <path id="path3264" d="M-11.757-76.539A1.571,1.571,0,0,1-12.872-77a1.576,1.576,0,0,1,0-2.229l3.334-3.334L-12.872-85.9a1.576,1.576,0,0,1,0-2.229,1.576,1.576,0,0,1,2.229,0l4.449,4.449a1.576,1.576,0,0,1,.462,1.115,1.576,1.576,0,0,1-.462,1.115L-10.642-77A1.571,1.571,0,0,1-11.757-76.539Z" transform="translate(13.333 88.589)" fill="#fff"/>
              </g>
              <g id="g3266" transform="translate(40.198 74.524)">
                <path id="path3268" fill="#fff"/>
              </g>
              <g id="g3270" transform="translate(27.358 13.304)">
                <path id="path3272" d="M11.427-10.181H-11.757a1.576,1.576,0,0,1-1.576-1.576,1.576,1.576,0,0,1,1.576-1.576H11.427A1.576,1.576,0,0,1,13-11.757,1.576,1.576,0,0,1,11.427-10.181Z" transform="translate(13.333 13.333)" fill="#fff"/>
              </g>
              <g id="g3274" transform="translate(27.358 38.917)">
                <path id="path3276" d="M11.427-10.181H-11.757a1.576,1.576,0,0,1-1.576-1.576,1.576,1.576,0,0,1,1.576-1.576H11.427A1.576,1.576,0,0,1,13-11.757,1.576,1.576,0,0,1,11.427-10.181Z" transform="translate(13.333 13.333)" fill="#fff"/>
              </g>
              <g id="g3278" transform="translate(27.358 64.53)">
                <path id="path3280" d="M11.427-10.181H-11.757a1.576,1.576,0,0,1-1.576-1.576,1.576,1.576,0,0,1,1.576-1.576H11.427A1.576,1.576,0,0,1,13-11.757,1.576,1.576,0,0,1,11.427-10.181Z" transform="translate(13.333 13.333)" fill="#fff"/>
              </g>
              <g id="g3282" transform="translate(0 4.61)">
                <path id="path3284" d="M-143.84-76.33h-13.69a5.6,5.6,0,0,1-5.6-5.6v-4.85a1.576,1.576,0,0,1,1.576-1.576,1.576,1.576,0,0,1,1.576,1.576v4.85a2.446,2.446,0,0,0,2.443,2.443h13.69a1.576,1.576,0,0,1,1.576,1.576A1.576,1.576,0,0,1-143.84-76.33Z" transform="translate(163.126 88.352)" fill="#fff"/>
              </g>
            </g>
          </g>
        </g>
      </g>
    </g>
  </g>
</svg>
