<svg xmlns="http://www.w3.org/2000/svg" xmlns:xlink="http://www.w3.org/1999/xlink" width="160" height="160" viewBox="0 0 160 160">
  <defs>
    <clipPath id="clip-path">
      <rect id="Rectángulo_455533" data-name="Rectángulo 455533" width="159.812" height="153.185" fill="#19538d"/>
    </clipPath>
  </defs>
  <g id="Grupo_1185685" data-name="Grupo 1185685" transform="translate(-383.649 -8398.903)">
    <circle id="Elipse_13674" data-name="Elipse 13674" cx="69" cy="69" r="69" transform="translate(393.649 8410.903)" fill="#19538d"/>
    <g id="Grupo_1179062" data-name="Grupo 1179062" transform="translate(383.649 8398.903)">
      <rect id="Rectángulo_455531" data-name="Rectángulo 455531" width="160" height="160" transform="translate(0 0)" fill="none"/>
      <g id="Grupo_1179061" data-name="Grupo 1179061" transform="translate(0.094 3.9)">
        <path id="Trazado_998445" data-name="Trazado 998445" d="M127.367,99.1H96.727l4.153-7.745h30.64Z" transform="translate(23.418 22.527)" fill="#19538d"/>
        <path id="Trazado_998446" data-name="Trazado 998446" d="M2.518,86.893,0,92.019h33.78L36.3,86.893Z" transform="translate(0 21.46)" fill="#19538d"/>
        <path id="Trazado_998447" data-name="Trazado 998447" d="M131.16,33.711H98.809l2.537-5.745H133.7Z" transform="translate(23.977 6.905)" fill="#19538d"/>
        <path id="Trazado_998448" data-name="Trazado 998448" d="M45.981,13.965H3.483L6.02,8.221h42.5Z" transform="translate(0.935 2.207)" fill="#19538d"/>
        <g id="Grupo_1179060" data-name="Grupo 1179060" transform="translate(0)">
          <g id="Grupo_1179059" data-name="Grupo 1179059" clip-path="url(#clip-path)">
            <path id="Trazado_998449" data-name="Trazado 998449" d="M79.257,132.183A67.757,67.757,0,0,1,13.15,49.237H4.12a76.641,76.641,0,0,0,134.831,63.179H127.129a67.636,67.636,0,0,1-47.872,19.767" transform="translate(0.649 12.195)" fill="#19538d"/>
            <path id="Trazado_998450" data-name="Trazado 998450" d="M110.835,89.888h10.029c.805-1.6,1.537-3.245,2.231-4.908h-9.642c-.81,1.674-1.678,3.314-2.618,4.908" transform="translate(27.546 21.048)" fill="#19538d"/>
            <path id="Trazado_998451" data-name="Trazado 998451" d="M155.215,76.593A76.663,76.663,0,0,0,5.373,53.814h9.3A67.827,67.827,0,1,1,141.5,101.872h9.4a76.209,76.209,0,0,0,4.315-25.279" transform="translate(1.335)" fill="#19538d"/>
            <path id="Trazado_998452" data-name="Trazado 998452" d="M108.562,81.649v4.156h5.456q.989-2.042,1.842-4.156Z" transform="translate(26.981 20.223)" fill="#19538d"/>
            <path id="Trazado_998453" data-name="Trazado 998453" d="M129.825,81.649h-7.576q-.74,2.107-1.594,4.156h9.17Z" transform="translate(29.986 20.223)" fill="#19538d"/>
          </g>
        </g>
        <path id="Trazado_998444" data-name="Trazado 998444" d="M3.8,37.025,0,44.77H23l3.805-7.745Z" transform="translate(0 9.13)" fill="#19538d"/>
      </g>
    </g>
    <g id="Grupo_1177669" data-name="Grupo 1177669" transform="translate(416.649 8431.903)">
      <g id="Grupo_1099618" data-name="Grupo 1099618" transform="translate(0 0)">
        <rect id="Rectángulo_401104" data-name="Rectángulo 401104" width="93.646" height="94.775" transform="translate(0)" fill="none"/>
      </g>
      <g id="User_Interface" data-name="User Interface" transform="translate(1.278 0.671)">
        <path id="Trazado_1030739" data-name="Trazado 1030739" d="M86.646,76.7h-1.42V25.568a5.682,5.682,0,0,0-5.682-5.682h-7.1V1.42A1.42,1.42,0,0,0,71.021,0H19.886a1.42,1.42,0,0,0-1.42,1.42V19.886h-7.1a5.682,5.682,0,0,0-5.682,5.682V76.7H4.261A4.261,4.261,0,0,0,0,80.964v2.841a7.1,7.1,0,0,0,7.1,7.1h76.7a7.1,7.1,0,0,0,7.1-7.1V80.964A4.261,4.261,0,0,0,86.646,76.7ZM14.2,71.021V28.409h4.261V71.021Zm7.1-59.658H69.6V71.021H21.306ZM72.442,28.409H76.7V71.021H72.442ZM21.306,2.841H69.6V8.523H21.306ZM8.523,25.568a2.841,2.841,0,0,1,2.841-2.841h7.1v2.841H12.784a1.42,1.42,0,0,0-1.42,1.42V72.442a1.42,1.42,0,0,0,1.42,1.42h65.34a1.42,1.42,0,0,0,1.42-1.42V26.988a1.42,1.42,0,0,0-1.42-1.42H72.442V22.727h7.1a2.841,2.841,0,0,1,2.841,2.841V76.7H8.523ZM57,79.544l-.952,1.42H34.857l-.952-1.42Zm31.065,4.261a4.261,4.261,0,0,1-4.261,4.261H7.1a4.261,4.261,0,0,1-4.261-4.261V80.964a1.42,1.42,0,0,1,1.42-1.42H30.482l2.429,3.622c.6.909-.582.639,23.906.639.98,0,1.051-.426,3.608-4.261H86.646a1.42,1.42,0,0,1,1.42,1.42Z" transform="translate(0)" fill="#fff"/>
        <path id="Trazado_1030740" data-name="Trazado 1030740" d="M18.42,3a1.42,1.42,0,1,0,1.42,1.42A1.42,1.42,0,0,0,18.42,3Z" transform="translate(7.147 1.261)" fill="#fff"/>
        <path id="Trazado_1030741" data-name="Trazado 1030741" d="M22.42,3a1.42,1.42,0,1,0,1.42,1.42A1.42,1.42,0,0,0,22.42,3Z" transform="translate(8.829 1.261)" fill="#fff"/>
        <path id="Trazado_1030742" data-name="Trazado 1030742" d="M26.42,3a1.42,1.42,0,1,0,1.42,1.42A1.42,1.42,0,0,0,26.42,3Z" transform="translate(10.511 1.261)" fill="#fff"/>
        <path id="Trazado_1030743" data-name="Trazado 1030743" d="M56.351,10H19.42A1.42,1.42,0,0,0,18,11.42v14.2a1.42,1.42,0,0,0,1.42,1.42H56.351a1.42,1.42,0,0,0,1.42-1.42V11.42A1.42,1.42,0,0,0,56.351,10Zm-1.42,14.2H20.841V12.841h34.09Z" transform="translate(7.568 4.204)" fill="#fff"/>
        <path id="Trazado_1030744" data-name="Trazado 1030744" d="M33.682,35.363A5.682,5.682,0,1,0,28,29.682,5.682,5.682,0,0,0,33.682,35.363Zm0-8.523a2.841,2.841,0,1,1-2.841,2.841A2.841,2.841,0,0,1,33.682,26.841Z" transform="translate(11.772 10.09)" fill="#fff"/>
        <path id="Trazado_1030745" data-name="Trazado 1030745" d="M43.682,24a5.682,5.682,0,1,0,5.682,5.682A5.682,5.682,0,0,0,43.682,24Zm0,8.523a2.841,2.841,0,1,1,2.841-2.841A2.841,2.841,0,0,1,43.682,32.523Z" transform="translate(15.976 10.09)" fill="#fff"/>
        <path id="Trazado_1030746" data-name="Trazado 1030746" d="M23.682,35.363A5.682,5.682,0,1,0,18,29.682,5.682,5.682,0,0,0,23.682,35.363Zm0-8.523a2.841,2.841,0,1,1-2.841,2.841A2.841,2.841,0,0,1,23.682,26.841Z" transform="translate(7.568 10.09)" fill="#fff"/>
        <path id="Trazado_1030747" data-name="Trazado 1030747" d="M19.42,36.841h8.523a1.42,1.42,0,1,0,0-2.841H19.42a1.42,1.42,0,1,0,0,2.841Z" transform="translate(7.568 14.294)" fill="#fff"/>
        <path id="Trazado_1030748" data-name="Trazado 1030748" d="M19.42,40.841h8.523a1.42,1.42,0,1,0,0-2.841H19.42a1.42,1.42,0,1,0,0,2.841Z" transform="translate(7.568 15.976)" fill="#fff"/>
        <path id="Trazado_1030749" data-name="Trazado 1030749" d="M29.42,36.841h8.523a1.42,1.42,0,0,0,0-2.841H29.42a1.42,1.42,0,1,0,0,2.841Z" transform="translate(11.772 14.294)" fill="#fff"/>
        <path id="Trazado_1030750" data-name="Trazado 1030750" d="M29.42,40.841h8.523a1.42,1.42,0,0,0,0-2.841H29.42a1.42,1.42,0,1,0,0,2.841Z" transform="translate(11.772 15.976)" fill="#fff"/>
        <path id="Trazado_1030751" data-name="Trazado 1030751" d="M47.943,34H39.42a1.42,1.42,0,1,0,0,2.841h8.523a1.42,1.42,0,0,0,0-2.841Z" transform="translate(15.976 14.294)" fill="#fff"/>
        <path id="Trazado_1030752" data-name="Trazado 1030752" d="M47.943,38H39.42a1.42,1.42,0,1,0,0,2.841h8.523a1.42,1.42,0,0,0,0-2.841Z" transform="translate(15.976 15.976)" fill="#fff"/>
        <path id="Trazado_1030753" data-name="Trazado 1030753" d="M56.351,42H19.42A1.42,1.42,0,0,0,18,43.42V49.1a1.42,1.42,0,0,0,1.42,1.42H56.351a1.42,1.42,0,0,0,1.42-1.42V43.42A1.42,1.42,0,0,0,56.351,42Zm-1.42,5.682H20.841V44.841h34.09Z" transform="translate(7.568 17.658)" fill="#fff"/>
      </g>
    </g>
  </g>
</svg>
