<svg xmlns="http://www.w3.org/2000/svg" width="98" height="98" viewBox="0 0 98 98">
  <g id="Grupo_1185706" data-name="Grupo 1185706" transform="translate(-593 -524)">
    <g id="Grupo_1185693" data-name="Grupo 1185693" transform="translate(303.391 -11087.898)">
      <g id="Grupo_1177473" data-name="Grupo 1177473" transform="translate(289.609 11611.898)">
        <ellipse id="Elipse_13609" data-name="Elipse 13609" cx="49" cy="49" rx="49" ry="49" transform="translate(0)" fill="#7a4f1e"/>
      </g>
    </g>
    <g id="Grupo_1179969" data-name="Grupo 1179969" transform="translate(613 543)">
      <rect id="Rectángulo_456311" data-name="Rectángulo 456311" width="58.996" height="59.423" transform="translate(0 0)" fill="none"/>
      <g id="Icons" transform="translate(1.649 2.676)">
        <path id="Trazado_1031370" data-name="Trazado 1031370" d="M52.913,3.713h-6.5V2.785A2.785,2.785,0,0,0,43.63,0H32.491a2.785,2.785,0,0,0-2.785,2.785v.928H25.993V2.785A2.785,2.785,0,0,0,23.208,0H12.068A2.785,2.785,0,0,0,9.283,2.785v.928h-6.5A2.785,2.785,0,0,0,0,6.5V41.774a2.785,2.785,0,0,0,2.785,2.785H20.423V46.9l-4.293,3.435a.928.928,0,0,0-.348.725v1.857A2.785,2.785,0,0,0,18.566,55.7H37.132a2.785,2.785,0,0,0,2.785-2.785V51.057a.928.928,0,0,0-.348-.725L35.276,46.9V44.559H52.913A2.785,2.785,0,0,0,55.7,41.774V6.5a2.785,2.785,0,0,0-2.785-2.785ZM12.068,33.419h11.14a2.785,2.785,0,0,0,2.785-2.785V9.283h3.713V30.634a2.785,2.785,0,0,0,2.785,2.785H43.63a2.785,2.785,0,0,0,2.785-2.785V9.283h3.713V35.276H5.57V9.283H9.283V30.634A2.785,2.785,0,0,0,12.068,33.419ZM31.562,2.785a.928.928,0,0,1,.928-.928H43.63a.928.928,0,0,1,.928.928H43.63a.928.928,0,1,0,0,1.857h.928V6.5H43.63a.928.928,0,1,0,0,1.857h.928v1.857H43.63a.928.928,0,1,0,0,1.857h.928v1.857H43.63a.928.928,0,1,0,0,1.857h.928v1.857H43.63a.928.928,0,1,0,0,1.857h.928v1.857H43.63a.928.928,0,1,0,0,1.857h.928v1.857H43.63a.928.928,0,1,0,0,1.857h.928v1.857H43.63a.928.928,0,1,0,0,1.857h.928a.928.928,0,0,1-.928.928H32.491a.928.928,0,0,1-.928-.928ZM29.706,5.57V7.426H25.993V5.57ZM11.14,2.785a.928.928,0,0,1,.928-.928h11.14a.928.928,0,0,1,.928.928h-.928a.928.928,0,0,0,0,1.857h.928V6.5h-.928a.928.928,0,0,0,0,1.857h.928v1.857h-.928a.928.928,0,0,0,0,1.857h.928v1.857h-.928a.928.928,0,0,0,0,1.857h.928v1.857h-.928a.928.928,0,0,0,0,1.857h.928v1.857h-.928a.928.928,0,0,0,0,1.857h.928v1.857h-.928a.928.928,0,0,0,0,1.857h.928v1.857h-.928a.928.928,0,0,0,0,1.857h.928a.928.928,0,0,1-.928.928H12.068a.928.928,0,0,1-.928-.928Zm25.2,47.344H19.354l2.321-1.857H34.021Zm.79,3.713H18.566a.928.928,0,0,1-.928-.928v-.928H38.061v.928A.928.928,0,0,1,37.132,53.842Zm-3.713-7.426H22.279V44.559h11.14Zm20.423-4.642a.928.928,0,0,1-.928.928H2.785a.928.928,0,0,1-.928-.928V6.5a.928.928,0,0,1,.928-.928h6.5V7.426H5.57A1.857,1.857,0,0,0,3.713,9.283V35.276A1.857,1.857,0,0,0,5.57,37.132H50.129a1.857,1.857,0,0,0,1.857-1.857V9.283a1.857,1.857,0,0,0-1.857-1.857H46.415V5.57h6.5a.928.928,0,0,1,.928.928Z" transform="translate(0 0)" fill="#fff"/>
        <path id="Trazado_1031371" data-name="Trazado 1031371" d="M31.642,42H27.928a.928.928,0,1,0,0,1.857h3.713a.928.928,0,1,0,0-1.857Z" transform="translate(-1.936 -3.011)" fill="#fff"/>
        <path id="Trazado_1031372" data-name="Trazado 1031372" d="M15.857,11.426h2.785A1.857,1.857,0,0,0,20.5,9.57V5.857A1.857,1.857,0,0,0,18.642,4H15.857A1.857,1.857,0,0,0,14,5.857V9.57A1.857,1.857,0,0,0,15.857,11.426Zm0-5.57h2.785V9.57H15.857Z" transform="translate(-1.004 -0.287)" fill="#fff"/>
        <path id="Trazado_1031373" data-name="Trazado 1031373" d="M15.857,21.426h2.785A1.857,1.857,0,0,0,20.5,19.57V15.857A1.857,1.857,0,0,0,18.642,14H15.857A1.857,1.857,0,0,0,14,15.857V19.57A1.857,1.857,0,0,0,15.857,21.426Zm0-5.57h2.785V19.57H15.857Z" transform="translate(-1.004 -1.004)" fill="#fff"/>
        <path id="Trazado_1031374" data-name="Trazado 1031374" d="M15.857,31.426h2.785A1.857,1.857,0,0,0,20.5,29.57V25.857A1.857,1.857,0,0,0,18.642,24H15.857A1.857,1.857,0,0,0,14,25.857V29.57A1.857,1.857,0,0,0,15.857,31.426Zm0-5.57h2.785V29.57H15.857Z" transform="translate(-1.004 -1.721)" fill="#fff"/>
        <path id="Trazado_1031375" data-name="Trazado 1031375" d="M37.857,11.426h2.785A1.857,1.857,0,0,0,42.5,9.57V5.857A1.857,1.857,0,0,0,40.642,4H37.857A1.857,1.857,0,0,0,36,5.857V9.57A1.857,1.857,0,0,0,37.857,11.426Zm0-5.57h2.785V9.57H37.857Z" transform="translate(-2.581 -0.287)" fill="#fff"/>
        <path id="Trazado_1031376" data-name="Trazado 1031376" d="M37.857,21.426h2.785A1.857,1.857,0,0,0,42.5,19.57V15.857A1.857,1.857,0,0,0,40.642,14H37.857A1.857,1.857,0,0,0,36,15.857V19.57A1.857,1.857,0,0,0,37.857,21.426Zm0-5.57h2.785V19.57H37.857Z" transform="translate(-2.581 -1.004)" fill="#fff"/>
        <path id="Trazado_1031377" data-name="Trazado 1031377" d="M37.857,31.426h2.785A1.857,1.857,0,0,0,42.5,29.57V25.857A1.857,1.857,0,0,0,40.642,24H37.857A1.857,1.857,0,0,0,36,25.857V29.57A1.857,1.857,0,0,0,37.857,31.426Zm0-5.57h2.785V29.57H37.857Z" transform="translate(-2.581 -1.721)" fill="#fff"/>
      </g>
    </g>
  </g>
</svg>
