<svg xmlns="http://www.w3.org/2000/svg" xmlns:xlink="http://www.w3.org/1999/xlink" width="129" height="127" viewBox="0 0 129 127">
  <defs>
    <clipPath id="clip-path">
      <rect id="Rectángulo_454807" data-name="Rectángulo 454807" width="129" height="127" transform="translate(399.059 5904)" fill="#9ecfff"/>
    </clipPath>
  </defs>
  <g id="Grupo_1185663" data-name="Grupo 1185663" transform="translate(-409 -5771)">
    <g id="Grupo_1185657" data-name="Grupo 1185657" transform="translate(9.941 1071)">
      <g id="Grupo_1177492" data-name="Grupo 1177492" transform="translate(0 -1204)">
        <rect id="Rectángulo_454806" data-name="Rectángulo 454806" width="129" height="127" transform="translate(399.059 5904)" fill="#9ecfff"/>
        <path id="Rectángulo_454808" data-name="Rectángulo 454808" d="M0,0H79A12,12,0,0,1,91,12V91a0,0,0,0,1,0,0H12A12,12,0,0,1,0,79V0A0,0,0,0,1,0,0Z" transform="translate(418.059 5922)" fill="#fff"/>
        <g id="Grupo_1185662" data-name="Grupo 1185662" transform="translate(17.672 -2495.781)">
          <g id="Grupo_1099776" data-name="Grupo 1099776" transform="translate(412.387 8428.781)">
            <g id="Grupo_1099618" data-name="Grupo 1099618" transform="translate(0 0)">
              <rect id="Rectángulo_401104" data-name="Rectángulo 401104" width="67.943" height="68.761" transform="translate(0)" fill="none"/>
            </g>
            <g id="OUTLINE" transform="translate(-16 -14.438)">
              <path id="Trazado_1030532" data-name="Trazado 1030532" d="M70.506,47.613a4.36,4.36,0,0,0,4.36-4.36v-3.27h3.27a3.274,3.274,0,0,0,3.27-3.27V20.36A4.363,4.363,0,0,0,77.046,16H39.982a4.365,4.365,0,0,0-4.36,4.36v2.18H19.27A3.274,3.274,0,0,0,16,25.811V78.136a3.274,3.274,0,0,0,3.27,3.27H58.514a3.274,3.274,0,0,0,3.27-3.27v-3.27H59.6v3.27a1.091,1.091,0,0,1-1.09,1.09H19.27a1.091,1.091,0,0,1-1.09-1.09V25.811a1.091,1.091,0,0,1,1.09-1.09H60.191A4.332,4.332,0,0,0,59.6,26.9V51.1a10.823,10.823,0,0,0-3.27,1.247v-20H21.451V67.235h30.9A10.882,10.882,0,0,0,66.7,71.51l8.9,8.9A3.4,3.4,0,1,0,80.41,75.6l-8.9-8.9a10.894,10.894,0,0,0-9.726-15.815v-3.27ZM76.948,18.18h.082a2.19,2.19,0,0,1,1.557.64,2.16,2.16,0,0,1,.639,1.54V36.712a1.091,1.091,0,0,1-1.09,1.09h-3.27V20.262a2.085,2.085,0,0,1,2.082-2.082ZM61.785,45.433V26.9a2.18,2.18,0,1,1,4.36,0V43.252a4.332,4.332,0,0,0,.587,2.18Zm-27.253-10.9H54.154V37.8H34.532Zm19.622,5.451v2.18H45.433v-2.18Zm-21.8,25.073H23.631V39.982h8.721Zm0-27.253H23.631v-3.27h8.721Zm10.9,27.253H34.532V44.342h8.721Zm0-22.892H34.532v-2.18h8.721Zm8.133,22.892H45.433V44.342h8.721v9.667A10.885,10.885,0,0,0,51.385,65.055ZM78.869,77.139a1.222,1.222,0,0,1-1.729,1.729L68.575,70.3A10.992,10.992,0,0,0,70.3,68.574ZM70.506,61.784a8.721,8.721,0,1,1-8.721-8.721A8.721,8.721,0,0,1,70.506,61.784ZM37.8,22.54V20.36a2.183,2.183,0,0,1,2.18-2.18H73.231a4.235,4.235,0,0,0-.545,2.083v22.99a2.18,2.18,0,0,1-4.36,0V26.9a4.36,4.36,0,0,0-4.36-4.36Z" transform="translate(0 0)" fill="#19538d"/>
              <path id="Trazado_1030533" data-name="Trazado 1030533" d="M128,104h15.262v2.18H128Z" transform="translate(-96.738 -76.009)" fill="#19538d"/>
              <path id="Trazado_1030534" data-name="Trazado 1030534" d="M176,336h2.18v2.18H176Z" transform="translate(-138.198 -276.396)" fill="#19538d"/>
              <path id="Trazado_1030535" data-name="Trazado 1030535" d="M256,240h2.18v2.18H256Z" transform="translate(-207.297 -193.477)" fill="#19538d"/>
              <path id="Trazado_1030536" data-name="Trazado 1030536" d="M256,272h2.18v2.18H256Z" transform="translate(-207.297 -221.117)" fill="#19538d"/>
              <path id="Trazado_1030537" data-name="Trazado 1030537" d="M176,304h2.18v2.18H176Z" transform="translate(-138.198 -248.756)" fill="#19538d"/>
              <path id="Trazado_1030538" data-name="Trazado 1030538" d="M323.27,320v3.27H320v2.18h3.27v3.27h2.18v-3.27h3.27v-2.18h-3.27V320Z" transform="translate(-262.576 -262.576)" fill="#19538d"/>
              <path id="Trazado_1030539" data-name="Trazado 1030539" d="M93.706,416H70.483l-4.905,3.27,4.905,3.27H93.706a3.27,3.27,0,0,0,0-6.541Zm-21.8,4.36h-.76l-1.635-1.09,1.635-1.09h.76Zm21.8,0H74.084v-2.18H93.706a1.09,1.09,0,1,1,0,2.18Z" transform="translate(-42.822 -345.495)" fill="#19538d"/>
              <path id="Trazado_1030540" data-name="Trazado 1030540" d="M88,240h4.36v2.18H88Z" transform="translate(-62.189 -193.477)" fill="#19538d"/>
              <path id="Trazado_1030541" data-name="Trazado 1030541" d="M88,272h4.36v2.18H88Z" transform="translate(-62.189 -221.117)" fill="#19538d"/>
              <path id="Trazado_1030542" data-name="Trazado 1030542" d="M88,304h4.36v2.18H88Z" transform="translate(-62.189 -248.756)" fill="#19538d"/>
              <path id="Trazado_1030543" data-name="Trazado 1030543" d="M88,336h4.36v2.18H88Z" transform="translate(-62.189 -276.396)" fill="#19538d"/>
            </g>
          </g>
        </g>
      </g>
      <path id="Trazado_998457" data-name="Trazado 998457" d="M21.193,13.724H3.483l2.43-5.5h17.71Z" transform="translate(406.088 4714.021)" fill="#fff"/>
      <path id="Trazado_998459" data-name="Trazado 998459" d="M21.193,13.724H3.483l2.43-5.5h17.71Z" transform="translate(497.088 4790.021)" fill="#fff"/>
      <path id="Trazado_998458" data-name="Trazado 998458" d="M21.193,13.724H3.483l2.43-5.5h17.71Z" transform="translate(401.088 4719.524)" fill="#9ecfff"/>
      <path id="Trazado_998461" data-name="Trazado 998461" d="M18.607,11.366H3.483L4.872,8.221H20Z" transform="translate(494.518 4795.524)" fill="#9ecfff"/>
      <path id="Trazado_998462" data-name="Trazado 998462" d="M18.607,11.366H3.483L4.872,8.221H20Z" transform="translate(497.088 4734.779)" fill="#9ecfff"/>
      <path id="Trazado_998463" data-name="Trazado 998463" d="M18.607,11.366H3.483L4.872,8.221H20Z" transform="translate(402.902 4780.779)" fill="#9ecfff"/>
    </g>
  </g>
</svg>
