<svg xmlns="http://www.w3.org/2000/svg" width="98" height="98" viewBox="0 0 98 98">
  <g id="Grupo_1185718" data-name="Grupo 1185718" transform="translate(-8883 5160)">
    <g id="Grupo_1185702" data-name="Grupo 1185702" transform="translate(8593.391 -16771.898)">
      <g id="Grupo_1177473" data-name="Grupo 1177473" transform="translate(289.609 11611.898)">
        <ellipse id="Elipse_13609" data-name="Elipse 13609" cx="49" cy="49" rx="49" ry="49" transform="translate(0)" fill="#19538d"/>
      </g>
    </g>
    <g id="Grupo_1185712" data-name="Grupo 1185712" transform="translate(8899.904 -5143)">
      <rect id="Rectángulo_456311" data-name="Rectángulo 456311" width="64.131" height="64.594" transform="translate(0.36)" fill="none"/>
      <g id="Grupo_1185722" data-name="Grupo 1185722" transform="translate(-0.264 -0.373)">
        <rect id="Rectángulo_456311-2" data-name="Rectángulo 456311" width="64.131" height="64.594" transform="translate(0.36)" fill="none"/>
        <g id="elevar-a-mismo-nivel" transform="translate(-1.591 -2.626)">
          <path id="Trazado_1031279" data-name="Trazado 1031279" d="M14.409,49.84A3.33,3.33,0,0,0,15.482,50a3.47,3.47,0,0,0,3.35-2.461l4.022-12.911,5.063,1.084,1.344,5.594a3.5,3.5,0,0,0,6.819-1.626l-1.854-7.74a3.526,3.526,0,0,0-2.678-2.6L24,27.726l.108-6.537,6.461,2.58a3.512,3.512,0,0,0,4.553-1.93,3.426,3.426,0,0,0-.022-2.678,3.5,3.5,0,0,0-1.919-1.875L22.008,12.809a3.567,3.567,0,0,0-3.252.325A3.506,3.506,0,0,0,17.195,16l-.249,14L12.132,45.483a3.487,3.487,0,0,0,2.277,4.358Z" transform="translate(0.254 0.888)" fill="#fff"/>
          <path id="Trazado_1031280" data-name="Trazado 1031280" d="M22.226,11.908A4.954,4.954,0,1,0,17.25,6.954,4.962,4.962,0,0,0,22.226,11.908Z" transform="translate(0.698)" fill="#fff"/>
          <path id="Trazado_1031281" data-name="Trazado 1031281" d="M55.082,37.42H42.854A1.08,1.08,0,0,0,41.77,38.5V62.982a1.08,1.08,0,0,0,1.084,1.084H55.082a1.087,1.087,0,0,0,1.084-1.084V38.5A1.087,1.087,0,0,0,55.082,37.42Z" transform="translate(2.758 2.977)" fill="#fff"/>
          <path id="Trazado_1031282" data-name="Trazado 1031282" d="M38.672,43.4H26.444a1.087,1.087,0,0,0-1.084,1.084v18a1.087,1.087,0,0,0,1.084,1.084H38.672a1.08,1.08,0,0,0,1.084-1.084v-18A1.08,1.08,0,0,0,38.672,43.4Z" transform="translate(1.379 3.48)" fill="#fff"/>
          <path id="Trazado_1031283" data-name="Trazado 1031283" d="M22.262,49.39H10.034A1.08,1.08,0,0,0,8.95,50.474v11.5a1.087,1.087,0,0,0,1.084,1.084H22.262a1.08,1.08,0,0,0,1.084-1.084v-11.5A1.074,1.074,0,0,0,22.262,49.39Z" transform="translate(0 3.983)" fill="#fff"/>
        </g>
      </g>
    </g>
  </g>
</svg>
