<svg xmlns="http://www.w3.org/2000/svg" width="98" height="98" viewBox="0 0 98 98">
  <g id="Grupo_1185707" data-name="Grupo 1185707" transform="translate(-908 -524)">
    <g id="Grupo_1185694" data-name="Grupo 1185694" transform="translate(618.391 -11087.898)">
      <g id="Grupo_1177473" data-name="Grupo 1177473" transform="translate(289.609 11611.898)">
        <ellipse id="Elipse_13609" data-name="Elipse 13609" cx="49" cy="49" rx="49" ry="49" transform="translate(0)" fill="#62249e"/>
      </g>
    </g>
    <g id="Grupo_1179969" data-name="Grupo 1179969" transform="translate(928 543)">
      <rect id="Rectángulo_456311" data-name="Rectángulo 456311" width="58.996" height="59.423" transform="translate(0 0)" fill="none"/>
      <g id="Icons" transform="translate(1.257 4.687)">
        <path id="Trazado_1031378" data-name="Trazado 1031378" d="M53.659,2H2.824A2.824,2.824,0,0,0,0,4.824V40.6a2.824,2.824,0,0,0,2.824,2.824H20.71v2.371l-4.354,3.483A.941.941,0,0,0,16,50.01v1.883a2.824,2.824,0,0,0,2.824,2.824H37.655a2.824,2.824,0,0,0,2.824-2.824V50.01a.941.941,0,0,0-.353-.735l-4.354-3.483V43.421H53.659A2.824,2.824,0,0,0,56.483,40.6V4.824A2.824,2.824,0,0,0,53.659,2Zm-16.8,47.069H19.627l2.353-1.883H34.5Zm.8,3.766H18.828a.941.941,0,0,1-.941-.941v-.941H38.6v.941A.941.941,0,0,1,37.655,52.835ZM33.89,45.3h-11.3V43.421h11.3ZM54.6,40.6a.941.941,0,0,1-.941.941H2.824a.941.941,0,0,1-.941-.941V4.824a.941.941,0,0,1,.941-.941H53.659a.941.941,0,0,1,.941.941Z" transform="translate(0 -2)" fill="#fff"/>
        <path id="Trazado_1031379" data-name="Trazado 1031379" d="M51.069,6H5.883A1.883,1.883,0,0,0,4,7.883V34.241a1.883,1.883,0,0,0,1.883,1.883H51.069a1.883,1.883,0,0,0,1.883-1.883V7.883A1.883,1.883,0,0,0,51.069,6ZM5.883,34.241V25.769h3a2.824,2.824,0,1,0,0-1.883h-3V18.238h3a2.824,2.824,0,1,0,0-1.883h-3V7.883H51.069v8.472h-3a2.824,2.824,0,1,0,0,1.883h3v5.648h-3a2.824,2.824,0,1,0,0,1.883h3v8.472Zm4.707-9.414a.941.941,0,1,1,.941.941A.941.941,0,0,1,10.59,24.828Zm0-7.531a.941.941,0,1,1,.941.941A.941.941,0,0,1,10.59,17.3Zm35.772,0a.941.941,0,1,1-.941-.941A.941.941,0,0,1,46.362,17.3Zm0,7.531a.941.941,0,1,1-.941-.941A.941.941,0,0,1,46.362,24.828Z" transform="translate(-0.234 -2.234)" fill="#fff"/>
        <path id="Trazado_1031380" data-name="Trazado 1031380" d="M31.707,40H27.941a.941.941,0,1,0,0,1.883h3.766a.941.941,0,0,0,0-1.883Z" transform="translate(-1.583 -4.228)" fill="#fff"/>
        <path id="Trazado_1031381" data-name="Trazado 1031381" d="M39.652,16.59a.941.941,0,0,0,0-1.883H38.71a2.824,2.824,0,0,0-2.824-2.824v-.941a.941.941,0,0,0-1.883,0v.941H32.121v-.941a.941.941,0,0,0-1.883,0v.941H28.355v-.941a.941.941,0,0,0-1.883,0v.941H24.59v-.941a.941.941,0,0,0-1.883,0v.941a2.824,2.824,0,0,0-2.824,2.824h-.941a.941.941,0,0,0,0,1.883h.941v1.883h-.941a.941.941,0,0,0,0,1.883h.941v1.883h-.941a.941.941,0,0,0,0,1.883h.941V26h-.941a.941.941,0,0,0,0,1.883h.941a2.824,2.824,0,0,0,2.824,2.824v.941a.941.941,0,1,0,1.883,0V30.71h1.883v.941a.941.941,0,1,0,1.883,0V30.71h1.883v.941a.941.941,0,1,0,1.883,0V30.71H34v.941a.941.941,0,1,0,1.883,0V30.71a2.824,2.824,0,0,0,2.824-2.824h.941a.941.941,0,0,0,0-1.883H38.71V24.121h.941a.941.941,0,0,0,0-1.883H38.71V20.355h.941a.941.941,0,0,0,0-1.883H38.71V16.59Zm-2.824,11.3a.941.941,0,0,1-.941.941H22.707a.941.941,0,0,1-.941-.941V14.707a.941.941,0,0,1,.941-.941H35.886a.941.941,0,0,1,.941.941Z" transform="translate(-1.055 -2.469)" fill="#fff"/>
        <path id="Trazado_1031382" data-name="Trazado 1031382" d="M25.883,21.648h1.883a1.883,1.883,0,0,0,1.883-1.883V17.883A1.883,1.883,0,0,0,27.766,16H25.883A1.883,1.883,0,0,0,24,17.883v1.883A1.883,1.883,0,0,0,25.883,21.648Zm0-3.766h1.883v1.883H25.883Z" transform="translate(-1.407 -2.821)" fill="#fff"/>
        <path id="Trazado_1031383" data-name="Trazado 1031383" d="M34.824,16H32.941a.941.941,0,1,0,0,1.883h1.883a.941.941,0,1,0,0-1.883Z" transform="translate(-1.876 -2.821)" fill="#fff"/>
        <path id="Trazado_1031384" data-name="Trazado 1031384" d="M34.824,20H32.941a.941.941,0,1,0,0,1.883h1.883a.941.941,0,1,0,0-1.883Z" transform="translate(-1.876 -3.055)" fill="#fff"/>
        <path id="Trazado_1031385" data-name="Trazado 1031385" d="M34.355,25H24.941a.941.941,0,1,0,0,1.883h9.414a.941.941,0,0,0,0-1.883Z" transform="translate(-1.407 -3.348)" fill="#fff"/>
      </g>
    </g>
  </g>
</svg>
