<svg xmlns="http://www.w3.org/2000/svg" xmlns:xlink="http://www.w3.org/1999/xlink" width="150" height="150" viewBox="0 0 150 150">
  <defs>
    <clipPath id="clip-path">
      <rect id="Rectángulo_455533" data-name="Rectángulo 455533" width="149.812" height="143.185" fill="#7a4f1e"/>
    </clipPath>
    <clipPath id="clip-path-2">
      <path id="path2013" d="M0-682.665H79.3v79.3H0Z" transform="translate(0 682.665)" fill="#fff"/>
    </clipPath>
  </defs>
  <g id="Grupo_1185614" data-name="Grupo 1185614" transform="translate(-305.059 -10093)">
    <g id="Grupo_1179079" data-name="Grupo 1179079" transform="translate(-78.59 1694.097)">
      <circle id="Elipse_13674" data-name="Elipse 13674" cx="65.5" cy="65.5" r="65.5" transform="translate(393.649 8407.903)" fill="#7a4f1e"/>
      <g id="Grupo_1179062" data-name="Grupo 1179062" transform="translate(383.649 8398.903)">
        <rect id="Rectángulo_455531" data-name="Rectángulo 455531" width="150" height="150" transform="translate(0 0)" fill="none"/>
        <g id="Grupo_1179061" data-name="Grupo 1179061" transform="translate(0.094 3.9)">
          <path id="Trazado_998445" data-name="Trazado 998445" d="M127.367,99.1H96.727l4.153-7.745h30.64Z" transform="translate(13.418 14.697)" fill="#7a4f1e"/>
          <path id="Trazado_998446" data-name="Trazado 998446" d="M2.518,86.893,0,92.019h33.78L36.3,86.893Z" transform="translate(0 14.142)" fill="#7a4f1e"/>
          <path id="Trazado_998447" data-name="Trazado 998447" d="M131.16,33.711H98.809l2.537-5.745H133.7Z" transform="translate(13.977 4.539)" fill="#7a4f1e"/>
          <path id="Trazado_998448" data-name="Trazado 998448" d="M45.981,13.965H3.483L6.02,8.221h42.5Z" transform="translate(0.935 2.207)" fill="#7a4f1e"/>
          <g id="Grupo_1179060" data-name="Grupo 1179060" transform="translate(0)">
            <g id="Grupo_1179059" data-name="Grupo 1179059" clip-path="url(#clip-path)">
              <path id="Trazado_998449" data-name="Trazado 998449" d="M74.461,126.768A63.317,63.317,0,0,1,12.49,49.237H4.026A71.853,71.853,0,0,0,130.42,108.291H119.338a63.5,63.5,0,0,1-44.877,18.477" transform="translate(0.445 8.185)" fill="#7a4f1e"/>
              <path id="Trazado_998450" data-name="Trazado 998450" d="M110.835,89.568h9.4c.755-1.5,1.441-3.033,2.091-4.588h-9.039c-.76,1.565-1.573,3.1-2.454,4.588" transform="translate(18.887 14.126)" fill="#7a4f1e"/>
              <path id="Trazado_998451" data-name="Trazado 998451" d="M145.839,71.593A71.893,71.893,0,0,0,5.373,50.3h8.722A63.623,63.623,0,0,1,137.577,71.593a62.852,62.852,0,0,1-4.591,23.629h8.808a71.048,71.048,0,0,0,4.045-23.629" transform="translate(0.916)" fill="#7a4f1e"/>
              <path id="Trazado_998452" data-name="Trazado 998452" d="M108.562,81.649v3.885h5.115q.927-1.909,1.726-3.885Z" transform="translate(18.499 13.573)" fill="#7a4f1e"/>
              <path id="Trazado_998453" data-name="Trazado 998453" d="M129.252,81.649h-7.1q-.693,1.97-1.495,3.885h8.6Z" transform="translate(20.56 13.573)" fill="#7a4f1e"/>
            </g>
          </g>
          <path id="Trazado_998444" data-name="Trazado 998444" d="M3.8,37.025,0,44.77H23l3.805-7.745Z" transform="translate(0 5.957)" fill="#7a4f1e"/>
        </g>
      </g>
    </g>
    <g id="Grupo_1185617" data-name="Grupo 1185617" transform="translate(337.06 10124)">
      <g id="g1983" transform="translate(3.548 4.435)">
        <g id="g1985" transform="translate(11.67 31.039)">
          <path id="path1987" d="M-113.212,4.762a1.873,1.873,0,0,1-1.328-.55,1.879,1.879,0,0,1,0-2.657L-100.2-12.783a1.879,1.879,0,0,1,2.657,0,1.879,1.879,0,0,1,0,2.657L-111.883,4.211A1.873,1.873,0,0,1-113.212,4.762Z" transform="translate(115.09 13.333)" fill="#fff"/>
        </g>
        <g id="g1989" transform="translate(11.67 39.434)">
          <path id="path1991" d="M-5.126-3.633h-6.331a1.879,1.879,0,0,1-1.878-1.879v-5.942a1.879,1.879,0,0,1,1.879-1.879,1.879,1.879,0,0,1,1.879,1.879v4.064h4.453A1.879,1.879,0,0,1-3.247-5.511,1.879,1.879,0,0,1-5.126-3.633Z" transform="translate(13.336 13.333)" fill="#fff"/>
        </g>
        <g id="g1993" transform="translate(33.564 61.664)">
          <path id="path1995" d="M-2.691-10.236h-9.094a1.549,1.549,0,0,1-1.549-1.549,1.549,1.549,0,0,1,1.549-1.549h9.094a1.549,1.549,0,0,1,1.549,1.549A1.549,1.549,0,0,1-2.691-10.236Z" transform="translate(13.333 13.333)" fill="#fff"/>
        </g>
        <g id="g1997" transform="translate(38.967 57.972)">
          <path id="path1999" d="M-13.5-64.678a1.544,1.544,0,0,1-1.1-.454,1.549,1.549,0,0,1,0-2.19l2.369-2.369-2.6-2.6a1.549,1.549,0,0,1,0-2.19,1.549,1.549,0,0,1,2.19,0l3.69,3.691a1.549,1.549,0,0,1,0,2.19l-3.464,3.464A1.544,1.544,0,0,1-13.5-64.678Z" transform="translate(15.279 74.93)" fill="#fff"/>
        </g>
        <g id="g2001" transform="translate(62.231 32.186)">
          <path id="path2003" d="M-11.531-101.2a1.8,1.8,0,0,1-1.8-1.8v-14.3a1.8,1.8,0,0,1,1.8-1.8,1.8,1.8,0,0,1,1.8,1.8V-103A1.8,1.8,0,0,1-11.531-101.2Z" transform="translate(13.333 119.105)" fill="#fff"/>
        </g>
        <g id="g2005" transform="translate(57.935 32.186)">
          <path id="path2007" d="M-73.126-35.257a1.8,1.8,0,0,1-1.275-.528,1.8,1.8,0,0,1,0-2.55l4.3-4.3a1.8,1.8,0,0,1,2.549,0l4.032,4.033a1.8,1.8,0,0,1,0,2.55,1.8,1.8,0,0,1-2.549,0l-2.757-2.758-3.021,3.021A1.8,1.8,0,0,1-73.126-35.257Z" transform="translate(74.929 43.159)" fill="#fff"/>
        </g>
        <g id="g2009" transform="translate(0 0)">
          <g id="g2011" clip-path="url(#clip-path-2)">
            <g id="g2017" transform="translate(58.928 13.398)">
              <path id="path2019" d="M-9.315-26.68a1.838,1.838,0,0,1-1.309-.542l-2.256-2.256a1.549,1.549,0,0,1,0-2.19,1.549,1.549,0,0,1,2.19,0l1.374,1.374,3.844-3.844a1.549,1.549,0,0,1,2.19,0,1.549,1.549,0,0,1,0,2.19l-4.726,4.725a1.836,1.836,0,0,1-1.307.542Z" transform="translate(13.333 34.592)" fill="#fff"/>
            </g>
            <g id="g2021" transform="translate(0 52.368)">
              <path id="path2023" d="M-188.03-148.789h-19.68a5.039,5.039,0,0,1-5.033-5.033v-11.242a5.039,5.039,0,0,1,5.033-5.033h19.68A5.039,5.039,0,0,1-183-165.064v11.242A5.039,5.039,0,0,1-188.03-148.789ZM-207.709-167a1.937,1.937,0,0,0-1.935,1.935v11.242a1.938,1.938,0,0,0,1.935,1.935h19.68a1.938,1.938,0,0,0,1.935-1.935v-11.242A1.937,1.937,0,0,0-188.03-167Z" transform="translate(212.742 170.097)" fill="#fff"/>
            </g>
            <g id="g2025" transform="translate(49.554 52.213)">
              <path id="path2027" d="M-188.03-152.325h-19.68a5.039,5.039,0,0,1-5.033-5.033v-11.706a5.039,5.039,0,0,1,5.033-5.033h19.68A5.039,5.039,0,0,1-183-169.064v11.706A5.039,5.039,0,0,1-188.03-152.325ZM-207.709-171a1.937,1.937,0,0,0-1.935,1.935v11.706a1.938,1.938,0,0,0,1.935,1.935h19.68a1.938,1.938,0,0,0,1.935-1.935v-11.706A1.937,1.937,0,0,0-188.03-171Z" transform="translate(212.742 174.097)" fill="#fff"/>
            </g>
            <g id="g2029" transform="translate(52.447 5.315)">
              <path id="path2031" d="M-88.721-164.109a11.674,11.674,0,0,1-11.66-11.661,11.674,11.674,0,0,1,11.66-11.66A11.674,11.674,0,0,1-77.06-175.77,11.674,11.674,0,0,1-88.721-164.109Zm0-20.223a8.572,8.572,0,0,0-8.563,8.563,8.573,8.573,0,0,0,8.563,8.563,8.573,8.573,0,0,0,8.563-8.563A8.573,8.573,0,0,0-88.721-184.333Z" transform="translate(100.381 187.43)" fill="#fff"/>
            </g>
            <g id="g2033" transform="translate(0 6.354)">
              <path id="path2035" d="M-100.064,8.439h-35.441a5.039,5.039,0,0,1-5.033-5.033V-8.3a5.039,5.039,0,0,1,5.033-5.033h11.292a1.549,1.549,0,0,1,1.549,1.549,1.549,1.549,0,0,1-1.549,1.549h-11.292A1.937,1.937,0,0,0-137.441-8.3V3.406a1.937,1.937,0,0,0,1.935,1.935h35.441a1.937,1.937,0,0,0,1.935-1.935V-8.3a1.937,1.937,0,0,0-1.935-1.935h-10.524a1.549,1.549,0,0,1-1.549-1.549,1.549,1.549,0,0,1,1.549-1.549h10.524A5.039,5.039,0,0,1-95.032-8.3V3.406A5.039,5.039,0,0,1-100.064,8.439Z" transform="translate(140.538 13.333)" fill="#fff"/>
            </g>
            <g id="g2037" transform="translate(23.217 7.903)">
              <path id="path2039" fill="#fff"/>
            </g>
            <g id="g2041" transform="translate(8.457 15.691)">
              <path id="path2043" d="M12.928-10.236H-11.784a1.549,1.549,0,0,1-1.549-1.549,1.549,1.549,0,0,1,1.549-1.549H12.928a1.549,1.549,0,0,1,1.549,1.549A1.549,1.549,0,0,1,12.928-10.236Z" transform="translate(13.333 13.333)" fill="#fff"/>
            </g>
            <g id="g2045" transform="translate(7.831 61.55)">
              <path id="path2047" d="M-1.1-10.236H-11.784a1.549,1.549,0,0,1-1.549-1.549,1.549,1.549,0,0,1,1.549-1.549H-1.1A1.549,1.549,0,0,1,.45-11.784,1.549,1.549,0,0,1-1.1-10.236Z" transform="translate(13.333 13.333)" fill="#fff"/>
            </g>
            <g id="g2049" transform="translate(57.535 61.55)">
              <path id="path2051" d="M-1.1-10.236H-11.784a1.549,1.549,0,0,1-1.549-1.549,1.549,1.549,0,0,1,1.549-1.549H-1.1A1.549,1.549,0,0,1,.45-11.784,1.549,1.549,0,0,1-1.1-10.236Z" transform="translate(13.333 13.333)" fill="#fff"/>
            </g>
          </g>
        </g>
      </g>
    </g>
  </g>
</svg>
