<svg xmlns="http://www.w3.org/2000/svg" xmlns:xlink="http://www.w3.org/1999/xlink" width="96" height="96" viewBox="0 0 96 96">
  <defs>
    <clipPath id="clip-path">
      <rect id="Rectángulo_455533" data-name="Rectángulo 455533" width="95.999" height="92.163" fill="#19538d"/>
    </clipPath>
    <clipPath id="clip-path-2">
      <rect id="Rectángulo_459252" data-name="Rectángulo 459252" width="47.15" height="47.092" fill="#fff"/>
    </clipPath>
  </defs>
  <g id="Grupo_1185641" data-name="Grupo 1185641" transform="translate(-963 -4372)">
    <g id="Grupo_1185648" data-name="Grupo 1185648">
      <g id="Grupo_1185627" data-name="Grupo 1185627" transform="translate(579.255 -4027)">
        <circle id="Elipse_13674" data-name="Elipse 13674" cx="41.5" cy="41.5" r="41.5" transform="translate(389.746 8406)" fill="#19538d"/>
        <g id="Grupo_1179062" data-name="Grupo 1179062" transform="translate(383.745 8399)">
          <rect id="Rectángulo_455531" data-name="Rectángulo 455531" width="96" height="96" transform="translate(0 0)" fill="none"/>
          <g id="Grupo_1179061" data-name="Grupo 1179061" transform="translate(0 2.203)">
            <path id="Trazado_998445" data-name="Trazado 998445" d="M114.467,95.838H96.727l2.4-4.484h17.739Z" transform="translate(-23.693 -22.7)" fill="#19538d"/>
            <path id="Trazado_998446" data-name="Trazado 998446" d="M1.458,86.893,0,89.861H19.558l1.458-2.968Z" transform="translate(0 -21.618)" fill="#19538d"/>
            <path id="Trazado_998447" data-name="Trazado 998447" d="M117.539,31.293H98.809l1.469-3.326h18.73Z" transform="translate(-24.246 -6.956)" fill="#19538d"/>
            <path id="Trazado_998448" data-name="Trazado 998448" d="M28.088,11.547H3.483L4.952,8.221H29.557Z" transform="translate(-0.925 -2.184)" fill="#19538d"/>
            <g id="Grupo_1179060" data-name="Grupo 1179060" transform="translate(0)">
              <g id="Grupo_1179059" data-name="Grupo 1179059" clip-path="url(#clip-path)">
                <path id="Trazado_998449" data-name="Trazado 998449" d="M48.653,99.141a40.772,40.772,0,0,1-39.711-49.9H3.518A46.036,46.036,0,0,0,84.512,87.248h-7.1A40.6,40.6,0,0,1,48.653,99.141" transform="translate(-0.653 -12.277)" fill="#19538d"/>
                <path id="Trazado_998450" data-name="Trazado 998450" d="M110.835,87.933h6.025c.484-.964.923-1.952,1.34-2.953h-5.792c-.487,1.007-1.008,1.994-1.573,2.953" transform="translate(-27.709 -21.189)" fill="#19538d"/>
                <path id="Trazado_998451" data-name="Trazado 998451" d="M95.384,46.081a46.043,46.043,0,0,0-90.011-13.7h5.589A40.752,40.752,0,1,1,87.147,61.291h5.644a45.915,45.915,0,0,0,2.592-15.209" transform="translate(-1.343)" fill="#19538d"/>
                <path id="Trazado_998452" data-name="Trazado 998452" d="M108.562,81.649v2.5h3.277q.594-1.228,1.106-2.5Z" transform="translate(-27.141 -20.358)" fill="#19538d"/>
                <path id="Trazado_998453" data-name="Trazado 998453" d="M126.164,81.649h-4.551q-.444,1.268-.958,2.5h5.509Z" transform="translate(-30.164 -20.358)" fill="#19538d"/>
              </g>
            </g>
            <path id="Trazado_998444" data-name="Trazado 998444" d="M2.2,37.025,0,41.509H13.317l2.2-4.484Z" transform="translate(0 -9.2)" fill="#19538d"/>
          </g>
        </g>
      </g>
      <g id="Grupo_1185647" data-name="Grupo 1185647" transform="translate(987.136 4396.453)" clip-path="url(#clip-path-2)">
        <path id="Trazado_1032428" data-name="Trazado 1032428" d="M37.9,28.755l-28.56.008c-4.879,0-8.71-4.094-9.247-8.6A9.8,9.8,0,0,1,7.208,9.516a9.929,9.929,0,0,1,5.657-8.6C16.623-.9,20.556.171,23.679,2.408c3.189-1.369,6.9-1.948,10.512-.27,2.855,1.325,4.945,4.319,6.1,7.283C44.6,11.326,47.736,15.2,47.082,20.2c-.572,4.372-4.261,8.555-9.182,8.556" transform="translate(-0.018 0.001)" fill="#fff"/>
        <path id="Trazado_1032429" data-name="Trazado 1032429" d="M132.107,219.807a5.049,5.049,0,1,1-2.729,0l.032-5.535a21.971,21.971,0,0,1,2.679-.024Z" transform="translate(-107.182 -182.657)" fill="#fff"/>
        <path id="Trazado_1032430" data-name="Trazado 1032430" d="M17.524,208.279c.035,1.4.044,2.764.005,4.214a1.3,1.3,0,0,1-1.324,1.174l-6.278.013a5.056,5.056,0,1,1,0-2.785l4.913,0,.022-2.573c.831-.1,1.6-.024,2.665-.045" transform="translate(0 -176.707)" fill="#fff"/>
        <path id="Trazado_1032431" data-name="Trazado 1032431" d="M200.811,208.306l2.666-.021.046,2.608,4.891.032a5.082,5.082,0,1,1,.018,2.758l-6.283-.018a1.283,1.283,0,0,1-1.319-1.171Z" transform="translate(-171.225 -176.708)" fill="#fff"/>
      </g>
    </g>
  </g>
</svg>
