<svg xmlns="http://www.w3.org/2000/svg" width="98" height="98" viewBox="0 0 98 98">
  <g id="Grupo_1185720" data-name="Grupo 1185720" transform="translate(-8883 5160)">
    <g id="Grupo_1185702" data-name="Grupo 1185702" transform="translate(8593.391 -16771.898)">
      <g id="Grupo_1177473" data-name="Grupo 1177473" transform="translate(289.609 11611.898)">
        <ellipse id="Elipse_13609" data-name="Elipse 13609" cx="49" cy="49" rx="49" ry="49" transform="translate(0)" fill="#62249e"/>
      </g>
    </g>
    <g id="Grupo_1185723" data-name="Grupo 1185723" transform="translate(8899.64 -5143)">
      <g id="cms" transform="translate(3.36 6.543)">
        <path id="Trazado_1031284" data-name="Trazado 1031284" d="M125.991,423.332h-5.465L119.415,420H99.242l-1.111,3.332H92.667a1.666,1.666,0,0,0,0,3.332h33.324a1.666,1.666,0,0,0,0-3.332Zm0,0" transform="translate(-80.892 -373.346)" fill="#fff"/>
        <path id="Trazado_1031285" data-name="Trazado 1031285" d="M392.666,90a1.666,1.666,0,1,0,1.666,1.666A1.667,1.667,0,0,0,392.666,90Zm0,0" transform="translate(-347.567 -80.003)" fill="#fff"/>
        <path id="Trazado_1031286" data-name="Trazado 1031286" d="M51.764,0H5A5,5,0,0,0,0,5V33.324H10.108v-5a1.666,1.666,0,0,1,1.666-1.666h2.574a14.829,14.829,0,0,1,.592-1.427L13.12,23.41a1.666,1.666,0,0,1,0-2.356l4.712-4.712a1.666,1.666,0,0,1,2.356,0l1.822,1.822a14.905,14.905,0,0,1,1.427-.594V15A1.666,1.666,0,0,1,25.1,13.33h6.665A1.666,1.666,0,0,1,33.435,15V17.57a14.95,14.95,0,0,1,1.427.594l1.822-1.822a1.666,1.666,0,0,1,2.356,0l4.712,4.712a1.666,1.666,0,0,1,0,2.356l-1.821,1.822a14.873,14.873,0,0,1,.592,1.427H45.1a1.666,1.666,0,0,1,1.666,1.666v5H56.874V5a5.1,5.1,0,0,0-5.11-5ZM45.1,16.662a5,5,0,1,1,5-5A5,5,0,0,1,45.1,16.662Zm0,0" fill="#fff"/>
        <path id="Trazado_1031287" data-name="Trazado 1031287" d="M211,245a4.967,4.967,0,0,0,.323,1.666h9.351A4.983,4.983,0,1,0,211,245Zm0,0" transform="translate(-187.562 -213.341)" fill="#fff"/>
        <path id="Trazado_1031288" data-name="Trazado 1031288" d="M124.752,162.08a1.667,1.667,0,0,1-1.614,1.25H121v3.332h6.884a8.335,8.335,0,1,1,16.224,0h6.884V163.33h-2.138a1.667,1.667,0,0,1-1.614-1.25,11.452,11.452,0,0,0-1.234-2.97,1.667,1.667,0,0,1,.257-2.024l1.515-1.517-2.356-2.356-1.517,1.517a1.659,1.659,0,0,1-2.026.256,11.452,11.452,0,0,0-2.968-1.234,1.667,1.667,0,0,1-1.25-1.614V150h-3.332v2.138a1.667,1.667,0,0,1-1.25,1.614,11.451,11.451,0,0,0-2.968,1.234,1.66,1.66,0,0,1-2.026-.256l-1.517-1.517-2.356,2.356,1.515,1.517a1.667,1.667,0,0,1,.257,2.024A11.453,11.453,0,0,0,124.752,162.08Zm0,0" transform="translate(-107.559 -133.338)" fill="#fff"/>
        <path id="Trazado_1031289" data-name="Trazado 1031289" d="M0,331.666a5,5,0,0,0,5,5H51.764a5.1,5.1,0,0,0,5.11-5V330H0Zm0,0" transform="translate(0 -293.343)" fill="#fff"/>
      </g>
    </g>
  </g>
</svg>
