<svg xmlns="http://www.w3.org/2000/svg" xmlns:xlink="http://www.w3.org/1999/xlink" width="96" height="96" viewBox="0 0 96 96">
  <defs>
    <clipPath id="clip-path">
      <rect id="Rectángulo_455533" data-name="Rectángulo 455533" width="95.999" height="92.163" fill="#19538d"/>
    </clipPath>
  </defs>
  <g id="Grupo_1185642" data-name="Grupo 1185642" transform="translate(-963 -4372)">
    <g id="Grupo_1185646" data-name="Grupo 1185646">
      <g id="Grupo_1185627" data-name="Grupo 1185627" transform="translate(579.255 -4027)">
        <circle id="Elipse_13674" data-name="Elipse 13674" cx="41.5" cy="41.5" r="41.5" transform="translate(389.746 8406)" fill="#19538d"/>
        <g id="Grupo_1179062" data-name="Grupo 1179062" transform="translate(383.745 8399)">
          <rect id="Rectángulo_455531" data-name="Rectángulo 455531" width="96" height="96" transform="translate(0 0)" fill="none"/>
          <g id="Grupo_1179061" data-name="Grupo 1179061" transform="translate(0 2.203)">
            <path id="Trazado_998445" data-name="Trazado 998445" d="M114.467,95.838H96.727l2.4-4.484h17.739Z" transform="translate(-23.693 -22.7)" fill="#19538d"/>
            <path id="Trazado_998446" data-name="Trazado 998446" d="M1.458,86.893,0,89.861H19.558l1.458-2.968Z" transform="translate(0 -21.618)" fill="#19538d"/>
            <path id="Trazado_998447" data-name="Trazado 998447" d="M117.539,31.293H98.809l1.469-3.326h18.73Z" transform="translate(-24.246 -6.956)" fill="#19538d"/>
            <path id="Trazado_998448" data-name="Trazado 998448" d="M28.088,11.547H3.483L4.952,8.221H29.557Z" transform="translate(-0.925 -2.184)" fill="#19538d"/>
            <g id="Grupo_1179060" data-name="Grupo 1179060" transform="translate(0)">
              <g id="Grupo_1179059" data-name="Grupo 1179059" clip-path="url(#clip-path)">
                <path id="Trazado_998449" data-name="Trazado 998449" d="M48.653,99.141a40.772,40.772,0,0,1-39.711-49.9H3.518A46.036,46.036,0,0,0,84.512,87.248h-7.1A40.6,40.6,0,0,1,48.653,99.141" transform="translate(-0.653 -12.277)" fill="#19538d"/>
                <path id="Trazado_998450" data-name="Trazado 998450" d="M110.835,87.933h6.025c.484-.964.923-1.952,1.34-2.953h-5.792c-.487,1.007-1.008,1.994-1.573,2.953" transform="translate(-27.709 -21.189)" fill="#19538d"/>
                <path id="Trazado_998451" data-name="Trazado 998451" d="M95.384,46.081a46.043,46.043,0,0,0-90.011-13.7h5.589A40.752,40.752,0,1,1,87.147,61.291h5.644a45.915,45.915,0,0,0,2.592-15.209" transform="translate(-1.343)" fill="#19538d"/>
                <path id="Trazado_998452" data-name="Trazado 998452" d="M108.562,81.649v2.5h3.277q.594-1.228,1.106-2.5Z" transform="translate(-27.141 -20.358)" fill="#19538d"/>
                <path id="Trazado_998453" data-name="Trazado 998453" d="M126.164,81.649h-4.551q-.444,1.268-.958,2.5h5.509Z" transform="translate(-30.164 -20.358)" fill="#19538d"/>
              </g>
            </g>
            <path id="Trazado_998444" data-name="Trazado 998444" d="M2.2,37.025,0,41.509H13.317l2.2-4.484Z" transform="translate(0 -9.2)" fill="#19538d"/>
          </g>
        </g>
      </g>
      <g id="Layer_x0020_1" transform="translate(946 4394.847)">
        <path id="Trazado_1030424" data-name="Trazado 1030424" d="M68.351,38.933H66.524v2.576H71.8a1.2,1.2,0,0,1,1.2,1.2v6.411a1.2,1.2,0,0,1-1.2,1.2H58.885a1.2,1.2,0,0,1-1.2-1.2V42.707a1.2,1.2,0,0,1,1.2-1.2h5.243V38.933c-1.318,0-2.876.3-3-1.108l-.779-6.351a12.944,12.944,0,0,1-3.835-2.217L50.586,31.8a1.189,1.189,0,0,1-1.528-.569l-.9-1.528-1.558.9v10.9h2.007a1.2,1.2,0,0,1,1.2,1.2v6.411a1.2,1.2,0,0,1-1.2,1.2H42.2a1.2,1.2,0,0,1-1.2-1.2V42.707a1.2,1.2,0,0,1,1.2-1.2h2.007V29.885a1.25,1.25,0,0,1,.659-1.078l2.1-1.168c-.629-1.108-1.648-2.307-.569-3.116l5.153-3.865-.18-2.217a1.2,1.2,0,0,1,1.2-1.2H54.3V12.75a.707.707,0,0,0-.21-.479c-.3-.3-1.2-.18-1.887-.18a3.259,3.259,0,1,1,0-2.4c1.318,0,2.576-.15,3.595.9a3.083,3.083,0,0,1,.9,2.157v4.494h1.857V7.567L56.428,5.44a3.262,3.262,0,1,1,1.708-1.708l2.457,2.486a1.108,1.108,0,0,1,.359.869V17.243h3.176V5.47a3.258,3.258,0,1,1,3.505-.719,3.2,3.2,0,0,1-1.108.719V17.243H69.7V7.088a1.219,1.219,0,0,1,.359-.869l2.486-2.486a3.263,3.263,0,1,1,5.3,1.019,3.224,3.224,0,0,1-3.595.689L72.1,7.567v9.676h1.887V12.75a2.96,2.96,0,0,1,.9-2.157c1.078-1.078,2.217-.9,3.595-.9A3.2,3.2,0,0,1,79.2,8.586,3.264,3.264,0,1,1,81.5,14.158a3.193,3.193,0,0,1-3.026-2.067H77.039l-.479.18a.68.68,0,0,0-.18.479v4.494h1.738a1.2,1.2,0,0,1,1.2,1.2l-.18,2.217,5.153,3.865a1.176,1.176,0,0,1,.33,1.528v.03l-.929,1.558,2.1,1.168a1.222,1.222,0,0,1,.689,1.078V41.509h2.007a1.2,1.2,0,0,1,1.2,1.2v6.411a1.2,1.2,0,0,1-1.2,1.2H82.072a1.183,1.183,0,0,1-1.2-1.2V42.707a1.183,1.183,0,0,1,1.2-1.2h2.007V30.6l-1.588-.9c-.629,1.138-1.168,2.636-2.427,2.1l-5.9-2.546A13.093,13.093,0,0,1,70.3,31.473l-.749,6.411A1.2,1.2,0,0,1,68.351,38.933ZM56.308,19.64a9.112,9.112,0,0,0,18.064,0Z" transform="translate(0 0)" fill="#fff"/>
      </g>
    </g>
  </g>
</svg>
